<svg xmlns="http://www.w3.org/2000/svg" width="483.646" height="180.168" viewBox="0 0 483.646 180.168">
  <g id="グループ_375" data-name="グループ 375" transform="translate(-909.234 -347.256)">
    <g id="グループ_373" data-name="グループ 373" transform="translate(909.234 347.256)">
      <path id="パス_519" data-name="パス 519" d="M936.039,430.516V403.9a140.295,140.295,0,0,1-22,17.774l-4.8-13.545a144.214,144.214,0,0,0,26.805-9.031V377.962H913.27v-4.323h22.769V348.083H946.9v82.529Zm33.145-1.345c-8.261,0-11.816-2.691-11.816-10.664V348.083h10.76v36.795c5.093-4.9,10.088-12.009,14.028-19.981l11.528,8.935A79.118,79.118,0,0,1,968.128,389.3v26.9c0,2.212.864,2.884,3.172,2.884h11.913c3.17,0,4.706-1.921,7.59-15.181l3.555,1.251c-1.346,19.119-3.94,24.018-12.875,24.018Z" transform="translate(-909.234 -346.352)" fill="#d3b94c"/>
      <path id="パス_520" data-name="パス 520" d="M953.944,423.733A161.118,161.118,0,0,0,974.7,388.378l2.691,1.728a184.893,184.893,0,0,1-10.471,41.505Zm11.241-33.244A126.741,126.741,0,0,0,955.1,370.315L957.4,368.1a80.087,80.087,0,0,1,16.428,11.53Zm7.686-22.191c-4.419-8.071-8.55-11.913-12.3-16.525l1.921-2.5a91.487,91.487,0,0,1,17.774,8.456Zm58.413,49.959c-1.728,11.239-4.032,15.372-11.335,15.372-3.748,0-8.742-1.057-15.66-2.785v-3.461c4.036,1.057,7.012,1.73,9.222,1.73,4.419,0,5.958-2.595,7.207-10.856h-27.19c-.286,1.728-.575,3.553-.96,5.38l-9.9-1.442c1.731-9.414,3.076-18.448,4.131-27.381h-7.876V391.45h8.261c.672-5.859,1.249-12.105,1.536-17.964a60.127,60.127,0,0,1-6.723,6.34L980.268,378c5.765-10.09,8.263-19.119,10.187-30.745l12.873,3.365a66.945,66.945,0,0,1-2.883,6.533H1038.1v3.457H998.619a53.658,53.658,0,0,1-6.054,8.648h41.6c0,6.533-.287,14.507-.575,22.191h6.725v3.365H1033.4c-.479,7.686-1.057,14.7-1.442,18.927,0,.383-.1.672-.1,1.057h7.207v3.459Zm-28.531-3.459c.96-6.725,1.728-13.451,2.3-19.984h-7.973c-.674,6.244-1.634,12.777-2.883,19.984Zm2.593-23.348c.479-6.244.864-12.488,1.153-18.831h-7.3c-.479,6.15-.96,12.3-1.728,18.831ZM1021.1,414.8a29.756,29.756,0,0,0,.385-3.074c.287-2.4.672-9.224,1.057-16.91h-8.36c-.481,5.957-1.249,12.873-2.306,19.984Zm1.536-23.348c.289-6.533.481-13.449.481-18.831h-7.4c-.385,6.629-.672,12.586-1.249,18.831Z" transform="translate(-860.387 -347.256)" fill="#3b1608"/>
      <path id="パス_521" data-name="パス 521" d="M1082.332,432.133c-3.938.289-8.839.481-14.507.481-6.052,0-13.066-.192-20.848-.481-10.28-.383-20.944-4.131-26.422-14.7a206.468,206.468,0,0,1-15.179,16.043l-6.34-12.683a56.784,56.784,0,0,0,11.434-3.844V386.882h-9.992v-3.555h21.9v30.457c6.15,6.629,12.779,8.357,24.6,8.357,10.088,0,27.573-.96,38.431-2.881ZM1014.6,371.893a85.682,85.682,0,0,0-8.935-18.831l2.306-2.5a89.653,89.653,0,0,1,17.2,10.661Zm17.774,43.137V371.7h13.545a70.093,70.093,0,0,0,.289-7.876h-18.734v-3.461h15.374a103.912,103.912,0,0,0-6.629-10.471l1.536-2.017a72.354,72.354,0,0,1,15.277,5.476l-7.3,7.012h12.105a48.215,48.215,0,0,0,2.787-12.969l14.122,3.459a67.85,67.85,0,0,1-13.162,9.51h21.712v3.461h-23.825a63.343,63.343,0,0,1-8.935,7.876h26.42v43.33ZM1066,375.162h-22.674v9.125H1066Zm0,12.584h-22.674v9.9H1066Zm0,13.354h-22.674v10.473H1066Z" transform="translate(-811.125 -347.105)" fill="#d3b94c"/>
    </g>
    <g id="グループ_374" data-name="グループ 374" transform="translate(914.103 450.277)">
      <path id="パス_522" data-name="パス 522" d="M932.984,437.378a82.04,82.04,0,0,0-21.423-18.448L913,416.145c8.263,1.249,19.021,4.706,28.534,8.935Zm52.459-17.391c-8.167,24.307-29.977,46.5-67.733,49.191l-2.884-13.547c37.182-1.921,57.069-15.179,66.58-37.854ZM942.21,419.6a69.721,69.721,0,0,0-21.04-17.1l1.249-3.074a180.209,180.209,0,0,1,27.764,8.55Z" transform="translate(-911.561 -393.278)" fill="#3b1608"/>
      <path id="パス_523" data-name="パス 523" d="M949.668,450.41v-3.17h35.066l4.229-33.148H958.988v-3.553H1000.3l-4.612,36.7h15.853v3.17Z" transform="translate(-869.928 -381.139)" fill="#d3b94c"/>
      <path id="パス_524" data-name="パス 524" d="M986.8,422.426l-1.632-10.281c12.392.768,31.8.864,49.959.864h25.267v9.416Z" transform="translate(-831.148 -379.383)" fill="#3b1608"/>
      <path id="パス_525" data-name="パス 525" d="M1095.67,425.393c-4.034,22.675-25.652,40.352-58.7,44.387l-1.346-3.555c26.132-7.2,39.871-22.386,44.29-40.735h-50.729v-4.8h66.485Zm-60.721-20.848v-4.612h55.242v4.612Z" transform="translate(-783.055 -392.726)" fill="#d3b94c"/>
      <path id="パス_526" data-name="パス 526" d="M1132.746,467.264c-6.439-9.32-14.606-19.023-24.788-26.42-11.337,11.816-23.539,20.27-42.369,26.514L1063.473,464c26.807-12.683,41.6-32.955,48.423-58.607H1077.4v-4.034h49.769v4.131c-3.748,12.779-8.841,22.867-16.334,32.091a182.644,182.644,0,0,1,31.9,16.811Z" transform="translate(-745.594 -391.172)" fill="#3b1608"/>
      <path id="パス_527" data-name="パス 527" d="M1177.734,419.548c-7.878,30.264-31.9,48.806-69.75,54.087l-1.824-3.553c32.185-8.454,51.3-26.613,56.778-52.169h-22.674a77.044,77.044,0,0,1-28.82,21.9l-2.691-2.593c13.066-8.745,23.828-26.133,27.286-40.737l14.219,4.036a71.727,71.727,0,0,1-7.11,13.354h34.587Z" transform="translate(-698.958 -396.489)" fill="#d3b94c"/>
    </g>
  </g>
</svg>
