<svg xmlns="http://www.w3.org/2000/svg" width="452.885" height="140.896" viewBox="0 0 452.885 140.896">
  <g id="グループ_339" data-name="グループ 339" transform="translate(-135.046 -171.134)">
    <path id="パス_425" data-name="パス 425" d="M362,287.03c0,.682,0,2.662-2.146,2.662s-2.15-2.149-2.15-2.662V258.944A62.046,62.046,0,0,1,342.1,266.4a69.74,69.74,0,0,1-7.575,2.038,1.244,1.244,0,0,1-1.187-1.241c0-.963.788-1.187,1.637-1.414A60.476,60.476,0,0,0,366.459,246.4c.623-.678,3.053-4.014,3.62-4.691a2.291,2.291,0,0,1,1.92-.961,2.372,2.372,0,0,1,2.373,2.315c0,2.659-8.649,10.058-12.376,13Z" transform="translate(61.396 21.553)" fill="#fff"/>
    <path id="パス_428" data-name="パス 428" d="M547.289,276.932a3.391,3.391,0,1,1-6.783,0,3.391,3.391,0,0,1,6.783,0" transform="translate(25.178 31.707)" fill="#fff"/>
    <path id="パス_429" data-name="パス 429" d="M546.422,279.957c3.755-7.923.025-11.949-4.034-13.869-4.607-2.182-7.119-.216-8.253,2.178A4.547,4.547,0,0,0,536,274.341c2.58,1.219,4.01-.364,4.353-1.1a2.635,2.635,0,0,1-1.193-.342c-1.288-.61-1.946-1.6-1.336-2.893.7-1.469,2.163-1.226,3.449-.619,1.107.525,2.334,2.234,1.2,4.628-1.311,2.763-4.86,3.114-7.254,1.979a6.487,6.487,0,0,1-2.462-8.613c2.531-5.341,8.4-3.918,10.055-3.131a14.082,14.082,0,0,1,4.259,2.919l.271-.1c-2.144-6.429-7.437-15.258-4.121-22.258,3.061-6.449,8.754-4.65,10.227-3.955,1.84.874,5.728,3.622,3.2,8.963a4.541,4.541,0,0,1-5.875,2.4c-2.212-1.05-2.434-2.957-1.911-4.064a2.306,2.306,0,0,1,3.072-1.251c1.478.7,1.313,1.52,1.323,1.978a1.527,1.527,0,0,0,1.528-.853c.437-.923,1.477-3.588-2.209-5.334-3.317-1.569-6.291-.048-7.689,2.9-2.273,4.795-.441,9.5,4.666,22.524l.278-.1a13.409,13.409,0,0,1,.815-4.573c1.4-2.952,4.9-5.58,10.057-3.137,4.97,2.36,5.428,6.637,3.945,9.768-1.657,3.5-5.383,4.22-7.409,3.258s-2.607-2.59-1.826-4.246a2.133,2.133,0,0,1,2.99-1.069,2.016,2.016,0,0,1,.978,3.169,3.242,3.242,0,0,0,3.426-1.983,5.365,5.365,0,0,0-2.892-7.237c-3.5-1.662-6.39-.325-7.613,2.256a15.288,15.288,0,0,0-.989,4.949c-.223,2.377-1.283,8.413-2.854,11.733Z" transform="translate(22.55 21.351)" fill="#fff"/>
    <path id="パス_430" data-name="パス 430" d="M455.762,242.3c-2.49,0-2.6,2.2-2.767,4.462-1.244,18.766-10.62,33.346-27.694,38.318-9.751,2.842-13.117.4-15.027-3.664-2.169-4.614-.191-7.122,2.207-8.245a4.532,4.532,0,0,1,6.066,1.877c1.214,2.585-.367,4-1.109,4.352a2.564,2.564,0,0,0-.335-1.193c-.612-1.294-1.594-1.955-2.886-1.349-1.473.7-1.242,2.159-.633,3.455.524,1.108,2.225,2.332,4.624,1.207,2.769-1.3,3.127-4.852,2-7.253a6.487,6.487,0,0,0-8.605-2.487c-5.349,2.514-3.719,8.337-2.941,10a13.6,13.6,0,0,0,2.99,4.3c4.335,4.011,13.607,1.913,19.134-.259,11.28-4.436,18.2-11.754,22.151-20.4a72.3,72.3,0,0,0,5.373-20.29,2.564,2.564,0,0,0-2.546-2.826" transform="translate(84.451 22.034)" fill="#fff"/>
    <path id="パス_431" data-name="パス 431" d="M430.691,255.248c.791,2.317,1.019,3.106,3,3.106a2.4,2.4,0,0,0,2.036-2.428c0-1.472-3.22-6-4.467-7.745-1.244-1.64-3.672-4.8-4.687-4.8a1.171,1.171,0,0,0-1.134,1.132,3.151,3.151,0,0,0,.736,1.64,34.8,34.8,0,0,1,4.52,9.1" transform="translate(89.909 22.368)" fill="#fff"/>
    <path id="パス_432" data-name="パス 432" d="M419.421,259.791c.566,1.754,1.016,3.053,2.88,3.053a2.33,2.33,0,0,0,2.263-2.373c0-2.884-8.646-14.975-10.457-14.975a1.168,1.168,0,0,0-1.185,1.24,2.055,2.055,0,0,0,.564,1.3,41.545,41.545,0,0,1,5.935,11.755" transform="translate(86.035 23.023)" fill="#fff"/>
    <path id="パス_433" data-name="パス 433" d="M416.937,263.221H395.858l-1.668-.238c-6.374-1.194-7.165-5.177-6.555-8.435.7-3.709,2.962-4.357,4.889-4a3.35,3.35,0,0,1,2.825,3.748,2.256,2.256,0,0,1-2.542,2.131,1.842,1.842,0,0,0,.312-.862c.2-1.039-.111-1.86-1.148-2.053-1.184-.22-1.678.76-1.874,1.8a2.459,2.459,0,0,0,2.256,2.727c2.226.41,3.97-1.562,4.331-3.486a4.8,4.8,0,0,0-4.085-5.218c-4.3-.8-5.993,3.329-6.246,4.662a10.489,10.489,0,0,0-.094,3.816l-.178.123c-2.919-4.073-5.908-11.074-11.539-12.132a5.451,5.451,0,0,0-6.809,4.4c-.279,1.486-.321,5.007,3.976,5.811a3.368,3.368,0,0,0,4-2.475,2.3,2.3,0,0,0-1.607-2.911,1.7,1.7,0,0,0-2.081,1.3c-.225,1.187.341,1.443.614,1.646a1.136,1.136,0,0,1-1.181.545c-.736-.135-2.787-.669-2.23-3.634a4.07,4.07,0,0,1,5.072-3.349c3.852.72,5.809,3.9,11.455,12.575a10.058,10.058,0,0,0,4.205,3.5h-18.06c-.507,0-1.807,0-1.807,1.469s1.355,1.472,1.866,1.472H416.88c.507,0,1.865,0,1.865-1.472s-1.358-1.469-1.809-1.469" transform="translate(72.011 23.075)" fill="#fff"/>
    <path id="パス_434" data-name="パス 434" d="M292.747,282.05c-11.347-8.193-15.958-10.317-21.114-9.1-3.177.746-5.288,3.34-4.45,6.911.934,3.968,3.759,3.516,4.749,3.281a1.532,1.532,0,0,0,1.16-1.319c-.447-.1-1.287-.117-1.659-1.706a2.306,2.306,0,0,1,1.866-2.742c1.193-.278,3.013.342,3.575,2.723a4.545,4.545,0,0,1-3.584,5.242c-5.756,1.351-7.627-3.025-8.091-5.012-.375-1.585-.934-7.529,6.012-9.163,7.543-1.772,15.063,5.257,20.9,8.7l.845.54a12.965,12.965,0,0,1-2.433-5.559c-.538-2.356-.808-7.826,4.953-9.179a6.493,6.493,0,0,1,7.9,4.217c.609,2.58-.478,5.978-3.455,6.68-2.583.606-3.994-.947-4.272-2.139-.33-1.388-.258-2.869,1.331-3.246,1.388-.325,2.216.525,2.543,1.915a2.652,2.652,0,0,1,.084,1.238c.794-.187,2.635-1.249,1.983-4.028a4.54,4.54,0,0,0-5.546-3.092c-2.58.606-5.028,2.648-3.863,7.608.98,4.174,3.912,8.447,11.61,7.073,24.216-7.6,31.106-29.855,31.094-32.768,0-.564-.28-1.412-1.751-1.412H308.548c-.733,0-1.92,0-1.92-1.3s1.187-1.3,1.92-1.3H336.3a3.576,3.576,0,0,1,3.789,3.507c0,3.159-5.823,13.9-8.874,17.8,10.909,5.655,18.705,12.779,18.705,15.036a2.424,2.424,0,0,1-2.313,2.487c-1.02,0-1.245-.339-3.338-3a54.463,54.463,0,0,0-14.522-12.6c-5.2,6.557-12.373,11-20.179,14.014-5.127,1.984-12.6,2.746-16.818-.3" transform="translate(40.237 22.902)" fill="#fff"/>
    <path id="パス_435" data-name="パス 435" d="M222.287,211.18c.4,0,1.243.181,1.243,1.623,0,1.534-.846,1.625-1.243,1.625H204.934c-.449,0-1.3-.181-1.3-1.625s.9-1.623,1.3-1.623ZM220.138,199c.4,0,1.247.185,1.247,1.628s-.849,1.62-1.247,1.62H207.026c-.394,0-1.242-.178-1.242-1.62s.847-1.628,1.242-1.628Zm0,24c.4,0,1.247.27,1.247,1.623,0,1.534-.849,1.623-1.247,1.623H207.026c-.394,0-1.242-.179-1.242-1.53,0-1.536.847-1.627,1.242-1.716Zm0,12.447c.4,0,1.247.178,1.247,1.623,0,1.532-.849,1.621-1.247,1.621H207.026c-.394,0-1.242-.178-1.242-1.621s.847-1.623,1.242-1.623Zm1.247,31.48c0,5.139-.849,7.391-5.314,7.391H211.1c-4.636,0-5.313-2.524-5.313-7.391V255.378c0-5.143.847-7.4,5.313-7.4h4.973c4.633,0,5.314,2.615,5.314,7.4Zm-4.241-10.558c0-5.139-.792-5.139-4.409-5.139-2.657,0-2.657,2.253-2.657,5.139v9.564c0,3.967.284,5.143,3.165,5.143,2.94,0,3.9,0,3.9-5.143Zm32.441,11c0,6.857-2.26,7.854-6.048,7.854h-6.158c-.57,0-1.527,0-1.527-1.628s.957-1.623,1.527-1.623h4.351c3.109,0,3.615-.994,3.615-5.771V202.25H224.322c-.394,0-1.245-.178-1.245-1.62s.851-1.628,1.245-1.628h29.5c.4,0,1.244.185,1.244,1.628s-.906,1.62-1.244,1.62h-4.239Zm-8.533-21.014c0,5.144-.849,7.4-5.31,7.4h-4.919c-4.635,0-5.313-2.528-5.313-7.4V221.373c0-5.05.846-7.394,5.313-7.394h4.919c4.631,0,5.31,2.615,5.31,7.394Zm-4.183-23.9c0-5.235-.733-5.235-4.467-5.235-2.711,0-2.711,2.345-2.711,5.235v22.909c0,5.141.739,5.141,4.466,5.141,2.653,0,2.712-2.255,2.712-5.141Z" transform="translate(21.237 8.628)" fill="#fff"/>
    <path id="パス_436" data-name="パス 436" d="M274.727,243.185c0,.961-.224,2.881-2.315,2.881-2.149,0-2.374-1.92-2.374-2.881V213.171c-8.987,11.643-20.964,18.542-22.325,18.542a1,1,0,0,1-.961-1.02c0-.619.4-.846.85-1.128a61.47,61.47,0,0,0,24.753-29.389H248c-.394,0-1.244-.117-1.244-1.02s.85-1.015,1.244-1.015h48.889c.393,0,1.244.113,1.244,1.015,0,.964-.908,1.02-1.244,1.02H278.009c-.85,1.809-1.811,3.673-3.282,6.16Z" transform="translate(34.586 8.362)" fill="#fff"/>
    <path id="パス_437" data-name="パス 437" d="M298.865,229.577a34.792,34.792,0,0,1-2.15,10c-1.807,4.8-2.824,4.8-3.728,4.8a2.4,2.4,0,0,1-2.428-2.372c0-.853.284-1.131,1.3-2.545a30.18,30.18,0,0,0,5.029-10.117,1,1,0,0,1,1.015-.85.959.959,0,0,1,.961,1.079m31.257-33.292c4.912,0,5.933,1.075,5.933,5.2v16.218c0,4.239-1.187,5.143-5.933,5.143H301.127c-4.916,0-5.935-1.074-5.935-5.143V201.487c0-4.241,1.188-5.2,5.935-5.2Zm-17.013,2.034H302.824c-2.884,0-3.226.737-3.226,3.278v6.728h13.51Zm0,12.039H299.6v7.234c0,2.484.342,3.219,3.226,3.219h10.284Zm-4.466,30.009c0,3.113.567,3.676,3.62,3.676h8.3c2.546,0,3.793-.792,5.03-4.352.85-2.373,1.131-3.165,2.658-3.165a2.124,2.124,0,0,1,2.147,2.2,11.141,11.141,0,0,1-2.486,5.652c-1.355,1.524-2.711,1.7-4.918,1.7H311.073c-4.92,0-6.67-.851-6.67-5.823V229.629c0-.4,0-2.6,2.1-2.6,2.144,0,2.144,2.148,2.144,2.6Zm13.393-7.4a2.383,2.383,0,0,1-2.369,2.369c-1.527,0-2.15-1.184-2.717-2.313a42.82,42.82,0,0,0-3.9-6.331,1.258,1.258,0,0,1-.342-.735,1.029,1.029,0,0,1,1.075-1.019c.568,0,8.251,5.6,8.251,8.028m-4.292-24.642h13.844V201.6c0-2.541-.341-3.278-3.165-3.278H317.744Zm0,12.487h10.679c2.825,0,3.165-.735,3.165-3.219v-7.234H317.744Zm20.062,12.267c.959,1.751,3.334,6.1,3.334,7.575a2.427,2.427,0,0,1-2.429,2.372c-1.979,0-2.318-1.752-2.545-2.881a56,56,0,0,0-3.278-10.74,2.692,2.692,0,0,1-.225-.735,1.051,1.051,0,0,1,1.018-1.018c.961,0,3.223,3.842,4.125,5.427" transform="translate(48.149 7.787)" fill="#fff"/>
    <path id="パス_438" data-name="パス 438" d="M350.89,205.448c.39,0,1.239.17,1.239,1.016,0,.964-.849,1.02-1.239,1.02H334.228c-.4,0-1.247-.113-1.247-.965a1.085,1.085,0,0,1,1.247-1.071Zm-1.3-7.741c.45,0,1.24.111,1.24,1.015s-.846,1.019-1.24,1.019H335.524c-.448,0-1.243-.115-1.243-1.019s.85-1.015,1.243-1.015Zm0,15.372c.45,0,1.24.111,1.24,1.014s-.846,1.019-1.24,1.019H335.524c-.448,0-1.243-.111-1.243-1.019s.85-1.014,1.243-1.014Zm0,7.575c.45,0,1.24.11,1.24,1.016,0,.957-.846,1.014-1.24,1.014H335.524c-.448,0-1.243-.114-1.243-1.014s.85-1.016,1.243-1.016Zm30.989,25.871a9.878,9.878,0,0,1-5.9-5.7c-2.824,2.033-6.772,4.465-7.505,4.465a1,1,0,0,1-.96-1.019c0-.505.337-.732.678-1.019a52.993,52.993,0,0,0,6.658-5.478,47.155,47.155,0,0,1-2.145-9.436h-8.179v5.193c.843-.221,5.525-1.524,5.752-1.524a1,1,0,0,1,.959,1.019.947.947,0,0,1-.507.85,57.181,57.181,0,0,1-6.2,2.372v5.482c0,2.657,0,5.03-5.068,5.03h-3.549c-.562,0-1.524,0-1.524-1.016s.906-1.019,1.524-1.019h1.579c2.873,0,3.209-.733,3.209-3.224v-4.009a42.51,42.51,0,0,1-5.24,1.524,1.772,1.772,0,0,1-1.752-1.812c0-1.07.79-1.524,1.642-1.691s5.38-.265,5.35-1.075c-.092-2.488.127-3.7,0-6.1h-7.326c-.4,0-1.243-.12-1.243-1.021s.845-1.016,1.243-1.016H359.4v-4.522c-3.038.169-4.505.284-5.465.284-1.014,0-1.3-.566-1.3-1.077,0-.788.394-.96,3.611-1.357a31.824,31.824,0,0,0,7.431-1.75,3.493,3.493,0,0,1,1.523-.509,1.944,1.944,0,0,1,1.862,1.979c0,1.75-1.636,1.921-3.835,2.148v4.8h7.841c-.339-2.6-.681-5.65-.681-6.615a2,2,0,0,1,2.036-2.09,2.042,2.042,0,0,1,2.088,2.034c.114,1.075.452,5.709.564,6.671h8.142c.449,0,1.243.11,1.243,1.016s-.849,1.021-1.243,1.021h-7.856a61.948,61.948,0,0,0,1.243,6.157c.4-.451,2.093-2.711,2.429-3.164a2.09,2.09,0,0,1,1.7-.846,2.208,2.208,0,0,1,2.262,2.146c0,1.413-2.6,3.616-5.2,5.762.908,2.432,1.8,4.373,2.872,5.008a10.793,10.793,0,0,0,7.359,1.044c9.653-1.916,10.1-6.728,9.685-11.2-.466-5.075-3.442-6.232-6.081-5.989a4.537,4.537,0,0,0-4.275,4.694c.266,2.843,2.351,3.264,3.161,3.192a2.556,2.556,0,0,1-.316-1.2c-.131-1.421.381-2.494,1.8-2.626,1.627-.148,2.162,1.235,2.292,2.659.114,1.217-.733,3.135-3.37,3.379-3.045.282-5.155-2.592-5.4-5.235a6.488,6.488,0,0,1,6.155-6.506c5.888-.543,7.652,5.231,7.822,7.056a14.131,14.131,0,0,1-.344,5.153l.22.185c4.442-5.121,9.336-14.178,17.055-14.89,7.106-.655,8.463,5.159,8.613,6.78.186,2.035-.194,6.78-6.079,7.322a4.542,4.542,0,0,1-5.067-3.832c-.225-2.437,1.3-3.6,2.524-3.715a2.311,2.311,0,0,1,2.647,2.008c.149,1.627-.644,1.9-1.035,2.143a1.534,1.534,0,0,0,1.514.885c1.02-.094,3.841-.561,3.467-4.623-.337-3.651-3.164-5.441-6.413-5.138-5.282.49-8.31,4.527-16.995,15.5-1.744,2.195-5.046,4.389-11.584,5.99a15.907,15.907,0,0,1-7.441.085m-10.753-39.041h9.607c.451,0,1.24.113,1.24,1.015s-.849,1.018-1.24,1.018h-9.607v4.519h13.337c.392,0,1.242.113,1.242,1.019,0,.961-.85,1.018-1.242,1.018H353.425c-.451,0-1.24-.114-1.24-1.018s.846-1.019,1.24-1.019H365.6v-4.519H357.43c-.452,0-1.3-.117-1.3-1.018s.9-1.015,1.3-1.015H365.6v-3.674h-9.467c-.392,0-1.238-.115-1.238-.964a1.106,1.106,0,0,1,1.238-1.073h24.655c.4,0,1.246.169,1.246,1.019,0,.956-.9,1.018-1.246,1.018h-10.96Zm-6.37-5.879c-.9,0-1.071-.227-2.422-2.259a25.784,25.784,0,0,0-1.858-2.373,1.37,1.37,0,0,1-.339-.853,1,1,0,0,1,1.014-.957c.674,0,3.095,1.637,3.66,2.089,1.743,1.3,1.916,1.638,1.916,2.488a1.937,1.937,0,0,1-1.971,1.865m17.895,22.552c-.9,0-1.128-.284-2.317-2.091-.113-.228-1.244-1.695-1.864-2.543a1.182,1.182,0,0,1-.285-.68,1.014,1.014,0,0,1,1.019-1.019c.338,0,5.372,2.66,5.372,4.409a1.908,1.908,0,0,1-1.925,1.924" transform="translate(61.284 7.44)" fill="#fff"/>
    <path id="パス_439" data-name="パス 439" d="M268.59,207.222l2.194-.465c1.826,8.575,7.233,9.51,11.622,8.578,4.984-1.059,5.788-4.148,5.237-6.739a4.534,4.534,0,0,0-5.164-3.694c-2.79.591-2.969,2.712-2.8,3.507a2.58,2.58,0,0,1,1.155-.45c1.392-.3,2.52.089,2.814,1.484.338,1.6-.97,2.291-2.365,2.59-1.2.251-3.207-.365-3.756-2.958-.633-2.986,1.971-5.423,4.568-5.972a6.484,6.484,0,0,1,7.181,5.354c1.232,5.785-4.3,8.209-6.095,8.591a14.116,14.116,0,0,1-5.157.259l-.153.246c5.6,3.807,15.165,7.617,16.779,15.194,1.482,6.98-4.136,9-5.728,9.348-1.995.419-6.754.6-7.98-5.189a4.539,4.539,0,0,1,3.211-5.476c2.393-.506,3.73.877,3.986,2.072a2.314,2.314,0,0,1-1.684,2.864c-1.6.338-1.968-.42-2.251-.778a1.527,1.527,0,0,0-.7,1.611c.207,1,1,3.744,4.992,2.9,3.588-.762,5.033-3.778,4.357-6.972-1.1-5.187-5.472-7.72-17.377-15.07-2.387-1.471-5.127-4.344-6.891-10.834" transform="translate(41.347 9.874)" fill="#fff"/>
    <path id="パス_440" data-name="パス 440" d="M193.561,233.042c1.637,0,1.806-2.437,1.806-3.611V216.714c3.222,9.383,7.914,14.072,8.48,14.072.392,0,.959-.541.959-1.623a2.228,2.228,0,0,0-.508-1.442c-2.373-2.977-4.3-5.5-6.557-13.26h4.975c.4,0,1.244-.094,1.244-1.623,0-1.443-.846-1.625-1.244-1.625h-7.348V208.33c0-1.083-.169-3.611-1.865-3.611-1.637,0-1.809,2.528-1.809,3.611v2.884h-5.426c-.394,0-1.243.182-1.243,1.625s.795,1.623,1.243,1.623h2.714a42.889,42.889,0,0,1-6.105,13.172c-.506.718-.733.987-.733,1.712,0,.99.507,1.62,1.018,1.62.682,0,5.313-5.681,8.533-14.338v12.8c0,1,.113,3.611,1.868,3.611" transform="translate(14.582 10.398)" fill="#fff"/>
    <path id="パス_441" data-name="パス 441" d="M218.428,213.767c.392,0,1.242-.179,1.242-1.625s-.9-1.625-1.3-1.625H200.236a49.8,49.8,0,0,0,2.258-10.295,15.28,15.28,0,0,1,.993-4.944c1.224-2.581,4.113-3.917,7.615-2.264a5.375,5.375,0,0,1,2.886,7.242,3.246,3.246,0,0,1-3.423,1.987,2.016,2.016,0,0,0-.977-3.172,2.13,2.13,0,0,0-2.991,1.065c-.784,1.657-.2,3.287,1.824,4.248s5.753.242,7.41-3.257c1.485-3.134,1.033-7.412-3.946-9.766-5.159-2.449-8.66.182-10.058,3.129a13.558,13.558,0,0,0-.815,4.576l-.272.1c-5.111-13.029-6.941-17.728-4.673-22.521,1.4-2.949,4.375-4.468,7.691-2.9,3.687,1.744,2.649,4.412,2.213,5.333a1.533,1.533,0,0,1-1.534.854c-.01-.458.157-1.281-1.319-1.979a2.307,2.307,0,0,0-3.074,1.251c-.525,1.1-.3,3.019,1.909,4.062a4.541,4.541,0,0,0,5.878-2.4c2.533-5.345-1.359-8.09-3.2-8.962-1.475-.7-7.168-2.494-10.224,3.956-3.315,7,1.978,15.827,4.123,22.256l-.272.1A14.142,14.142,0,0,0,194,195.292c-1.658-.787-7.526-2.211-10.059,3.135a6.487,6.487,0,0,0,2.462,8.609c2.4,1.135,5.946.787,7.254-1.978,1.137-2.4-.084-4.1-1.188-4.624-1.291-.613-2.757-.851-3.457.621-.61,1.29.051,2.277,1.34,2.888a2.592,2.592,0,0,0,1.193.342c-.351.735-1.775,2.318-4.353,1.095a4.543,4.543,0,0,1-1.864-6.075c1.134-2.394,3.65-4.358,8.255-2.181,3.972,1.882,7.614,5.791,4.237,13.392H178.358c-5.993,0-6.162,4.872-6.162,9.023v28.41c0,15.155-1.524,24.263-4.8,31.659a4.118,4.118,0,0,0-.354.911c-4.417,6.972-9.677,6.129-13.439,3.888-4.381-2.6-4.15-5.785-2.795-8.063a4.544,4.544,0,0,1,6.081-1.847c2.453,1.46,1.936,3.527,1.518,4.227a2.574,2.574,0,0,0-.947-.8c-1.226-.728-2.416-.727-3.143.5-.834,1.4.183,2.483,1.41,3.21,1.049.627,3.15.688,4.5-1.59,1.564-2.631-.127-5.768-2.407-7.124a6.486,6.486,0,0,0-8.52,2.759c-3.023,5.083,1.435,9.156,3.011,10.1a14.124,14.124,0,0,0,4.8,1.9l.072.279c-6.531,1.809-16.808,2.34-20.771,9-3.647,6.137,1.019,9.86,2.421,10.692,1.751,1.041,6.2,2.74,9.222-2.347a4.543,4.543,0,0,0-1.285-6.221c-2.1-1.247-3.814-.365-4.437.685a2.305,2.305,0,0,0,.678,3.249,1.806,1.806,0,0,0,2.377-.009,1.536,1.536,0,0,1,.147,1.747c-.523.879-2.157,3.224-5.661,1.143-3.154-1.877-3.552-5.2-1.886-8,2.71-4.557,7.66-5.554,21.3-8.688,2.466-.567,5.583-2.154,8.93-6.566a5.337,5.337,0,0,0,1.028-1.413.387.387,0,0,1,.047-.064l-.008-.005c.881-1.573,1.865-3.869,2.294-4.891,3.611-8.658,4.97-16.867,4.97-28.681V220.169c0-5.409.678-6.4,4.013-6.4Z" transform="translate(0 0)" fill="#fff"/>
    <path id="パス_442" data-name="パス 442" d="M208.489,251.147H190.742v-7.4h15.372c.339,0,1.245-.181,1.245-1.621s-.851-1.625-1.245-1.625H190.742v-5.951c2.656-.183,8.137-1.083,9.438-1.806a3.037,3.037,0,0,0,1.243-2.7c0-1.625-.847-2.8-1.751-2.8-.566,0-3.393,1.624-4.014,1.9-7.067,2.8-14.978,2.8-22.381,2.8-1.073,0-1.185,1.264-1.185,1.623,0,1.625.113,1.8,6.159,1.8,1.752,0,5.085-.089,8.252-.361v5.5H171.47c-.4,0-1.243.181-1.243,1.625s.846,1.621,1.243,1.621H186.5v7.4H168.758c-.4,0-1.247.09-1.247,1.623,0,1.441.795,1.621,1.247,1.621H186.5v4.781c0,3.969-.339,5.139-3.223,5.139h-3.615c-.622,0-1.528,0-1.528,1.627s.963,1.624,1.528,1.624h6.048c5.029,0,5.029-3.79,5.029-8.028v-5.143h17.747c.393,0,1.242-.181,1.242-1.621s-.791-1.623-1.242-1.623" transform="translate(10.052 17.372)" fill="#fff"/>
    <path id="パス_443" data-name="パス 443" d="M186.86,212.839c0-1.443-.794-1.625-1.247-1.625H179.4v-2.8c0-1.17-.169-3.7-1.924-3.7-1.691,0-1.864,2.528-1.864,3.7v2.8h-6.328c-.4,0-1.247.182-1.247,1.625s.792,1.623,1.247,1.623h4.066a47.321,47.321,0,0,1-5.313,14.343,2.524,2.524,0,0,0-.4,1.35c0,.813.454,1.538,1.019,1.538,1.016,0,5.2-8.031,6.951-14.073v11.726c0,.723,0,3.7,1.924,3.7,1.636,0,1.864-2.435,1.864-3.7V218.068c.678,1.535,3.786,7.94,4.745,7.94.567,0,1.02-.724,1.02-1.714a2.478,2.478,0,0,0-.4-1.265,38.578,38.578,0,0,1-3.786-8.568h4.631c.4,0,1.247-.092,1.247-1.623" transform="translate(10.092 10.398)" fill="#fff"/>
    <path id="パス_444" data-name="パス 444" d="M345.1,238.226a8.761,8.761,0,0,1-4.021,1.125c-1.473.113-6.286-.509-6.644-5.244a5.107,5.107,0,0,1,4.328-5.748c2.122-.16,4.68,1.121,4.868,3.574a2.655,2.655,0,0,1-2.224,3.127c-1.145.086-2.326-.321-2.412-1.463s.694-1.7,1.837-1.782c.148-.177.652-.051.98-.073-.051-.652-.655-2.086-2.937-1.912a3.639,3.639,0,0,0-3.143,4.017c.158,2.123,1.479,4.32,5.4,4.022,3.755-.283,7.706-2.226,7.161-9.411-.173-2.287-1.864-8.867-9.44-8.223-3.591.308-4.3,2.366-4.2,3.675a1.912,1.912,0,0,0,1.959,1.988,1.627,1.627,0,0,0,1.545-1.264c-.655.047-1.344-.4-1.382-.887-.05-.648.729-1.2,1.383-1.252a1.671,1.671,0,0,1,1.768,1.67,2.874,2.874,0,0,1-2.724,3A3.164,3.164,0,0,1,333.5,224a4.322,4.322,0,0,1,3.431-4.612,13.229,13.229,0,0,1,4.9-.371c5.663,1.126,7.542,6.346,7.765,9.286.314,4.031-1.044,7.887-4.5,9.927" transform="translate(61.441 14.786)" fill="#fff"/>
    <path id="パス_445" data-name="パス 445" d="M366.759,193.722a1.852,1.852,0,0,1,2.293,1.253c.667,2.589-3.852,6.506-5.7,6.985a1.655,1.655,0,0,1-.773.063,6.632,6.632,0,0,0,1.954-3.658c.453-1.82.376-4.169,2.226-4.644" transform="translate(70.448 6.974)" fill="#fff"/>
  </g>
</svg>
