<svg xmlns="http://www.w3.org/2000/svg" width="300" height="112.893" viewBox="0 0 300 112.893">
  <g id="グループ_1327" data-name="グループ 1327" transform="translate(-3.292)">
    <g id="グループ_373" data-name="グループ 373" transform="translate(63.086 0)">
      <path id="パス_519" data-name="パス 519" d="M926.58,401.427V384.2a90.786,90.786,0,0,1-14.237,11.5l-3.109-8.765A93.325,93.325,0,0,0,926.58,381.1V367.419H911.846v-2.8H926.58V348.083h7.025V401.49Zm21.449-.871c-5.346,0-7.647-1.741-7.647-6.9V348.083h6.963v23.811a47.6,47.6,0,0,0,9.078-12.931l7.46,5.782a51.2,51.2,0,0,1-16.538,10.01v17.407c0,1.431.559,1.866,2.053,1.866h7.709c2.052,0,3.045-1.243,4.911-9.824l2.3.81c-.871,12.373-2.55,15.543-8.332,15.543Z" transform="translate(-909.234 -346.963)" fill="#d3b94c"/>
      <path id="パス_520" data-name="パス 520" d="M953.944,396.746a104.266,104.266,0,0,0,13.429-22.879l1.741,1.118a119.647,119.647,0,0,1-6.776,26.859Zm7.274-21.513a82.012,82.012,0,0,0-6.528-13.055l1.492-1.431a51.824,51.824,0,0,1,10.631,7.461Zm4.974-14.36c-2.86-5.223-5.533-7.709-7.958-10.694l1.243-1.618a59.2,59.2,0,0,1,11.5,5.472Zm37.8,32.33c-1.119,7.273-2.609,9.947-7.335,9.947-2.425,0-5.657-.684-10.134-1.8v-2.24a26.468,26.468,0,0,0,5.968,1.12c2.86,0,3.855-1.679,4.664-7.025h-17.6c-.185,1.119-.372,2.3-.621,3.481l-6.4-.933c1.12-6.092,1.991-11.938,2.673-17.719h-5.1v-2.177h5.346c.435-3.792.808-7.834.994-11.625a38.92,38.92,0,0,1-4.351,4.1l-1.12-1.181c3.731-6.53,5.348-12.373,6.592-19.9l8.331,2.177a43.335,43.335,0,0,1-1.866,4.228h24.371V355.9H982.854a34.729,34.729,0,0,1-3.917,5.6h26.921c0,4.228-.185,9.388-.372,14.36h4.352v2.177h-4.477c-.31,4.974-.684,9.511-.933,12.248,0,.248-.062.435-.062.684h4.664V393.2Zm-18.464-2.238c.622-4.352,1.119-8.7,1.491-12.932H981.86c-.436,4.041-1.057,8.268-1.866,12.932Zm1.678-15.109c.31-4.041.559-8.081.746-12.186h-4.726c-.31,3.98-.622,7.958-1.119,12.186Zm10.2,15.109a19.243,19.243,0,0,0,.249-1.989c.186-1.555.435-5.969.684-10.943h-5.41c-.311,3.855-.808,8.331-1.492,12.932Zm.994-15.109c.187-4.228.312-8.7.312-12.186h-4.787c-.249,4.29-.435,8.145-.808,12.186Z" transform="translate(-893.401 -347.256)" fill="#3b1608"/>
      <path id="パス_521" data-name="パス 521" d="M1052.939,402.231c-2.549.187-5.72.311-9.388.311-3.916,0-8.455-.125-13.491-.311-6.653-.248-13.553-2.673-17.1-9.511a133.58,133.58,0,0,1-9.823,10.382l-4.1-8.207a36.746,36.746,0,0,0,7.4-2.488V372.948h-6.466v-2.3h14.175v19.709c3.98,4.29,8.27,5.408,15.916,5.408a172.61,172.61,0,0,0,24.87-1.865Zm-43.832-38.983a55.445,55.445,0,0,0-5.782-12.186l1.492-1.615a58.013,58.013,0,0,1,11.128,6.9Zm11.5,27.915v-28.04h8.765a45.372,45.372,0,0,0,.187-5.1h-12.123v-2.24h9.949a67.242,67.242,0,0,0-4.29-6.776l.994-1.305a46.824,46.824,0,0,1,9.886,3.544l-4.726,4.538h7.834a31.206,31.206,0,0,0,1.8-8.393l9.139,2.238a43.9,43.9,0,0,1-8.517,6.154h14.051v2.24h-15.418a40.97,40.97,0,0,1-5.782,5.1h17.1v28.04Zm21.761-25.8H1027.7v5.905h14.673Zm0,8.144H1027.7v6.4h14.673Zm0,8.642H1027.7v6.777h14.673Z" transform="translate(-877.433 -347.207)" fill="#d3b94c"/>
    </g>
    <g id="グループ_374" data-name="グループ 374" transform="translate(3.292 62.969)">
      <path id="パス_522" data-name="パス 522" d="M925.424,423.986a53.088,53.088,0,0,0-13.864-11.938l.933-1.8a78.15,78.15,0,0,1,18.465,5.782Zm33.948-11.254c-5.285,15.73-19.4,30.093-43.832,31.833l-1.866-8.767c24.062-1.243,36.931-9.823,43.086-24.5Zm-27.978-.249a45.119,45.119,0,0,0-13.616-11.066l.808-1.989a116.616,116.616,0,0,1,17.967,5.533Z" transform="translate(-911.561 -395.448)" fill="#3b1608"/>
      <path id="パス_523" data-name="パス 523" d="M949.668,436.341v-2.052H972.36l2.737-21.451H955.7v-2.3h26.735l-2.985,23.75h10.259v2.052Z" transform="translate(-899.946 -391.514)" fill="#d3b94c"/>
      <path id="パス_524" data-name="パス 524" d="M986.22,418.8l-1.056-6.653c8.019.5,20.579.559,32.33.559h16.351V418.8Z" transform="translate(-889.248 -390.944)" fill="#3b1608"/>
      <path id="パス_525" data-name="パス 525" d="M1072.209,416.409c-2.611,14.673-16.6,26.113-37.987,28.724l-.871-2.3c16.911-4.662,25.8-14.486,28.662-26.361h-32.828v-3.109h43.024Zm-39.294-13.491v-2.984h35.749v2.984Z" transform="translate(-875.775 -395.269)" fill="#d3b94c"/>
      <path id="パス_526" data-name="パス 526" d="M1108.3,444.007a70.433,70.433,0,0,0-16.041-17.1c-7.337,7.647-15.233,13.117-27.418,17.158l-1.369-2.175c17.348-8.207,26.921-21.326,31.336-37.926h-22.32v-2.611H1104.7v2.673a57.039,57.039,0,0,1-10.57,20.767,118.2,118.2,0,0,1,20.641,10.879Z" transform="translate(-865.586 -394.765)" fill="#3b1608"/>
      <path id="パス_527" data-name="パス 527" d="M1152.478,411.411c-5.1,19.585-20.641,31.584-45.137,35l-1.181-2.3c20.828-5.471,33.2-17.222,36.743-33.76H1128.23a49.859,49.859,0,0,1-18.65,14.175l-1.741-1.678c8.455-5.659,15.419-16.912,17.658-26.362l9.2,2.612a46.425,46.425,0,0,1-4.6,8.642h22.382Z" transform="translate(-852.478 -396.489)" fill="#d3b94c"/>
    </g>
  </g>
</svg>
