<svg xmlns="http://www.w3.org/2000/svg" width="417.59" height="94.891" viewBox="0 0 417.59 94.891">
  <g id="グループ_341" data-name="グループ 341" transform="translate(1563.379 -8027.193)">
    <path id="パス_449" data-name="パス 449" d="M478.566,373.871c-16.385-6.387-13.053-20.64-11.626-24.381,1.82-4.694,7.829-14.751,21.436-9.529,6.1,2.339,8.989,8.828,7,13.99-2.153,5.641-6.811,6.539-9.639,5.455-2.813-1.084-4.9-4.038-3.65-7.325,1.457-3.761,3.5-3.5,4.618-3.6a3.754,3.754,0,0,0-2.364-3.6c-2.354-.907-9.1-2.954-12.7,6.423-3.227,8.434,1,15.634,8.561,18.351a23.163,23.163,0,0,0,9.311,1.795c4.366,0,12.654-1.008,18.946-6.146,5.248-4.305,20.7-21.88,22.415-57.161.227-4.835.428-9.155,6.8-9.155,4,0,6.685,2.481,6.685,6.564,0,6.8-4.31,29.347-13.259,43.584-7.219,11.54-13.6,16.995-19.793,21.033a37.978,37.978,0,0,1-22.631,5.767,27.661,27.661,0,0,1-10.1-2.057m110.747-13.753c-4.084-18.326-12.276-39.47-21.89-55.1-.953-1.613-1.286-2.047-1.286-3.015a3.349,3.349,0,0,1,3.443-3.226c1.417,0,2.591,0,12.518,16.067,16.718,27.048,21.467,45.711,21.467,46.79,0,4.1-4.195,6.69-7.134,6.69-5.283,0-6.025-3.126-7.119-8.2m18.346-61.89a10.408,10.408,0,1,1-10.36-10.355,10.364,10.364,0,0,1,10.36,10.355m-16.067,0a5.657,5.657,0,1,0,5.707-5.611,5.658,5.658,0,0,0-5.707,5.611" transform="translate(-2029.046 7739.32)" fill="#fff"/>
    <path id="パス_450" data-name="パス 450" d="M508.451,341.747c0,2.264,0,6.478-5.929,6.478-6.156,0-6.156-4.119-6.156-6.362V295.386c0-2.38,0-6.5,5.929-6.5,6.156,0,6.156,4.119,6.156,6.383Zm48.64-18.986c0,34.62-8.419,45.943-23.08,52.739-5.505,2.6-16.189,5.712-21.26,5.712a3.025,3.025,0,0,1-3.025-3.015c0-2.591,2.168-2.914,5.072-3.443,29.553-5.183,30.2-29.452,30.2-51.237V294.735c0-2.369,0-6.478,5.934-6.478,6.155,0,6.155,4.109,6.155,6.362Z" transform="translate(-1904.974 7740.872)" fill="#fff"/>
    <path id="パス_451" data-name="パス 451" d="M559.221,373.844c0,2.264,0,6.468-5.929,6.468-6.135,0-6.135-4.1-6.135-6.362V344.281c-13.274,6.705-31.49,10.048-32.679,10.048a2.987,2.987,0,0,1-2.909-3.015c0-2.48,1.825-2.818,5.39-3.564,33.763-6.892,54.569-33.546,54.569-36.344,0-.111,0-1.507-1.84-1.507H522.024c-1.18,0-3.887,0-3.887-2.914,0-3.025,2.708-3.025,3.887-3.025h25.132v-9.266c0-2.264,0-6.478,5.928-6.478,6.136,0,6.136,4.109,6.136,6.372v9.372h21.895c6.156,0,6.156,4.855,6.156,5.389,0,1.83-.55,3.247-4.961,8.213a110.309,110.309,0,0,1-23.09,20.166Zm23.74-18a78.284,78.284,0,0,0-16.506-12.407c-1.4-.862-2.491-1.512-2.491-3.131a3,3,0,0,1,2.914-3.03c1.19,0,9.71,3.463,13.587,5.188,14.031,6.372,14.348,8.1,14.348,10.784a6.272,6.272,0,0,1-6.045,6.241c-2.047,0-2.581-.414-5.808-3.645" transform="translate(-1843.539 7740.698)" fill="#fff"/>
    <path id="パス_452" data-name="パス 452" d="M564.936,319.18c0,20.7-1.724,36.117-15.321,48.429-6.675,6.135-15.4,10.123-16.809,10.123a3.1,3.1,0,0,1-3.025-3.116c0-1.633.534-2.057,5.919-5.394,7.356-4.638,12.3-12.09,14.671-20.383,2.274-7.658,2.7-19.848,2.7-29.135V295.016c0-2.153,0-6.458,5.823-6.458,6.045,0,6.045,4.305,6.045,6.362Zm24.381,36.455c0,1.5,0,3.226,1.931,3.226,1.719,0,15.624-5.062,26.306-26.19,1.422-2.7,1.951-3.68,3.665-3.68a2.958,2.958,0,0,1,2.924,2.813c0,1.3-5.722,16.592-15.643,27.179-6.887,7.325-19.4,15.3-23.942,15.3-3.453,0-7.118-2.385-7.118-7.542V295.016c0-2.153,0-6.458,5.833-6.458,6.045,0,6.045,4.195,6.045,6.362Z" transform="translate(-1769.932 7742.089)" fill="#fff"/>
  </g>
</svg>
