<svg xmlns="http://www.w3.org/2000/svg" width="130.177" height="14.647" viewBox="0 0 130.177 14.647">
  <g id="グループ_315" data-name="グループ 315" transform="translate(5181 383.108)">
    <g id="グループ_277" data-name="グループ 277" transform="translate(-5181 -383.109)">
      <path id="パス_304" data-name="パス 304" d="M311.014,450.607l.1.184a.092.092,0,0,0-.028.132.088.088,0,0,1-.017.122c-.03.027-.014.105-.019.163.024.042.075.092.075.142s-.056.086-.095.139c.059.066,0,.153.008.237a.668.668,0,0,0,.015.174c.044.113.075.215-.039.308-.02.016-.023.063-.022.095,0,.06.016.119.023.179,0,.02.007.052,0,.059-.073.049-.034.11-.033.172a.543.543,0,0,0,.06.249.459.459,0,0,1,0,.22c-.006.072-.026.143-.028.215,0,.1.008.192.006.287,0,.153-.01.306-.015.459,0,0,0,.01,0,.013-.13.179.011.373-.03.559a2.917,2.917,0,0,0-.035.333.37.37,0,0,0-.013.138.767.767,0,0,1,.014.3.179.179,0,0,1-.016.084.214.214,0,0,0,.012.265c-.08.053-.069.125-.07.2,0,.1.075.182.075.278,0,.062.07.136-.021.191-.006,0,.009.045.017.068a.5.5,0,0,1,.022.238c-.015.134-.008.27-.009.405a.055.055,0,0,0,.006.025.413.413,0,0,1-.027.41.272.272,0,0,1,.078.311.95.95,0,0,0,0,.185.311.311,0,0,1-.124.029.3.3,0,0,1-.234-.161,1.12,1.12,0,0,1-.042-.134,1.775,1.775,0,0,1-.1-.6.34.34,0,0,0-.046-.2.041.041,0,0,1-.008-.024c.032-.139-.054-.254-.079-.382,0-.011-.005-.027,0-.034.051-.067.021-.141.019-.211-.007-.225-.031-.45-.025-.675.008-.295,0-.589.011-.884,0-.106.03-.21.039-.316.006-.072,0-.145,0-.218,0-.175.008-.349.017-.524a.607.607,0,0,1,.034-.133c0-.012.02-.028.017-.033-.064-.113.023-.223.006-.342a.966.966,0,0,1,.026-.424.807.807,0,0,0,.011-.2c0-.033.006-.066.008-.1a1.29,1.29,0,0,1,.044-.4c.007-.018-.008-.046-.015-.068s-.017-.016-.015-.019c.055-.1.01-.207.018-.311a1.652,1.652,0,0,0,0-.5.418.418,0,0,1,0-.113c0-.042.022-.09.008-.124a.386.386,0,0,1,.017-.249,1.555,1.555,0,0,0,.051-.242.713.713,0,0,0-.038-.18.114.114,0,0,1-.008-.05,1.118,1.118,0,0,0,.006-.388,5.06,5.06,0,0,1,.015-.528c0-.058-.012-.115-.011-.173a1.349,1.349,0,0,0,.036-.336c-.011-.057,0-.118-.01-.174a1.73,1.73,0,0,1-.032-.488c.005-.063-.006-.127,0-.191.011-.239.027-.479.034-.719a1.082,1.082,0,0,0-.029-.317.557.557,0,0,1,.017-.3.207.207,0,0,0,.011-.085.9.9,0,0,1-.018-.473.145.145,0,0,0,.005-.076c-.066-.234-.013-.477-.058-.713a1.325,1.325,0,0,1,.019-.287c.007-.191.011-.382.015-.574a1.384,1.384,0,0,1,.094-.366c0-.011.015-.027.024-.027a.8.8,0,0,1,.243-.007c.091.023.108.123.133.2a.065.065,0,0,1-.017.046.158.158,0,0,0,0,.181.248.248,0,0,1,0,.2c-.037.119-.137.233-.037.367a1.083,1.083,0,0,0,0,.368.908.908,0,0,1-.016.4.242.242,0,0,1,.06.193,1.239,1.239,0,0,1-.006.138.258.258,0,0,0-.005.075,3.346,3.346,0,0,1,.056.8.858.858,0,0,1-.035.341c-.023.059.035.147.016.209a.325.325,0,0,0-.01.21.252.252,0,0,1,.011.062q.032.473.061.945a.421.421,0,0,1-.007.139.786.786,0,0,0,.007.353.843.843,0,0,1,0,.251,1.286,1.286,0,0,1-.1.4c-.035.07.009.18.022.272a.985.985,0,0,0,.039.148C311.14,450.5,311.121,450.565,311.014,450.607Z" transform="translate(-297.962 -444.116)" fill="#73bb92"/>
      <path id="パス_305" data-name="パス 305" d="M296.591,448.605c.081.069.135.125.128.228,0,.051.043.108.075.157s.078.08.111.124a.211.211,0,0,1,.042.1c.011.113.009.113.1.176a.2.2,0,0,0,.077.2.477.477,0,0,1,.132.252.492.492,0,0,0,.137.249.184.184,0,0,1,.067.13.378.378,0,0,0,.051.168c.046.078.072.166.115.239a3.759,3.759,0,0,1,.155.387.227.227,0,0,0,.06.066.773.773,0,0,1,.192.3,1.333,1.333,0,0,1,.112.386,1.247,1.247,0,0,0,.167.435c.09.165.167.334.24.507a.759.759,0,0,1,.071.253.143.143,0,0,0,.045.1c.113.077.118.192.136.31a.748.748,0,0,0,.087.223.834.834,0,0,1,.117.328.109.109,0,0,0,.015.047c.051.086.106.169.155.255a.428.428,0,0,1,.051.13c.022.121.033.244.056.364a.519.519,0,0,0,.061.137c.05.1.064.212.157.285.016.012.018.046.021.071a.566.566,0,0,0,.108.272.864.864,0,0,1,.163.357.392.392,0,0,0,.091.177.673.673,0,0,1,.081.239.3.3,0,0,0,.054.123.272.272,0,0,1,.032.167.849.849,0,0,0,.068.383.171.171,0,0,1,.009.07c0,.016-.015.038-.008.047.116.163.074.378.182.544a.343.343,0,0,1,.026.124c.015.078.028.157.042.236,0,.008.007.018,0,.025-.075.173.065.328.045.5a.084.084,0,0,0,.019.059,1.169,1.169,0,0,1,.168.415c.046.121.093.243.128.367a1.275,1.275,0,0,1,.1.385c0,.1.055.194.034.3-.007.037.035.092.068.127.114.122.233.238.352.356a.289.289,0,0,0,.061.038l.179.106-.022.13a.828.828,0,0,1-.163-.023.121.121,0,0,0-.138.031c-.1.089-.144.086-.243,0-.07-.062-.137-.127-.206-.19-.006-.006-.011-.017-.018-.018-.189-.035-.185-.22-.262-.34a1.486,1.486,0,0,1-.073-.135.568.568,0,0,1-.095-.274.214.214,0,0,0-.046-.118.606.606,0,0,1-.162-.429.046.046,0,0,0-.009-.036c-.1-.073-.07-.184-.1-.28s-.064-.165-.088-.25a1.048,1.048,0,0,1-.069-.31,4.386,4.386,0,0,0-.1-.811c-.031-.214-.079-.426-.127-.637a2.108,2.108,0,0,0-.1-.272c-.07-.181-.14-.362-.21-.543a.211.211,0,0,1-.016-.062,1.883,1.883,0,0,0-.156-.49,1.958,1.958,0,0,0-.123-.27,2.034,2.034,0,0,1-.113-.359,1.018,1.018,0,0,1-.039-.109c-.021-.112-.093-.21-.078-.334a.224.224,0,0,0-.065-.147.269.269,0,0,1-.062-.24.248.248,0,0,0-.114-.252.234.234,0,0,1-.1-.171.709.709,0,0,0-.112-.32.6.6,0,0,1-.091-.3,1.019,1.019,0,0,0-.1-.309c-.008-.028-.02-.054-.03-.081-.029-.074-.057-.149-.089-.222-.086-.2-.173-.4-.26-.594-.029-.066-.063-.129-.089-.2-.059-.153-.119-.307-.17-.463-.03-.092-.033-.193-.069-.282a3.127,3.127,0,0,0-.159-.3q-.048-.09-.093-.181c-.043-.088-.086-.177-.127-.267-.014-.03-.024-.062-.035-.093-.036-.1-.072-.2-.108-.3-.008-.023-.014-.046-.022-.069-.015-.042-.018-.1-.048-.123a.42.42,0,0,1-.108-.165.266.266,0,0,0-.063-.094.168.168,0,0,1-.062-.2.105.105,0,0,0,0-.074c-.052-.093-.109-.184-.175-.295Z" transform="translate(-289.505 -446.843)" fill="#73bb92"/>
      <path id="パス_306" data-name="パス 306" d="M315.762,456.359a.177.177,0,0,0-.057.205.681.681,0,0,1-.017.237c-.015.1-.039.2-.058.3,0,.02-.009.049,0,.061a.277.277,0,0,1,.005.3.5.5,0,0,0-.026.275.718.718,0,0,1,.008.077c0,.068-.113.081-.077.162.027.062,0,.107-.019.166a.685.685,0,0,0-.018.251.883.883,0,0,0,.032.252.215.215,0,0,1-.073.24.147.147,0,0,0-.052.117.388.388,0,0,0,0,.064.634.634,0,0,1-.031.328c-.052.114.025.212.031.318s.062.24-.042.352c-.028.031-.021.106-.012.157a.482.482,0,0,1-.008.174c-.021.115-.026.233-.037.35,0,0,0,.01,0,.012-.085.132,0,.269-.012.4a.775.775,0,0,1-.025.211.4.4,0,0,0-.005.239.222.222,0,0,1-.007.113c-.031.091-.069.181-.1.271a.126.126,0,0,0-.013.062,2.355,2.355,0,0,0,.064.287.442.442,0,0,1,.008.3.2.2,0,0,0,.062.241,1.317,1.317,0,0,1,.138.126c.009.049.016.1.027.145s0,.092-.062.1a.774.774,0,0,1-.305,0,.3.3,0,0,1-.2-.18.307.307,0,0,0-.058-.123.3.3,0,0,1-.083-.217c-.015-.13-.038-.26-.049-.391-.007-.087,0-.176,0-.263,0-.04-.015-.081-.02-.121a.191.191,0,0,1,0-.1.138.138,0,0,0-.039-.181c.124-.064.064-.169.068-.256.006-.143-.02-.288,0-.429a1.439,1.439,0,0,0,0-.415c-.009-.049.038-.107.037-.161a.571.571,0,0,1,.113-.38.111.111,0,0,0-.008-.1.2.2,0,0,1,0-.184.488.488,0,0,0,.024-.3.241.241,0,0,1,0-.087,2.039,2.039,0,0,1,.084-.394.8.8,0,0,0,.01-.329.3.3,0,0,1,.058-.241.115.115,0,0,0,.021-.082,4.578,4.578,0,0,1,.062-.769,1.593,1.593,0,0,1,.1-.481.332.332,0,0,0,.009-.19.521.521,0,0,1,.09-.409.37.37,0,0,0,.04-.3.275.275,0,0,1,0-.11c.011-.117.1-.224.043-.349-.006-.014.013-.038.02-.057s.035-.058.031-.082a1.115,1.115,0,0,1,.1-.5.551.551,0,0,0,.036-.169c-.01-.133.116-.23.089-.366,0-.019.023-.044.034-.067.02-.042.061-.089.055-.128-.023-.149.11-.234.136-.362.005-.024.05-.039.076-.059l.125.084c.013.1.018.184.035.267s.042.162-.069.212c-.031.014-.045.088-.046.136a1.356,1.356,0,0,1-.032.285,1.31,1.31,0,0,0,0,.324c-.078.039-.087.128-.1.216a2.208,2.208,0,0,1-.065.4c-.04.121-.023.247-.068.365A.4.4,0,0,0,315.762,456.359Z" transform="translate(-300.558 -450.077)" fill="#73bb92"/>
      <path id="パス_307" data-name="パス 307" d="M298.547,466.565c-.018-.026-.057-.059-.051-.077.029-.09-.037-.135-.073-.19l.117-.284a.329.329,0,0,1-.2-.274,4.455,4.455,0,0,0-.133-.436.119.119,0,0,0-.022-.031c-.111-.141-.222-.282-.331-.424a.223.223,0,0,1-.049-.089.123.123,0,0,0-.075-.108c-.02-.008-.049-.042-.045-.056.022-.073-.032-.12-.056-.173a1.362,1.362,0,0,0-.157-.262.469.469,0,0,1-.08-.208,1.018,1.018,0,0,0-.057-.188,2.276,2.276,0,0,0-.121-.3.631.631,0,0,1-.073-.23,3.112,3.112,0,0,1-.085-.477.6.6,0,0,0-.041-.144c-.016-.069-.022-.141-.043-.207a3.07,3.07,0,0,0-.122-.493c-.021-.041,0-.1-.013-.152-.018-.074-.051-.145-.071-.219-.031-.118-.058-.238-.086-.357-.022-.094-.048-.187-.066-.281s-.025-.182-.038-.273a.218.218,0,0,0-.018-.086,2.678,2.678,0,0,1-.178-.594c-.052-.148-.044-.3-.082-.451-.013-.052,0-.113-.018-.161-.057-.134-.023-.286-.1-.417a.6.6,0,0,1-.066-.218,1.321,1.321,0,0,0-.162-.466c-.013-.024-.045-.038-.067-.058a.093.093,0,0,1,0-.16c.016-.013.035-.021.052-.033.05-.036.081-.116.156-.093a2.113,2.113,0,0,1,.283.114.079.079,0,0,1,.031.065.37.37,0,0,0,.124.31.015.015,0,0,1,.006.011,1.028,1.028,0,0,0,.075.339,1.27,1.27,0,0,1,.022.135.418.418,0,0,1,.018.086,1.08,1.08,0,0,0,.118.477.368.368,0,0,1,.046.3.235.235,0,0,0,.025.194.722.722,0,0,1,.034.212c.005.033.009.08.031.094.085.053.071.135.086.214a1.058,1.058,0,0,0,.157.437.454.454,0,0,1,.063.139c.036.127.071.255.1.385a.46.46,0,0,1,0,.183.518.518,0,0,0,.051.246,1.021,1.021,0,0,0,.123.249.45.45,0,0,1,.049.254,2.591,2.591,0,0,0,.044.406c.108.07.074.187.092.286a1.629,1.629,0,0,0,.079.192,5.121,5.121,0,0,0,.267.683c.1.216.176.448.3.654a1.442,1.442,0,0,0,.268.446c.01.008.023.02.022.031-.005.128.114.184.168.278a.256.256,0,0,1,.048.146c0,.1,0,.2,0,.305a.032.032,0,0,0,0,.013c.08.15-.039.228-.115.323a.9.9,0,0,0-.1.147.165.165,0,0,0-.015.12.535.535,0,0,1-.021.183Z" transform="translate(-289.146 -452.483)" fill="#73bb92"/>
      <path id="パス_308" data-name="パス 308" d="M343.9,460.686a.183.183,0,0,1,.042.241c-.035.084-.057.19-.159.24-.032.016-.045.07-.067.106-.039.065-.078.129-.115.2-.017.029-.03.061-.044.091s-.029.068-.045.1-.035.046-.033.066c.018.179-.13.3-.151.47,0,.025-.042.044-.054.07a.487.487,0,0,0-.062.174.384.384,0,0,1-.163.287c-.043.037-.085.062-.093.128a.143.143,0,0,1-.116.124c-.068.014-.082.065-.11.122a3.308,3.308,0,0,1-.186.378,2.477,2.477,0,0,0-.127.322c-.007.015,0,.036-.011.049-.094.149-.194.3-.282.448a1.314,1.314,0,0,0-.083.222.279.279,0,0,1-.026.069c-.052.073-.112.141-.161.216a.714.714,0,0,0-.144.276.977.977,0,0,1-.133.261c-.016.029-.036.057-.048.088a.569.569,0,0,1-.143.264c-.05.041-.063.126-.094.191s-.071.152-.111.226c-.088.163-.178.325-.269.487a1.015,1.015,0,0,1-.072.1c-.008.01-.024.015-.028.026-.046.14-.089.28-.134.42-.009.027-.012.063-.031.079-.109.092-.113.233-.17.349a.308.308,0,0,1-.06.092c-.086.08-.087.078-.006.184-.106.069-.084.2-.138.3a.107.107,0,0,0-.013.062.383.383,0,0,1-.09.281c-.038.055-.074.075-.119.057a.673.673,0,0,1-.369-.261c-.062-.108-.066-.164.009-.256a.328.328,0,0,0,.077-.2.3.3,0,0,1,.076-.169.442.442,0,0,0,.086-.229,1.78,1.78,0,0,1,.27-.652c.005-.007.014-.015.013-.021-.033-.153.11-.243.139-.376a1.567,1.567,0,0,1,.111-.215,3.516,3.516,0,0,1,.229-.377c.065-.114.119-.233.179-.349.02-.038.042-.074.063-.111.143-.24.291-.478.428-.722a2,2,0,0,0,.182-.354,1.95,1.95,0,0,1,.167-.3c.086-.16.159-.327.254-.48a4.644,4.644,0,0,1,.441-.678c.008-.009.025-.017.026-.026.01-.133.134-.192.189-.3.026-.048.038-.1.068-.148.1-.148.212-.289.306-.441.068-.11.114-.233.171-.35a.709.709,0,0,1,.061-.106c.062-.086.128-.17.19-.256a1.639,1.639,0,0,1,.093-.138.355.355,0,0,0,.118-.2.1.1,0,0,1,.09-.1A1.436,1.436,0,0,0,343.9,460.686Z" transform="translate(-315.749 -454.181)" fill="#73bb92"/>
      <path id="パス_309" data-name="パス 309" d="M325.023,454.028c.041-.029.13-.051.151-.147,0-.014.034-.024.053-.034l.173-.092.077.051c-.038.016-.057.024-.076.033-.058.029-.063.071-.039.128a.991.991,0,0,1,.054.179.1.1,0,0,1-.079.134c-.1.032-.1.139-.119.223-.008.043,0,.082-.047.11-.013.009-.032.03-.029.039a.344.344,0,0,1-.055.249c-.022.048-.021.106-.043.155a2.741,2.741,0,0,0-.13.261,2.887,2.887,0,0,0-.057.311c-.007.033-.033.062-.043.1q-.034.109-.061.221a1.946,1.946,0,0,1-.068.293.8.8,0,0,0-.088.367.06.06,0,0,1-.007.038c-.113.142-.1.332-.185.488a2.076,2.076,0,0,0-.116.347c-.011.032-.029.062-.038.095-.016.056-.027.113-.04.17a.31.31,0,0,1-.021.1.581.581,0,0,0-.088.249.207.207,0,0,0,0,.131.173.173,0,0,1-.059.2c-.037.032-.073.061-.052.118a.014.014,0,0,1,0,.013c-.073.095-.049.221-.1.32a1.041,1.041,0,0,0-.083.385c-.169.131-.138.32-.152.5-.08-.016-.1.047-.112.11a1.645,1.645,0,0,0-.053.166,1.127,1.127,0,0,0,0,.185.212.212,0,0,0-.1.188.158.158,0,0,1-.038.094.319.319,0,0,0-.061.252,2.751,2.751,0,0,1-.061.514.157.157,0,0,1-.039.065c-.007.01-.029.017-.029.024.011.122-.111.194-.114.315a.807.807,0,0,1-.069.215l.041.045a2.522,2.522,0,0,1-.014.256.348.348,0,0,1-.057.149c-.049.069-.1.126-.03.214a.139.139,0,0,1-.007.12.2.2,0,0,0,.009.181.783.783,0,0,1,.04.132.2.2,0,0,1-.148.254.135.135,0,0,1-.106-.017.75.75,0,0,1-.3-.387.192.192,0,0,1-.015-.075,1.431,1.431,0,0,1,.066-.494.018.018,0,0,0,0-.012,1.914,1.914,0,0,1,.02-.548c.055-.018.068-.062.074-.136a2.062,2.062,0,0,1,.1-.392,3.905,3.905,0,0,0,.123-.389c.021-.11.062-.214.084-.318.029-.142.1-.269.121-.411a.669.669,0,0,1,.044-.105.739.739,0,0,0,.029-.106c.005-.025,0-.054.006-.076.041-.091.13-.152.121-.279a.871.871,0,0,1,.092-.29c.016-.048.028-.1.041-.144.022-.082.044-.164.067-.245,0-.016.022-.03.022-.045a1.654,1.654,0,0,1,.13-.474c.023-.08.068-.154.1-.233a.628.628,0,0,0,.053-.207.921.921,0,0,1,.1-.313c.038-.111.088-.218.134-.327,0,0,.006-.008.006-.011-.011-.185.115-.345.1-.532a.159.159,0,0,1,.033-.095,1.741,1.741,0,0,0,.207-.492,1.264,1.264,0,0,0,.113-.4.157.157,0,0,1,.042-.093.981.981,0,0,0,.172-.418c.023-.082.055-.161.086-.24.063-.161.125-.322.192-.482.012-.03.051-.05.059-.08C324.969,454.272,324.99,454.168,325.023,454.028Z" transform="translate(-305.276 -449.972)" fill="#73bb92"/>
      <path id="パス_310" data-name="パス 310" d="M319.736,456.26l.036-.215c.116-.038.175.042.248.068a.3.3,0,0,1-.016.215,1.6,1.6,0,0,0-.053.284,4.072,4.072,0,0,0-.08.413,1.982,1.982,0,0,1-.107.5.454.454,0,0,0,0,.128.252.252,0,0,1-.005.087.38.38,0,0,0-.035.259c.009.036-.019.081-.029.122q-.026.111-.05.222c0,.021,0,.05-.01.061-.077.066-.044.146-.042.226a.457.457,0,0,1-.026.269.847.847,0,0,0-.066.232.086.086,0,0,0,.012.06.188.188,0,0,1,.011.225.32.32,0,0,0-.015.12c-.009.075-.014.152-.029.226-.027.132-.068.262-.091.4a1.259,1.259,0,0,0,.011.186,1.049,1.049,0,0,1-.07.365.933.933,0,0,0-.022.294.76.76,0,0,0,.013.105l-.058.044a3.073,3.073,0,0,1-.114.577.472.472,0,0,0-.005.168l-.064.022c0,.071,0,.145,0,.22a.064.064,0,0,1,0,.025.708.708,0,0,0-.05.393.379.379,0,0,1-.045.178c-.05.116-.131.216-.1.362.012.055-.042.138-.088.188a.186.186,0,0,0-.057.184c.007.031-.016.068-.019.1a.3.3,0,0,0,.005.109.192.192,0,0,1-.06.219c-.009.008-.029.019-.027.024.027.106-.072.178-.074.278,0,.047-.036.093-.047.141a.168.168,0,0,0,0,.106c.042.081.074.151,0,.232-.019.02,0,.072-.006.11s-.009.1-.016.146c0,.021-.018.041-.017.061.006.127-.064.25-.053.367a.513.513,0,0,1-.074.305c-.017.032-.021.071-.037.1a.143.143,0,0,1-.187.089.382.382,0,0,0-.122.007,2.077,2.077,0,0,1-.051-.343,4.959,4.959,0,0,0,0-.508c-.011-.049.034-.109.03-.161a1.406,1.406,0,0,1,.044-.363c.039-.251.1-.5.146-.745a.646.646,0,0,1,.078-.261.7.7,0,0,0,.048-.169c.02-.058.009-.125.065-.175.024-.021.025-.071.031-.11a1.619,1.619,0,0,1,.046-.291c.064-.175.067-.362.115-.539.042-.157.1-.312.143-.468a.4.4,0,0,0,0-.076.79.79,0,0,1,.014-.1c.01-.049.024-.1.035-.145a1.987,1.987,0,0,0,.041-.195c.013-.109.013-.219.029-.327a2.81,2.81,0,0,1,.066-.321,1.9,1.9,0,0,1,.084-.4c0-.009,0-.024-.007-.035a.318.318,0,0,1,.017-.222c.038-.1,0-.213.077-.3a.792.792,0,0,1,.057-.37c.01-.044.02-.088.031-.131,0-.02.02-.044.013-.059a.147.147,0,0,1,.029-.156c.068-.095.02-.2.029-.3.012-.117.013-.234.028-.35a.972.972,0,0,1,.058-.167c.022-.066.042-.131.06-.2a.049.049,0,0,0-.007-.037c-.059-.088-.006-.152.033-.229a.67.67,0,0,0,.037-.2c0-.013,0-.029,0-.038a1.051,1.051,0,0,0,.111-.474c.005-.049.017-.1.025-.148,0-.025,0-.056.009-.075a.426.426,0,0,0,.066-.3C319.614,456.35,319.686,456.31,319.736,456.26Z" transform="translate(-302.561 -451.356)" fill="#73bb92"/>
      <path id="パス_311" data-name="パス 311" d="M331.522,464.5l-.018-.042c.04-.089.071-.155.1-.222.014-.03.022-.063.038-.091a1.338,1.338,0,0,0,.18-.32,3.219,3.219,0,0,1,.262-.537,3.382,3.382,0,0,0,.174-.323.667.667,0,0,1,.038-.089.615.615,0,0,1,.149-.247.747.747,0,0,0,.136-.238c.007-.014,0-.036.011-.049.077-.12.153-.241.236-.356.037-.051.06-.115.095-.155.095-.111.146-.257.275-.341.036-.024.053-.077.079-.116a1.614,1.614,0,0,1,.107-.157.925.925,0,0,0,.13-.2,1.852,1.852,0,0,1,.18-.248.688.688,0,0,0,.109-.17.487.487,0,0,1,.321-.3.12.12,0,0,1,.1.016.222.222,0,0,1-.018.388.322.322,0,0,0-.053.055c-.065.079-.074.2-.194.239a.946.946,0,0,1-.279.393.219.219,0,0,0-.032.082c-.006.02,0,.049-.014.06a1.233,1.233,0,0,0-.2.376c-.068.13-.162.245-.227.376-.034.069-.08.128-.117.192s0,.132-.054.19a1.378,1.378,0,0,0-.1.157l.011.068-.095.012a2.15,2.15,0,0,1-.267.439.731.731,0,0,0-.147.263.465.465,0,0,0-.006.162.538.538,0,0,0-.083.144.452.452,0,0,1-.17.267c-.024.076-.04.133-.06.19-.033.1-.069.192-.1.287-.007.019-.011.048-.025.055-.094.049-.074.14-.082.225l-.122.071a.4.4,0,0,1-.077.338c-.066.089-.166.157-.183.29a1.518,1.518,0,0,1-.116.332.228.228,0,0,1-.04.065.263.263,0,0,0-.086.165.162.162,0,0,1-.069.1.162.162,0,0,0-.064.18.15.15,0,0,1-.007.1c-.1.133-.078.309-.17.449a4.09,4.09,0,0,0-.208.436c-.033.067,0,.151-.064.21-.009.008.014.053.027.079a.189.189,0,0,1-.176.289.267.267,0,0,1-.3-.193c-.031-.122-.11-.253-.018-.392a1.286,1.286,0,0,0,.1-.242.132.132,0,0,0,.015-.062,1,1,0,0,1,.083-.428.189.189,0,0,1,.047-.074.21.21,0,0,0,.071-.171.13.13,0,0,1,.023-.084c.11-.126.095-.3.174-.435s.088-.294.2-.407a.273.273,0,0,0,.055-.115,2.078,2.078,0,0,1,.241-.517,1.345,1.345,0,0,0,.127-.28C331.4,464.566,331.437,464.509,331.522,464.5Z" transform="translate(-310.011 -453.941)" fill="#73bb92"/>
      <path id="パス_312" data-name="パス 312" d="M326.984,463.247l.023.166a.59.59,0,0,0-.173.427.534.534,0,0,1-.1.265.462.462,0,0,0-.079.212.44.44,0,0,1-.1.231.383.383,0,0,0-.086.248,1,1,0,0,1-.061.27c-.018.058-.042.111,0,.169a.086.086,0,0,1,.013.071,1.18,1.18,0,0,0-.044.429l-.185.045c0,.051.023.118-.062.128a.132.132,0,0,1-.139-.06,1.235,1.235,0,0,1-.17-.4.491.491,0,0,1,.023-.239,1.823,1.823,0,0,1,.079-.2.085.085,0,0,0,0-.06.2.2,0,0,1,.029-.216.365.365,0,0,0,.031-.11,1.7,1.7,0,0,1,.113-.422c.073-.129.072-.279.175-.4a1.568,1.568,0,0,0,.213-.472,2.336,2.336,0,0,1,.2-.468,1.535,1.535,0,0,0,.227-.456.2.2,0,0,1,.041-.079.7.7,0,0,0,.134-.307.141.141,0,0,1,.034-.064,1.543,1.543,0,0,0,.292-.574.913.913,0,0,1,.165-.387.078.078,0,0,0,.026-.044c0-.129.092-.22.13-.333a.674.674,0,0,1,.039-.079.762.762,0,0,0,.095-.2.281.281,0,0,1,.088-.176.138.138,0,0,0,.03-.041c.057-.122.111-.245.169-.366.022-.046.05-.09.077-.134a2.521,2.521,0,0,0,.2-.534.174.174,0,0,1,.025-.058,2.383,2.383,0,0,0,.333-.585.478.478,0,0,1,.091-.139.225.225,0,0,0,.075-.206.146.146,0,0,1,.008-.059c.033-.125.033-.124.164-.117a1.165,1.165,0,0,1,.177.009c.1.022.124.064.108.16s-.014.175-.135.184c-.016,0-.027.038-.044.057a1.139,1.139,0,0,0-.178.448.984.984,0,0,1-.065.188c-.028.046-.057.078-.029.137.009.02-.02.059-.034.088-.062.124-.166.23-.161.369-.077.082-.157.146-.168.264,0,.036-.051.067-.078.1l-.024-.011c0,.1,0,.192-.008.288a.074.074,0,0,1-.007.037c-.064.091-.13.181-.194.271a.5.5,0,0,0-.066.105,2.79,2.79,0,0,1-.185.489,2.277,2.277,0,0,0-.142.315c-.085.2-.153.4-.221.6-.021.063-.017.151-.059.188-.09.08-.113.2-.194.276a.241.241,0,0,0-.09.169c-.006.056-.063.1-.093.159a.326.326,0,0,0-.02.076c-.005.019-.006.047-.018.055-.069.042-.085.113-.116.179A.749.749,0,0,1,326.984,463.247Z" transform="translate(-307.349 -452.497)" fill="#73bb92"/>
      <path id="パス_313" data-name="パス 313" d="M288.637,461.732a.7.7,0,0,0,.148.371,1.394,1.394,0,0,1,.116.21c.059.113.118.227.177.341,0,0,0,.009.008.01.106.027.106.124.124.2a2.244,2.244,0,0,1,.161.535.031.031,0,0,0,.009.024c.116.058.089.163.094.262a.159.159,0,0,0,.062.107.267.267,0,0,1,.106.2.62.62,0,0,0,.086.209q.184.346.367.694a.076.076,0,0,1,.01.036.952.952,0,0,0,.172.488,1.158,1.158,0,0,1,.151.416.514.514,0,0,0,.115.265.264.264,0,0,1,.054.151.335.335,0,0,0,.122.23,1.229,1.229,0,0,1,.119.162c.024.035.042.073.064.109.011.018.036.037.033.053-.018.115.062.153.139.2.052.035.116.073.12.156,0,.027.043.051.062.079a.133.133,0,0,1-.013.165c-.037.048-.084.121-.156.075a.193.193,0,0,0-.193,0,.1.1,0,0,1-.043,0l-.122-.126c-.157-.164-.357-.29-.43-.524a2.046,2.046,0,0,0-.116-.244.46.46,0,0,1-.035-.1,1.09,1.09,0,0,0-.171-.417.536.536,0,0,1-.1-.246,1.09,1.09,0,0,0-.166-.356,1.461,1.461,0,0,0-.113-.171c-.009-.014-.025-.031-.023-.044.028-.156-.11-.235-.163-.353a1.291,1.291,0,0,1-.14-.349.244.244,0,0,0-.041-.078.563.563,0,0,1-.049-.148,1.264,1.264,0,0,0-.138-.324.259.259,0,0,1-.049-.123.235.235,0,0,0-.1-.215.408.408,0,0,0-.044-.32,3.509,3.509,0,0,1-.234-.495.543.543,0,0,0-.15-.275.588.588,0,0,1-.106-.2c-.04-.087-.078-.176-.113-.265a.429.429,0,0,1-.016-.088.216.216,0,0,0-.014-.075c-.053-.085-.112-.166-.166-.25a.2.2,0,0,1-.046-.1.6.6,0,0,0-.08-.3c-.038-.081-.067-.166-.1-.248a.247.247,0,0,0-.182-.147.208.208,0,0,1-.174-.259.26.26,0,0,1,.006-.038c.015-.067-.009-.171.082-.181a.536.536,0,0,1,.239.061.707.707,0,0,1,.157.1.387.387,0,0,1,.053.068c.058.072.113.149.178.215a.26.26,0,0,1,.075.18.989.989,0,0,0,.146.336,1.586,1.586,0,0,0,.106.212A1.054,1.054,0,0,0,288.637,461.732Z" transform="translate(-284.058 -454.019)" fill="#73bb92"/>
      <path id="パス_314" data-name="パス 314" d="M335.909,467.833l-.033.265c-.055.047-.141.1-.084.187-.058.113-.1.215-.158.305-.089.138-.072.309-.153.448-.015.026-.022.06-.043.079-.1.089-.1.22-.129.335,0,.013.007.029.011.045.009.04.02.079.025.119s-.009.071,0,.1a.27.27,0,0,1-.119.36.374.374,0,0,1-.3-.02c-.02-.019-.044-.058-.037-.076.028-.072-.024-.122-.036-.182s-.014-.109-.02-.164-.016-.107-.018-.161a.183.183,0,0,1,.017-.108.6.6,0,0,0,.106-.45.71.71,0,0,1,.119-.4.6.6,0,0,0,.04-.14.727.727,0,0,1,.115-.28,1.307,1.307,0,0,0,.152-.342.824.824,0,0,1,.105-.256,1.082,1.082,0,0,0,.1-.216.483.483,0,0,1,.075-.144c.113-.111.132-.288.276-.374a.027.027,0,0,0,.007-.011c.067-.139.131-.278.2-.415a2.242,2.242,0,0,1,.117-.193c.059-.094.118-.189.181-.28.036-.052.081-.1.121-.148a.356.356,0,0,0,.056-.068.9.9,0,0,1,.092-.2,1.564,1.564,0,0,0,.154-.163,5.055,5.055,0,0,1,.485-.7.635.635,0,0,0,.193-.274c0-.015.021-.026.033-.039a.638.638,0,0,1,.113-.115c.09-.056.111-.157.17-.232.029-.036.055-.085.094-.1a.14.14,0,0,0,.086-.129c0-.024.011-.064.025-.068.124-.037.126-.174.205-.248.027-.025.027-.077.043-.128a.178.178,0,0,0,.178-.184.148.148,0,0,1,.1-.1c.116-.007.156-.1.226-.162a.083.083,0,0,1,.02-.014s.008,0,.021,0a2.507,2.507,0,0,1,.068.246.165.165,0,0,1-.028.117c-.086.115-.182.223-.27.336-.126.162-.256.322-.371.492a3,3,0,0,1-.261.355.871.871,0,0,0-.114.233c-.007.015,0,.042-.012.047-.132.064-.157.213-.249.31a1.212,1.212,0,0,0-.275.383.356.356,0,0,0-.03.084c-.006.053-.026.089-.083.1a.062.062,0,0,0-.043.025,1.883,1.883,0,0,0-.223.413,1.184,1.184,0,0,1-.135.3,3.063,3.063,0,0,1-.186.289,1.1,1.1,0,0,1-.122.124c-.015.015-.04.029-.042.046-.013.131-.122.216-.158.335a.21.21,0,0,1-.037.09.346.346,0,0,0-.1.23.974.974,0,0,1-.144.327A1.683,1.683,0,0,1,335.909,467.833Z" transform="translate(-312.817 -455.452)" fill="#73bb92"/>
      <path id="パス_315" data-name="パス 315" d="M283.023,469.951l.086.04a.324.324,0,0,1-.023.3c-.1.118-.1.1-.256.048a.916.916,0,0,1-.352-.271.483.483,0,0,1-.083-.194c-.022-.076-.052-.135-.143-.139a.1.1,0,0,1-.057-.024,3.536,3.536,0,0,1-.415-.441.68.68,0,0,0-.211-.226.08.08,0,0,1-.018-.018c-.1-.117-.21-.232-.312-.351-.03-.035-.047-.081-.077-.115-.049-.054-.079-.13-.169-.142a.178.178,0,0,1-.1-.061c-.082-.091-.16-.188-.239-.282-.055-.066-.111-.13-.162-.2a.938.938,0,0,1-.156-.319.8.8,0,0,0-.137-.254,4.083,4.083,0,0,1-.313-.519c-.1-.176-.221-.338-.334-.506a.368.368,0,0,1-.032-.04c-.056-.118-.11-.238-.168-.355-.069-.139-.142-.276-.211-.416a.57.57,0,0,1-.026-.1.542.542,0,0,0-.051-.157c-.084-.121-.179-.235-.281-.368l.051-.243a.118.118,0,0,1,.123.036c.056.047.114.091.166.141.019.018.023.051.035.077a.656.656,0,0,0,.172.248.359.359,0,0,1,.108.168,1.884,1.884,0,0,0,.308.5.257.257,0,0,1,.051.085.433.433,0,0,0,.149.213c.05.055.1.115.143.172a.181.181,0,0,0,.042.046.2.2,0,0,1,.116.159c0,.012.006.031.015.034.109.043.122.157.177.239a2.371,2.371,0,0,1,.111.242.955.955,0,0,0,.084.11c.047.065.088.134.137.2.066.085.081.205.195.259.036.017.046.08.079.111.131.128.268.25.4.377a.487.487,0,0,1,.055.084c.057.083.115.166.173.249.008.01.017.024.028.026.164.032.232.192.359.275a.849.849,0,0,1,.192.215c.09.125.168.258.26.381.079.105.174.2.259.3s.149.175.215.27A.438.438,0,0,1,283.023,469.951Z" transform="translate(-278.784 -456.553)" fill="#73bb92"/>
    </g>
    <g id="グループ_278" data-name="グループ 278" transform="translate(-5145.004 -383.109)">
      <path id="パス_316" data-name="パス 316" d="M402.706,450.607l.1.184a.092.092,0,0,0-.028.132.089.089,0,0,1-.017.122c-.03.027-.014.105-.019.163.024.042.074.092.075.142s-.056.086-.095.139c.059.066,0,.153.008.237a.65.65,0,0,0,.015.174c.044.113.075.215-.039.308-.02.016-.024.063-.022.095,0,.06.016.119.023.179,0,.02.007.052,0,.059-.073.049-.035.11-.033.172a.552.552,0,0,0,.06.249.455.455,0,0,1,0,.22c-.006.072-.026.143-.028.215,0,.1.007.192.006.287,0,.153-.01.306-.015.459,0,0,0,.01,0,.013-.13.179.011.373-.03.559a2.917,2.917,0,0,0-.035.333c0,.046-.027.1-.013.138a.775.775,0,0,1,.014.3.189.189,0,0,1-.016.084.214.214,0,0,0,.012.265c-.081.053-.069.125-.07.2,0,.1.075.182.075.278,0,.062.07.136-.021.191-.006,0,.009.045.017.068a.5.5,0,0,1,.022.238c-.015.134-.008.27-.009.405a.05.05,0,0,0,.006.025.413.413,0,0,1-.027.41.271.271,0,0,1,.078.311.95.95,0,0,0,0,.185.311.311,0,0,1-.124.029.3.3,0,0,1-.234-.161,1.114,1.114,0,0,1-.042-.134,1.775,1.775,0,0,1-.1-.6.341.341,0,0,0-.046-.2.042.042,0,0,1-.008-.024c.031-.139-.054-.254-.078-.382,0-.011-.006-.027,0-.034.051-.067.021-.141.019-.211-.007-.225-.031-.45-.025-.675.008-.295,0-.589.011-.884,0-.106.03-.21.038-.316.006-.072,0-.145,0-.218,0-.175.008-.349.017-.524a.61.61,0,0,1,.035-.133c0-.012.02-.028.016-.033-.063-.113.023-.223.006-.342a.969.969,0,0,1,.026-.424.809.809,0,0,0,.011-.2c0-.033.006-.066.008-.1a1.3,1.3,0,0,1,.043-.4c.007-.018-.008-.046-.014-.068s-.017-.016-.016-.019c.055-.1.011-.207.019-.311a1.655,1.655,0,0,0,0-.5.437.437,0,0,1,0-.113c0-.042.022-.09.008-.124a.386.386,0,0,1,.017-.249,1.56,1.56,0,0,0,.05-.242.691.691,0,0,0-.037-.18.113.113,0,0,1-.008-.05,1.118,1.118,0,0,0,.005-.388,5.085,5.085,0,0,1,.015-.528c0-.058-.012-.115-.011-.173a1.368,1.368,0,0,0,.036-.336c-.012-.057,0-.118-.01-.174a1.726,1.726,0,0,1-.032-.488c.005-.063-.006-.127,0-.191.01-.239.027-.479.033-.719a1.068,1.068,0,0,0-.028-.317.558.558,0,0,1,.017-.3.208.208,0,0,0,.011-.085.9.9,0,0,1-.018-.473.141.141,0,0,0,.005-.076c-.066-.234-.013-.477-.058-.713a1.325,1.325,0,0,1,.019-.287c.007-.191.011-.382.015-.574a1.4,1.4,0,0,1,.094-.366c0-.011.016-.027.025-.027a.8.8,0,0,1,.243-.007c.091.023.108.123.133.2a.063.063,0,0,1-.017.046.158.158,0,0,0,0,.181.249.249,0,0,1,0,.2c-.037.119-.138.233-.037.367a1.089,1.089,0,0,0,0,.368.909.909,0,0,1-.016.4.242.242,0,0,1,.06.193c0,.046,0,.092-.006.138a.244.244,0,0,0-.005.075,3.354,3.354,0,0,1,.056.8.865.865,0,0,1-.035.341c-.023.059.035.147.016.209a.325.325,0,0,0-.01.21.255.255,0,0,1,.011.062c.021.315.042.631.061.945a.431.431,0,0,1-.008.139.781.781,0,0,0,.008.353.829.829,0,0,1,0,.251,1.275,1.275,0,0,1-.1.4c-.035.07.009.18.022.272a1.042,1.042,0,0,0,.039.148C402.832,450.5,402.813,450.565,402.706,450.607Z" transform="translate(-389.654 -444.116)" fill="#73bb92"/>
      <path id="パス_317" data-name="パス 317" d="M388.282,448.605c.081.069.135.125.129.228a.3.3,0,0,0,.075.157c.031.045.077.08.111.124a.212.212,0,0,1,.042.1c.011.113.009.113.1.176a.2.2,0,0,0,.077.2.479.479,0,0,1,.132.252.489.489,0,0,0,.137.249.186.186,0,0,1,.067.13.378.378,0,0,0,.051.168c.046.078.072.166.115.239a3.887,3.887,0,0,1,.155.387.227.227,0,0,0,.06.066.766.766,0,0,1,.191.3,1.318,1.318,0,0,1,.113.386,1.247,1.247,0,0,0,.167.435c.09.165.167.334.24.507a.757.757,0,0,1,.071.253.145.145,0,0,0,.045.1c.113.077.119.192.136.31a.729.729,0,0,0,.087.223.842.842,0,0,1,.117.328.11.11,0,0,0,.015.047c.051.086.106.169.155.255a.428.428,0,0,1,.051.13c.022.121.032.244.056.364a.548.548,0,0,0,.061.137c.05.1.064.212.158.285.016.012.017.046.02.071a.575.575,0,0,0,.108.272.869.869,0,0,1,.163.357.389.389,0,0,0,.091.177.672.672,0,0,1,.081.239.3.3,0,0,0,.054.123.272.272,0,0,1,.031.167.85.85,0,0,0,.068.383.186.186,0,0,1,.009.07c0,.016-.015.038-.009.047.116.163.075.378.182.544a.342.342,0,0,1,.026.124q.021.118.042.236c0,.008.007.018,0,.025-.075.173.065.328.045.5a.084.084,0,0,0,.018.059,1.16,1.16,0,0,1,.168.415c.047.121.093.243.129.367a1.284,1.284,0,0,1,.1.385c0,.1.055.194.034.3-.007.037.035.092.068.127.114.122.233.238.352.356a.294.294,0,0,0,.061.038l.18.106-.022.13a.828.828,0,0,1-.163-.023.121.121,0,0,0-.138.031c-.1.089-.144.086-.243,0-.07-.062-.137-.127-.206-.19-.006-.006-.011-.017-.018-.018-.189-.035-.185-.22-.262-.34a1.471,1.471,0,0,1-.073-.135.572.572,0,0,1-.1-.274.21.21,0,0,0-.045-.118.607.607,0,0,1-.162-.429.047.047,0,0,0-.009-.036c-.1-.073-.07-.184-.1-.28s-.064-.165-.088-.25a1.03,1.03,0,0,1-.069-.31,4.4,4.4,0,0,0-.1-.811c-.031-.214-.078-.426-.128-.637a2.11,2.11,0,0,0-.1-.272c-.069-.181-.14-.362-.21-.543a.211.211,0,0,1-.016-.062,1.883,1.883,0,0,0-.156-.49,1.965,1.965,0,0,0-.123-.27,2.007,2.007,0,0,1-.113-.359,1.018,1.018,0,0,1-.038-.109c-.021-.112-.093-.21-.079-.334a.223.223,0,0,0-.065-.147.27.27,0,0,1-.062-.24.248.248,0,0,0-.115-.252.233.233,0,0,1-.1-.171.718.718,0,0,0-.112-.32.6.6,0,0,1-.091-.3,1.029,1.029,0,0,0-.1-.309.75.75,0,0,0-.03-.081c-.029-.074-.058-.149-.089-.222-.086-.2-.173-.4-.26-.594-.029-.066-.063-.129-.089-.2-.059-.153-.119-.307-.17-.463-.03-.092-.033-.193-.069-.282a3.21,3.21,0,0,0-.159-.3q-.048-.09-.093-.181c-.043-.088-.086-.177-.128-.267-.014-.03-.023-.062-.034-.093l-.108-.3c-.008-.023-.014-.046-.021-.069-.015-.042-.018-.1-.047-.123a.419.419,0,0,1-.108-.165.268.268,0,0,0-.063-.094.168.168,0,0,1-.062-.2.107.107,0,0,0,0-.074c-.052-.093-.109-.184-.175-.295Z" transform="translate(-381.197 -446.843)" fill="#73bb92"/>
      <path id="パス_318" data-name="パス 318" d="M407.454,456.359a.177.177,0,0,0-.057.205.676.676,0,0,1-.017.237c-.015.1-.039.2-.058.3,0,.02-.01.049,0,.061a.278.278,0,0,1,.005.3.5.5,0,0,0-.026.275.621.621,0,0,1,.008.077c0,.068-.113.081-.077.162a.2.2,0,0,1-.019.166.685.685,0,0,0-.018.251.887.887,0,0,0,.032.252.216.216,0,0,1-.074.24.148.148,0,0,0-.052.117.443.443,0,0,0,0,.064.634.634,0,0,1-.031.328c-.052.114.025.212.031.318s.061.24-.042.352c-.028.031-.021.106-.012.157a.475.475,0,0,1-.008.174c-.021.115-.026.233-.037.35,0,0,0,.01,0,.012-.085.132,0,.269-.012.4a.762.762,0,0,1-.026.211.4.4,0,0,0,0,.239.227.227,0,0,1-.007.113c-.031.091-.069.181-.1.271a.126.126,0,0,0-.013.062,2.488,2.488,0,0,0,.064.287.44.44,0,0,1,.009.3.2.2,0,0,0,.062.241,1.347,1.347,0,0,1,.138.126c.009.049.016.1.027.145s0,.092-.063.1a.774.774,0,0,1-.305,0,.3.3,0,0,1-.2-.18.3.3,0,0,0-.058-.123.306.306,0,0,1-.083-.217c-.015-.13-.038-.26-.049-.391-.007-.087,0-.176,0-.263,0-.04-.015-.081-.02-.121a.191.191,0,0,1,0-.1.138.138,0,0,0-.039-.181c.124-.064.064-.169.068-.256.006-.143-.021-.288,0-.429a1.426,1.426,0,0,0,0-.415c-.009-.049.039-.107.037-.161a.572.572,0,0,1,.113-.38.112.112,0,0,0-.008-.1.2.2,0,0,1,0-.184.49.49,0,0,0,.024-.3.241.241,0,0,1,0-.087,2.048,2.048,0,0,1,.084-.394.8.8,0,0,0,.01-.329.3.3,0,0,1,.058-.241.115.115,0,0,0,.021-.082,4.617,4.617,0,0,1,.062-.769,1.606,1.606,0,0,1,.1-.481.328.328,0,0,0,.01-.19.522.522,0,0,1,.09-.409.368.368,0,0,0,.04-.3.276.276,0,0,1,0-.11c.011-.117.1-.224.043-.349-.006-.014.013-.038.021-.057s.035-.058.031-.082a1.116,1.116,0,0,1,.1-.5.551.551,0,0,0,.036-.169c-.01-.133.116-.23.089-.366,0-.019.023-.044.034-.067.02-.042.061-.089.055-.128-.023-.149.11-.234.136-.362,0-.024.05-.039.076-.059l.125.084c.013.1.018.184.035.267s.042.162-.069.212c-.031.014-.045.088-.046.136a1.357,1.357,0,0,1-.032.285,1.325,1.325,0,0,0,.005.324c-.078.039-.088.128-.1.216a2.164,2.164,0,0,1-.066.4c-.04.121-.023.247-.067.365A.388.388,0,0,0,407.454,456.359Z" transform="translate(-392.25 -450.077)" fill="#73bb92"/>
      <path id="パス_319" data-name="パス 319" d="M390.239,466.565c-.018-.026-.057-.059-.051-.077.029-.09-.037-.135-.073-.19l.117-.284a.328.328,0,0,1-.2-.274,4.472,4.472,0,0,0-.134-.436.112.112,0,0,0-.022-.031c-.11-.141-.221-.282-.331-.424a.233.233,0,0,1-.049-.089.122.122,0,0,0-.075-.108c-.02-.008-.049-.042-.045-.056.023-.073-.032-.12-.056-.173a1.353,1.353,0,0,0-.157-.262.472.472,0,0,1-.08-.208,1.018,1.018,0,0,0-.057-.188,2.381,2.381,0,0,0-.121-.3.621.621,0,0,1-.073-.23,3.124,3.124,0,0,1-.085-.477.613.613,0,0,0-.041-.144c-.016-.069-.022-.141-.044-.207a3.031,3.031,0,0,0-.121-.493c-.022-.041,0-.1-.013-.152-.018-.074-.051-.145-.071-.219-.032-.118-.058-.238-.086-.357-.022-.094-.048-.187-.066-.281s-.025-.182-.038-.273a.223.223,0,0,0-.018-.086,2.678,2.678,0,0,1-.178-.594c-.052-.148-.044-.3-.083-.451-.013-.052,0-.113-.018-.161-.057-.134-.023-.286-.1-.417a.591.591,0,0,1-.066-.218,1.321,1.321,0,0,0-.162-.466c-.013-.024-.045-.038-.067-.058a.093.093,0,0,1,0-.16c.016-.013.035-.021.052-.033.049-.036.081-.116.156-.093a2.167,2.167,0,0,1,.283.114.079.079,0,0,1,.031.065.371.371,0,0,0,.125.31.018.018,0,0,1,.006.011,1.036,1.036,0,0,0,.074.339,1.263,1.263,0,0,1,.022.135.442.442,0,0,1,.018.086,1.079,1.079,0,0,0,.118.477.368.368,0,0,1,.046.3.235.235,0,0,0,.025.194.7.7,0,0,1,.034.212c.005.033.009.08.031.094.084.053.071.135.086.214a1.058,1.058,0,0,0,.158.437.453.453,0,0,1,.062.139c.036.127.071.255.1.385a.459.459,0,0,1,0,.183.518.518,0,0,0,.051.246,1.019,1.019,0,0,0,.122.249.447.447,0,0,1,.049.254,2.639,2.639,0,0,0,.044.406c.108.07.074.187.092.286a1.636,1.636,0,0,0,.079.192,5.232,5.232,0,0,0,.267.683c.105.216.176.448.3.654a1.452,1.452,0,0,0,.269.446c.01.008.022.02.022.031-.005.128.114.184.168.278a.254.254,0,0,1,.048.146c0,.1,0,.2,0,.305a.026.026,0,0,0,0,.013c.08.15-.039.228-.115.323a.9.9,0,0,0-.1.147.165.165,0,0,0-.015.12.541.541,0,0,1-.021.183Z" transform="translate(-380.838 -452.483)" fill="#73bb92"/>
      <path id="パス_320" data-name="パス 320" d="M435.595,460.686a.183.183,0,0,1,.042.241c-.035.084-.057.19-.159.24-.032.016-.045.07-.066.106-.038.065-.078.129-.115.2-.017.029-.031.061-.045.091s-.029.068-.044.1-.035.046-.033.066c.018.179-.13.3-.151.47,0,.025-.042.044-.054.07a.482.482,0,0,0-.062.174.383.383,0,0,1-.163.287c-.043.037-.085.062-.093.128a.142.142,0,0,1-.116.124c-.068.014-.082.065-.11.122a3.231,3.231,0,0,1-.186.378,2.478,2.478,0,0,0-.127.322c-.008.015,0,.036-.011.049-.094.149-.194.3-.282.448a1.327,1.327,0,0,0-.083.222.285.285,0,0,1-.026.069c-.052.073-.112.141-.161.216a.715.715,0,0,0-.145.276.976.976,0,0,1-.132.261.888.888,0,0,0-.048.088.569.569,0,0,1-.142.264c-.05.041-.063.126-.094.191s-.071.152-.111.226c-.088.163-.178.325-.269.487a.9.9,0,0,1-.072.1c-.008.01-.024.015-.027.026-.046.14-.09.28-.134.42-.009.027-.012.063-.031.079-.109.092-.113.233-.17.349a.321.321,0,0,1-.061.092c-.086.08-.087.078-.006.184-.106.069-.084.2-.138.3a.107.107,0,0,0-.013.062.382.382,0,0,1-.091.281c-.038.055-.074.075-.118.057a.672.672,0,0,1-.37-.261c-.062-.108-.066-.164.01-.256a.329.329,0,0,0,.077-.2.3.3,0,0,1,.075-.169.443.443,0,0,0,.087-.229,1.781,1.781,0,0,1,.27-.652c0-.007.014-.015.013-.021-.033-.153.109-.243.139-.376a1.6,1.6,0,0,1,.111-.215,3.649,3.649,0,0,1,.229-.377c.066-.114.12-.233.18-.349.02-.038.042-.074.063-.111.143-.24.291-.478.428-.722a1.976,1.976,0,0,0,.183-.354,1.944,1.944,0,0,1,.167-.3c.086-.16.159-.327.254-.48a4.638,4.638,0,0,1,.44-.678c.008-.009.025-.017.026-.026.01-.133.134-.192.189-.3.026-.048.039-.1.069-.148.1-.148.212-.289.306-.441a3.863,3.863,0,0,0,.171-.35.714.714,0,0,1,.061-.106c.062-.086.127-.17.19-.256a1.555,1.555,0,0,1,.093-.138.352.352,0,0,0,.118-.2.1.1,0,0,1,.091-.1A1.427,1.427,0,0,0,435.595,460.686Z" transform="translate(-407.441 -454.181)" fill="#73bb92"/>
      <path id="パス_321" data-name="パス 321" d="M416.714,454.028c.041-.029.13-.051.151-.147,0-.014.034-.024.053-.034l.173-.092.077.051c-.038.016-.058.024-.076.033-.058.029-.062.071-.039.128a1.016,1.016,0,0,1,.054.179.1.1,0,0,1-.079.134c-.1.032-.1.139-.119.223-.008.043,0,.082-.047.11-.013.009-.032.03-.029.039a.346.346,0,0,1-.055.249c-.022.048-.021.106-.043.155a2.719,2.719,0,0,0-.13.261,2.872,2.872,0,0,0-.057.311c-.007.033-.033.062-.043.1-.023.073-.043.147-.061.221a2.007,2.007,0,0,1-.068.293.8.8,0,0,0-.088.367.058.058,0,0,1-.007.038c-.113.142-.1.332-.186.488a2.1,2.1,0,0,0-.116.347c-.011.032-.029.062-.038.095-.016.056-.027.113-.04.17a.311.311,0,0,1-.021.1.582.582,0,0,0-.088.249.208.208,0,0,0,0,.131.172.172,0,0,1-.058.2c-.037.032-.073.061-.052.118a.015.015,0,0,1,0,.013c-.073.095-.049.221-.1.32a1.041,1.041,0,0,0-.083.385c-.169.131-.138.32-.152.5-.081-.016-.095.047-.112.11a1.741,1.741,0,0,0-.053.166,1.177,1.177,0,0,0,0,.185.212.212,0,0,0-.1.188.158.158,0,0,1-.039.094.318.318,0,0,0-.061.252,2.764,2.764,0,0,1-.061.514c0,.023-.024.044-.039.065s-.029.017-.029.024c.011.122-.112.194-.114.315a.8.8,0,0,1-.069.215l.041.045c0,.1,0,.178-.013.256a.354.354,0,0,1-.057.149c-.049.069-.1.126-.03.214a.14.14,0,0,1-.007.12.2.2,0,0,0,.009.181.831.831,0,0,1,.04.132.2.2,0,0,1-.148.254.135.135,0,0,1-.106-.017.75.75,0,0,1-.3-.387.185.185,0,0,1-.015-.075,1.431,1.431,0,0,1,.066-.494.02.02,0,0,0,0-.012,1.886,1.886,0,0,1,.02-.548c.055-.018.067-.062.074-.136a2.059,2.059,0,0,1,.1-.392,4.037,4.037,0,0,0,.123-.389c.021-.11.062-.214.084-.318.03-.142.1-.269.122-.411a.67.67,0,0,1,.044-.105.7.7,0,0,0,.029-.106c0-.025,0-.054.006-.076.041-.091.13-.152.122-.279a.869.869,0,0,1,.092-.29c.016-.048.028-.1.041-.144.022-.082.044-.164.067-.245,0-.016.022-.03.022-.045a1.641,1.641,0,0,1,.13-.474c.023-.08.068-.154.1-.233a.64.64,0,0,0,.053-.207.929.929,0,0,1,.1-.313c.038-.111.089-.218.134-.327,0,0,.007-.008.007-.011-.011-.185.114-.345.1-.532a.158.158,0,0,1,.034-.095,1.757,1.757,0,0,0,.206-.492,1.263,1.263,0,0,0,.113-.4.157.157,0,0,1,.042-.093.981.981,0,0,0,.172-.418c.023-.082.055-.161.086-.24.062-.161.125-.322.191-.482.013-.03.051-.05.06-.08C416.66,454.272,416.681,454.168,416.714,454.028Z" transform="translate(-396.968 -449.972)" fill="#73bb92"/>
      <path id="パス_322" data-name="パス 322" d="M411.428,456.26l.036-.215c.116-.038.175.042.248.068a.3.3,0,0,1-.016.215,1.564,1.564,0,0,0-.053.284,3.857,3.857,0,0,0-.08.413,2,2,0,0,1-.107.5.441.441,0,0,0,0,.128.243.243,0,0,1-.006.087.382.382,0,0,0-.035.259c.009.036-.019.081-.029.122-.017.074-.034.148-.05.222,0,.021,0,.05-.01.061-.077.066-.044.146-.042.226a.459.459,0,0,1-.026.269.832.832,0,0,0-.066.232.084.084,0,0,0,.012.06.188.188,0,0,1,.011.225c-.019.031-.01.08-.015.12-.009.075-.014.152-.029.226-.028.132-.068.262-.091.4a1.309,1.309,0,0,0,.01.186,1.052,1.052,0,0,1-.07.365.908.908,0,0,0-.022.294.7.7,0,0,0,.013.105l-.058.044a3.013,3.013,0,0,1-.114.577.485.485,0,0,0,0,.168l-.064.022c0,.071,0,.145,0,.22a.073.073,0,0,1,0,.025.7.7,0,0,0-.05.393.379.379,0,0,1-.045.178c-.05.116-.132.216-.1.362.012.055-.042.138-.088.188a.186.186,0,0,0-.056.184c.007.031-.016.068-.019.1a.3.3,0,0,0,.005.109.192.192,0,0,1-.06.219c-.01.008-.029.019-.027.024.027.106-.072.178-.074.278a.73.73,0,0,1-.048.141.167.167,0,0,0,0,.106c.042.081.074.151,0,.232-.019.02,0,.072-.006.11s-.009.1-.016.146c0,.021-.018.041-.017.061.005.127-.064.25-.053.367a.513.513,0,0,1-.074.305c-.017.032-.02.071-.037.1a.142.142,0,0,1-.187.089.382.382,0,0,0-.122.007,2.074,2.074,0,0,1-.051-.343c-.02-.17.041-.337,0-.508-.011-.049.034-.109.029-.161a1.408,1.408,0,0,1,.045-.363c.039-.251.1-.5.145-.745a.657.657,0,0,1,.078-.261.7.7,0,0,0,.048-.169c.019-.058.009-.125.065-.175.024-.021.025-.071.031-.11a1.614,1.614,0,0,1,.046-.291c.064-.175.067-.362.115-.539.042-.157.1-.312.143-.468a.372.372,0,0,0,0-.076.8.8,0,0,1,.014-.1c.011-.049.024-.1.035-.145a1.97,1.97,0,0,0,.041-.195c.013-.109.013-.219.029-.327a2.883,2.883,0,0,1,.066-.321,1.877,1.877,0,0,1,.085-.4c0-.009,0-.024-.007-.035a.318.318,0,0,1,.017-.222c.038-.1,0-.213.077-.3a.786.786,0,0,1,.057-.37c.01-.044.02-.088.031-.131,0-.02.02-.044.013-.059a.146.146,0,0,1,.029-.156c.068-.095.019-.2.029-.3.011-.117.013-.234.028-.35a.966.966,0,0,1,.058-.167c.022-.066.042-.131.06-.2a.05.05,0,0,0-.007-.037c-.059-.088-.006-.152.033-.229a.673.673,0,0,0,.037-.2c0-.013,0-.029,0-.038a1.046,1.046,0,0,0,.111-.474c.005-.049.017-.1.025-.148,0-.025,0-.056.009-.075a.427.427,0,0,0,.066-.3C411.306,456.35,411.377,456.31,411.428,456.26Z" transform="translate(-394.253 -451.356)" fill="#73bb92"/>
      <path id="パス_323" data-name="パス 323" d="M423.214,464.5l-.018-.042c.04-.089.071-.155.1-.222.013-.03.022-.063.038-.091a1.332,1.332,0,0,0,.18-.32,3.226,3.226,0,0,1,.262-.537,3.437,3.437,0,0,0,.174-.323.68.68,0,0,1,.038-.089.615.615,0,0,1,.148-.247.73.73,0,0,0,.136-.238c.008-.014,0-.036.011-.049.077-.12.153-.241.236-.356.037-.051.06-.115.095-.155.1-.111.146-.257.275-.341.036-.024.053-.077.079-.116a1.552,1.552,0,0,1,.107-.157.919.919,0,0,0,.13-.2,1.9,1.9,0,0,1,.18-.248.692.692,0,0,0,.11-.17.487.487,0,0,1,.321-.3.12.12,0,0,1,.1.016.222.222,0,0,1-.018.388.325.325,0,0,0-.053.055c-.065.079-.074.2-.194.239a.947.947,0,0,1-.279.393.22.22,0,0,0-.032.082c-.006.02,0,.049-.014.06a1.239,1.239,0,0,0-.2.376c-.068.13-.162.245-.227.376-.035.069-.08.128-.117.192s0,.132-.054.19a1.41,1.41,0,0,0-.1.157l.011.068-.095.012a2.148,2.148,0,0,1-.267.439.723.723,0,0,0-.147.263.465.465,0,0,0-.006.162.537.537,0,0,0-.083.144.452.452,0,0,1-.17.267c-.024.076-.04.133-.061.19-.034.1-.069.192-.1.287-.007.019-.011.048-.026.055-.093.049-.074.14-.082.225l-.123.071a.4.4,0,0,1-.077.338c-.066.089-.167.157-.183.29a1.522,1.522,0,0,1-.116.332.227.227,0,0,1-.04.065.263.263,0,0,0-.086.165.161.161,0,0,1-.069.1.162.162,0,0,0-.064.18.149.149,0,0,1-.007.1c-.1.133-.078.309-.17.449a4.177,4.177,0,0,0-.208.436c-.033.067,0,.151-.064.21-.008.008.014.053.027.079a.189.189,0,0,1-.176.289.267.267,0,0,1-.3-.193c-.031-.122-.111-.253-.018-.392a1.3,1.3,0,0,0,.1-.242.136.136,0,0,0,.015-.062,1,1,0,0,1,.083-.428.19.19,0,0,1,.047-.074.211.211,0,0,0,.071-.171.129.129,0,0,1,.023-.084c.11-.126.094-.3.174-.435s.088-.294.2-.407a.274.274,0,0,0,.055-.115,2.076,2.076,0,0,1,.241-.517,1.345,1.345,0,0,0,.127-.28C423.094,464.566,423.129,464.509,423.214,464.5Z" transform="translate(-401.703 -453.941)" fill="#73bb92"/>
      <path id="パス_324" data-name="パス 324" d="M418.675,463.247l.024.166a.59.59,0,0,0-.174.427.53.53,0,0,1-.1.265.458.458,0,0,0-.079.212.444.444,0,0,1-.1.231.381.381,0,0,0-.086.248,1,1,0,0,1-.061.27c-.018.058-.042.111,0,.169a.084.084,0,0,1,.013.071,1.187,1.187,0,0,0-.044.429l-.185.045c0,.051.022.118-.062.128a.133.133,0,0,1-.139-.06,1.235,1.235,0,0,1-.17-.4.491.491,0,0,1,.023-.239,1.889,1.889,0,0,1,.079-.2.085.085,0,0,0,0-.06.2.2,0,0,1,.028-.216.354.354,0,0,0,.032-.11,1.7,1.7,0,0,1,.113-.422c.072-.129.071-.279.175-.4a1.571,1.571,0,0,0,.213-.472,2.359,2.359,0,0,1,.2-.468,1.527,1.527,0,0,0,.227-.456.2.2,0,0,1,.04-.079.7.7,0,0,0,.135-.307.138.138,0,0,1,.034-.064,1.543,1.543,0,0,0,.292-.574.916.916,0,0,1,.164-.387.076.076,0,0,0,.026-.044c0-.129.092-.22.13-.333a.741.741,0,0,1,.039-.079.761.761,0,0,0,.095-.2.282.282,0,0,1,.088-.176.137.137,0,0,0,.03-.041c.057-.122.111-.245.169-.366.022-.046.05-.09.076-.134a2.476,2.476,0,0,0,.2-.534.181.181,0,0,1,.026-.058,2.385,2.385,0,0,0,.333-.585.473.473,0,0,1,.091-.139.224.224,0,0,0,.074-.206.152.152,0,0,1,.008-.059c.033-.125.033-.124.164-.117a1.159,1.159,0,0,1,.176.009c.1.022.124.064.108.16s-.014.175-.135.184c-.016,0-.027.038-.044.057a1.152,1.152,0,0,0-.178.448.949.949,0,0,1-.065.188c-.028.046-.057.078-.029.137.009.02-.02.059-.034.088-.062.124-.166.23-.161.369-.077.082-.157.146-.168.264,0,.036-.051.067-.078.1l-.024-.011q0,.144-.008.288a.073.073,0,0,1-.007.037c-.064.091-.13.181-.194.271a.5.5,0,0,0-.066.105,2.79,2.79,0,0,1-.185.489,2.231,2.231,0,0,0-.142.315c-.085.2-.153.4-.221.6-.021.063-.017.151-.059.188-.09.08-.113.2-.194.276a.239.239,0,0,0-.09.169c-.006.056-.063.1-.093.159a.329.329,0,0,0-.021.076c-.005.019-.006.047-.018.055-.069.042-.085.113-.115.179A.726.726,0,0,1,418.675,463.247Z" transform="translate(-399.041 -452.497)" fill="#73bb92"/>
      <path id="パス_325" data-name="パス 325" d="M380.328,461.732a.694.694,0,0,0,.148.371,1.386,1.386,0,0,1,.116.21c.059.113.117.227.176.341a.02.02,0,0,0,.009.01c.106.027.106.124.124.2a2.224,2.224,0,0,1,.161.535.032.032,0,0,0,.009.024c.117.058.089.163.094.262a.158.158,0,0,0,.062.107.269.269,0,0,1,.106.2.628.628,0,0,0,.085.209q.185.346.367.694a.077.077,0,0,1,.011.036.949.949,0,0,0,.172.488,1.158,1.158,0,0,1,.151.416.507.507,0,0,0,.115.265.267.267,0,0,1,.054.151.334.334,0,0,0,.122.23,1.229,1.229,0,0,1,.119.162c.024.035.042.073.064.109.011.018.036.037.033.053-.018.115.062.153.139.2.052.035.116.073.121.156,0,.027.043.051.062.079a.132.132,0,0,1-.013.165c-.038.048-.084.121-.156.075a.193.193,0,0,0-.193,0,.1.1,0,0,1-.043,0l-.122-.126c-.157-.164-.357-.29-.43-.524a2.115,2.115,0,0,0-.116-.244.467.467,0,0,1-.035-.1,1.083,1.083,0,0,0-.171-.417.531.531,0,0,1-.1-.246,1.09,1.09,0,0,0-.166-.356,1.418,1.418,0,0,0-.113-.171c-.009-.014-.025-.031-.022-.044.028-.156-.109-.235-.163-.353a1.288,1.288,0,0,1-.14-.349.246.246,0,0,0-.041-.078.563.563,0,0,1-.049-.148,1.278,1.278,0,0,0-.138-.324.265.265,0,0,1-.05-.123.234.234,0,0,0-.1-.215.408.408,0,0,0-.044-.32,3.511,3.511,0,0,1-.233-.495.544.544,0,0,0-.15-.275.594.594,0,0,1-.106-.2c-.04-.087-.078-.176-.113-.265a.431.431,0,0,1-.016-.088.225.225,0,0,0-.013-.075c-.053-.085-.112-.166-.166-.25a.2.2,0,0,1-.046-.1.6.6,0,0,0-.08-.3c-.038-.081-.067-.166-.1-.248a.246.246,0,0,0-.182-.147.209.209,0,0,1-.174-.259.3.3,0,0,1,.007-.038c.015-.067-.009-.171.082-.181a.536.536,0,0,1,.239.061.708.708,0,0,1,.157.1.384.384,0,0,1,.053.068c.058.072.113.149.178.215a.259.259,0,0,1,.075.18.99.99,0,0,0,.147.336,1.547,1.547,0,0,0,.106.212A1,1,0,0,0,380.328,461.732Z" transform="translate(-375.75 -454.019)" fill="#73bb92"/>
      <path id="パス_326" data-name="パス 326" d="M427.6,467.833l-.033.265c-.056.047-.141.1-.084.187-.058.113-.1.215-.158.305-.089.138-.072.309-.154.448-.015.026-.022.06-.042.079-.1.089-.1.22-.129.335,0,.013.007.029.01.045a1.134,1.134,0,0,1,.025.119c0,.033-.009.071,0,.1a.27.27,0,0,1-.118.36.374.374,0,0,1-.3-.02c-.02-.019-.044-.058-.037-.076.028-.072-.024-.122-.035-.182s-.014-.109-.021-.164-.016-.107-.017-.161a.181.181,0,0,1,.017-.108.6.6,0,0,0,.105-.45.71.71,0,0,1,.119-.4.61.61,0,0,0,.04-.14.726.726,0,0,1,.115-.28,1.307,1.307,0,0,0,.152-.342.824.824,0,0,1,.105-.256,1.08,1.08,0,0,0,.1-.216.485.485,0,0,1,.075-.144c.113-.111.132-.288.276-.374a.023.023,0,0,0,.007-.011c.067-.139.131-.278.2-.415.034-.067.077-.13.117-.193.059-.094.118-.189.181-.28.036-.052.08-.1.121-.148a.358.358,0,0,0,.056-.068.89.89,0,0,1,.092-.2,1.544,1.544,0,0,0,.154-.163,5.066,5.066,0,0,1,.485-.7.635.635,0,0,0,.194-.274c0-.015.021-.026.033-.039a.641.641,0,0,1,.113-.115c.09-.056.111-.157.17-.232.029-.036.055-.085.094-.1a.139.139,0,0,0,.086-.129c0-.024.011-.064.025-.068.124-.037.126-.174.205-.248.027-.025.027-.077.043-.128a.178.178,0,0,0,.177-.184.149.149,0,0,1,.1-.1c.116-.007.156-.1.226-.162a.1.1,0,0,1,.02-.014s.008,0,.021,0a2.524,2.524,0,0,1,.068.246.167.167,0,0,1-.028.117c-.086.115-.182.223-.27.336-.126.162-.256.322-.371.492a2.919,2.919,0,0,1-.261.355.883.883,0,0,0-.114.233c-.007.015,0,.042-.012.047-.132.064-.157.213-.25.31a1.219,1.219,0,0,0-.275.383.358.358,0,0,0-.03.084c-.006.053-.026.089-.083.1a.062.062,0,0,0-.043.025,1.865,1.865,0,0,0-.223.413,1.159,1.159,0,0,1-.135.3,3,3,0,0,1-.186.289,1.06,1.06,0,0,1-.121.124c-.015.015-.04.029-.042.046-.013.131-.122.216-.158.335a.211.211,0,0,1-.037.09.346.346,0,0,0-.1.23.976.976,0,0,1-.144.327A1.7,1.7,0,0,1,427.6,467.833Z" transform="translate(-404.509 -455.452)" fill="#73bb92"/>
      <path id="パス_327" data-name="パス 327" d="M374.715,469.951l.087.04a.324.324,0,0,1-.024.3c-.1.118-.1.1-.256.048a.914.914,0,0,1-.352-.271.479.479,0,0,1-.083-.194c-.022-.076-.052-.135-.143-.139a.1.1,0,0,1-.057-.024,3.5,3.5,0,0,1-.415-.441.684.684,0,0,0-.211-.226.067.067,0,0,1-.018-.018c-.1-.117-.21-.232-.312-.351-.03-.035-.047-.081-.077-.115-.049-.054-.079-.13-.169-.142a.181.181,0,0,1-.1-.061c-.082-.091-.16-.188-.239-.282-.055-.066-.11-.13-.162-.2a.953.953,0,0,1-.156-.319.794.794,0,0,0-.136-.254,4.079,4.079,0,0,1-.313-.519c-.1-.176-.221-.338-.334-.506a.371.371,0,0,1-.032-.04c-.057-.118-.11-.238-.168-.355-.069-.139-.142-.276-.211-.416a.658.658,0,0,1-.026-.1.543.543,0,0,0-.051-.157c-.084-.121-.179-.235-.281-.368l.051-.243a.118.118,0,0,1,.123.036c.056.047.114.091.167.141.019.018.023.051.035.077a.66.66,0,0,0,.172.248.354.354,0,0,1,.108.168,1.9,1.9,0,0,0,.308.5.264.264,0,0,1,.051.085.435.435,0,0,0,.148.213c.051.055.1.115.144.172a.182.182,0,0,0,.042.046.2.2,0,0,1,.116.159c0,.012.007.031.015.034.108.043.122.157.177.239a2.294,2.294,0,0,1,.111.242,1.014,1.014,0,0,0,.084.11c.047.065.088.134.137.2.066.085.081.205.195.259.036.017.047.08.079.111.132.128.268.25.4.377a.522.522,0,0,1,.055.084q.086.125.174.249c.007.01.017.024.028.026.165.032.232.192.359.275a.838.838,0,0,1,.192.215c.091.125.168.258.26.381.079.105.174.2.259.3s.149.175.215.27A.437.437,0,0,1,374.715,469.951Z" transform="translate(-370.476 -456.553)" fill="#73bb92"/>
    </g>
    <g id="グループ_279" data-name="グループ 279" transform="translate(-5111.275 -383.109)">
      <path id="パス_328" data-name="パス 328" d="M488.626,450.607l.1.184a.092.092,0,0,0-.028.132.088.088,0,0,1-.017.122c-.03.027-.014.105-.019.163.024.042.075.092.075.142s-.056.086-.095.139c.059.066,0,.153.008.237a.648.648,0,0,0,.015.174c.044.113.075.215-.039.308-.02.016-.023.063-.022.095,0,.06.016.119.023.179,0,.02.007.052,0,.059-.073.049-.035.11-.033.172a.548.548,0,0,0,.059.249.455.455,0,0,1,0,.22c-.006.072-.026.143-.028.215,0,.1.008.192.006.287,0,.153-.01.306-.015.459,0,0,0,.01,0,.013-.13.179.011.373-.03.559a2.9,2.9,0,0,0-.035.333.369.369,0,0,0-.013.138.768.768,0,0,1,.014.3.19.19,0,0,1-.016.084.214.214,0,0,0,.012.265c-.081.053-.069.125-.07.2,0,.1.075.182.075.278,0,.062.07.136-.021.191-.006,0,.009.045.017.068a.5.5,0,0,1,.022.238c-.015.134-.008.27-.009.405a.055.055,0,0,0,.006.025.414.414,0,0,1-.027.41.272.272,0,0,1,.078.311.951.951,0,0,0,0,.185.311.311,0,0,1-.124.029.3.3,0,0,1-.234-.161,1.092,1.092,0,0,1-.042-.134,1.776,1.776,0,0,1-.1-.6.341.341,0,0,0-.045-.2.042.042,0,0,1-.008-.024c.031-.139-.054-.254-.078-.382,0-.011-.005-.027,0-.034.051-.067.021-.141.019-.211-.007-.225-.031-.45-.025-.675.008-.295,0-.589.011-.884,0-.106.03-.21.038-.316.006-.072,0-.145,0-.218,0-.175.008-.349.017-.524a.635.635,0,0,1,.035-.133c0-.012.02-.028.017-.033-.063-.113.023-.223.006-.342a.971.971,0,0,1,.026-.424.8.8,0,0,0,.011-.2c0-.033.006-.066.008-.1a1.3,1.3,0,0,1,.043-.4c.007-.018-.008-.046-.014-.068s-.017-.016-.016-.019c.055-.1.011-.207.019-.311a1.648,1.648,0,0,0,0-.5.42.42,0,0,1,0-.113c0-.042.022-.09.008-.124a.386.386,0,0,1,.017-.249,1.5,1.5,0,0,0,.05-.242.693.693,0,0,0-.037-.18.114.114,0,0,1-.008-.05,1.12,1.12,0,0,0,.006-.388,5.018,5.018,0,0,1,.015-.528c0-.058-.012-.115-.011-.173a1.347,1.347,0,0,0,.036-.336c-.012-.057,0-.118-.01-.174a1.73,1.73,0,0,1-.032-.488c.005-.063-.006-.127,0-.191.01-.239.027-.479.033-.719a1.068,1.068,0,0,0-.028-.317.558.558,0,0,1,.017-.3.206.206,0,0,0,.011-.085.9.9,0,0,1-.018-.473.14.14,0,0,0,.005-.076c-.066-.234-.013-.477-.058-.713a1.325,1.325,0,0,1,.019-.287c.008-.191.011-.382.015-.574a1.4,1.4,0,0,1,.094-.366c0-.011.016-.027.025-.027a.8.8,0,0,1,.243-.007c.091.023.108.123.133.2a.063.063,0,0,1-.017.046.158.158,0,0,0,0,.181.25.25,0,0,1,0,.2c-.036.119-.138.233-.037.367a1.092,1.092,0,0,0,0,.368.907.907,0,0,1-.016.4.242.242,0,0,1,.06.193,1.368,1.368,0,0,1-.006.138.255.255,0,0,0-.005.075,3.348,3.348,0,0,1,.056.8.865.865,0,0,1-.035.341c-.023.059.035.147.016.209a.325.325,0,0,0-.01.21.255.255,0,0,1,.011.062c.021.315.042.631.061.945a.433.433,0,0,1-.007.139.781.781,0,0,0,.007.353.838.838,0,0,1,0,.251,1.286,1.286,0,0,1-.1.4c-.035.07.009.18.022.272a.974.974,0,0,0,.039.148C488.752,450.5,488.733,450.565,488.626,450.607Z" transform="translate(-475.574 -444.116)" fill="#73bb92"/>
      <path id="パス_329" data-name="パス 329" d="M474.2,448.605c.081.069.135.125.129.228,0,.051.043.108.075.157s.077.08.111.124a.212.212,0,0,1,.042.1c.011.113.009.113.1.176a.2.2,0,0,0,.077.2.479.479,0,0,1,.132.252.49.49,0,0,0,.137.249.185.185,0,0,1,.067.13.377.377,0,0,0,.051.168c.046.078.072.166.115.239a3.765,3.765,0,0,1,.155.387.227.227,0,0,0,.061.066.768.768,0,0,1,.191.3,1.32,1.32,0,0,1,.113.386,1.246,1.246,0,0,0,.167.435c.09.165.167.334.24.507a.757.757,0,0,1,.071.253.145.145,0,0,0,.045.1c.113.077.119.192.136.31a.749.749,0,0,0,.087.223.843.843,0,0,1,.117.328.109.109,0,0,0,.015.047c.051.086.106.169.155.255a.426.426,0,0,1,.051.13c.022.121.033.244.056.364a.545.545,0,0,0,.061.137c.05.1.064.212.158.285.016.012.017.046.021.071a.571.571,0,0,0,.107.272.863.863,0,0,1,.163.357.389.389,0,0,0,.091.177.669.669,0,0,1,.081.239.3.3,0,0,0,.054.123.276.276,0,0,1,.032.167.849.849,0,0,0,.068.383.179.179,0,0,1,.009.07c0,.016-.015.038-.009.047.116.163.075.378.182.544a.342.342,0,0,1,.026.124q.021.118.042.236c0,.008.007.018,0,.025-.075.173.065.328.046.5a.084.084,0,0,0,.018.059,1.168,1.168,0,0,1,.168.415c.046.121.093.243.128.367a1.287,1.287,0,0,1,.1.385c0,.1.055.194.034.3-.007.037.035.092.068.127.114.122.233.238.352.356a.29.29,0,0,0,.061.038l.179.106-.022.13a.828.828,0,0,1-.163-.023.121.121,0,0,0-.138.031c-.1.089-.144.086-.243,0-.07-.062-.137-.127-.206-.19-.006-.006-.011-.017-.018-.018-.189-.035-.184-.22-.262-.34a1.471,1.471,0,0,1-.073-.135.568.568,0,0,1-.095-.274.213.213,0,0,0-.046-.118.607.607,0,0,1-.162-.429.046.046,0,0,0-.009-.036c-.1-.073-.07-.184-.1-.28s-.064-.165-.088-.25a1.037,1.037,0,0,1-.069-.31,4.381,4.381,0,0,0-.1-.811c-.031-.214-.078-.426-.127-.637a2.145,2.145,0,0,0-.1-.272c-.069-.181-.14-.362-.21-.543a.214.214,0,0,1-.016-.062,1.881,1.881,0,0,0-.156-.49,1.955,1.955,0,0,0-.123-.27,2.011,2.011,0,0,1-.113-.359,1.024,1.024,0,0,1-.038-.109c-.021-.112-.093-.21-.078-.334a.223.223,0,0,0-.065-.147.27.27,0,0,1-.062-.24.248.248,0,0,0-.115-.252.233.233,0,0,1-.1-.171.708.708,0,0,0-.112-.32.6.6,0,0,1-.091-.3,1.027,1.027,0,0,0-.1-.309.863.863,0,0,0-.03-.081c-.03-.074-.057-.149-.089-.222-.086-.2-.173-.4-.26-.594-.029-.066-.063-.129-.089-.2-.059-.153-.119-.307-.17-.463-.03-.092-.033-.193-.069-.282a3.1,3.1,0,0,0-.159-.3c-.032-.06-.063-.12-.093-.181q-.065-.133-.128-.267c-.014-.03-.023-.062-.035-.093l-.108-.3c-.008-.023-.014-.046-.021-.069-.015-.042-.018-.1-.047-.123a.419.419,0,0,1-.108-.165.268.268,0,0,0-.063-.094.168.168,0,0,1-.062-.2.108.108,0,0,0,0-.074c-.052-.093-.109-.184-.175-.295Z" transform="translate(-467.117 -446.843)" fill="#73bb92"/>
      <path id="パス_330" data-name="パス 330" d="M493.374,456.359a.177.177,0,0,0-.057.205.682.682,0,0,1-.017.237c-.015.1-.039.2-.058.3,0,.02-.009.049,0,.061a.277.277,0,0,1,.005.3.5.5,0,0,0-.026.275.751.751,0,0,1,.008.077c0,.068-.113.081-.077.162.027.062,0,.107-.019.166a.683.683,0,0,0-.018.251.884.884,0,0,0,.032.252.215.215,0,0,1-.073.24.147.147,0,0,0-.053.117.448.448,0,0,0,0,.064.633.633,0,0,1-.031.328c-.052.114.025.212.031.318s.061.24-.042.352c-.028.031-.021.106-.012.157a.471.471,0,0,1-.008.174c-.021.115-.026.233-.036.35,0,0,0,.01,0,.012-.085.132,0,.269-.012.4a.762.762,0,0,1-.026.211.4.4,0,0,0,0,.239.228.228,0,0,1-.007.113c-.031.091-.069.181-.1.271a.132.132,0,0,0-.013.062,2.515,2.515,0,0,0,.064.287.44.44,0,0,1,.009.3.2.2,0,0,0,.062.241,1.317,1.317,0,0,1,.138.126c.009.049.016.1.027.145s0,.092-.062.1a.774.774,0,0,1-.305,0,.3.3,0,0,1-.2-.18.309.309,0,0,0-.058-.123.3.3,0,0,1-.083-.217c-.015-.13-.039-.26-.05-.391-.007-.087,0-.176,0-.263,0-.04-.015-.081-.02-.121a.189.189,0,0,1,0-.1.138.138,0,0,0-.039-.181c.124-.064.064-.169.068-.256.006-.143-.021-.288,0-.429a1.422,1.422,0,0,0,0-.415c-.009-.049.039-.107.037-.161a.572.572,0,0,1,.113-.38.112.112,0,0,0-.007-.1.2.2,0,0,1,0-.184.487.487,0,0,0,.024-.3.242.242,0,0,1,0-.087,2.043,2.043,0,0,1,.084-.394.8.8,0,0,0,.01-.329.3.3,0,0,1,.058-.241.115.115,0,0,0,.021-.082,4.613,4.613,0,0,1,.062-.769,1.616,1.616,0,0,1,.1-.481.327.327,0,0,0,.01-.19.521.521,0,0,1,.09-.409.37.37,0,0,0,.04-.3.276.276,0,0,1,0-.11c.011-.117.1-.224.043-.349-.005-.014.013-.038.021-.057s.035-.058.031-.082a1.115,1.115,0,0,1,.1-.5.549.549,0,0,0,.036-.169c-.01-.133.116-.23.089-.366,0-.019.023-.044.034-.067.02-.042.061-.089.055-.128-.023-.149.11-.234.136-.362.005-.024.05-.039.076-.059l.125.084c.013.1.018.184.035.267s.042.162-.069.212c-.031.014-.045.088-.046.136a1.358,1.358,0,0,1-.032.285,1.321,1.321,0,0,0,.005.324c-.078.039-.088.128-.1.216a2.182,2.182,0,0,1-.066.4c-.04.121-.023.247-.067.365A.4.4,0,0,0,493.374,456.359Z" transform="translate(-478.17 -450.077)" fill="#73bb92"/>
      <path id="パス_331" data-name="パス 331" d="M476.159,466.565c-.018-.026-.057-.059-.051-.077.029-.09-.037-.135-.073-.19l.117-.284a.329.329,0,0,1-.2-.274,4.447,4.447,0,0,0-.133-.436.113.113,0,0,0-.022-.031c-.11-.141-.221-.282-.331-.424a.234.234,0,0,1-.049-.089.122.122,0,0,0-.075-.108c-.02-.008-.049-.042-.045-.056.022-.073-.032-.12-.056-.173a1.344,1.344,0,0,0-.157-.262.474.474,0,0,1-.08-.208,1.015,1.015,0,0,0-.057-.188,2.39,2.39,0,0,0-.121-.3.631.631,0,0,1-.073-.23,3.112,3.112,0,0,1-.085-.477.618.618,0,0,0-.041-.144c-.016-.069-.022-.141-.043-.207a3.064,3.064,0,0,0-.122-.493c-.021-.041,0-.1-.013-.152-.018-.074-.051-.145-.071-.219-.032-.118-.058-.238-.086-.357-.022-.094-.048-.187-.066-.281s-.025-.182-.038-.273a.225.225,0,0,0-.019-.086,2.683,2.683,0,0,1-.178-.594c-.052-.148-.044-.3-.082-.451-.013-.052,0-.113-.018-.161-.057-.134-.023-.286-.1-.417a.593.593,0,0,1-.066-.218,1.32,1.32,0,0,0-.162-.466c-.013-.024-.045-.038-.067-.058a.094.094,0,0,1,0-.16c.017-.013.035-.021.052-.033.049-.036.081-.116.156-.093a2.136,2.136,0,0,1,.283.114.08.08,0,0,1,.031.065.37.37,0,0,0,.124.31.018.018,0,0,1,.006.011,1.036,1.036,0,0,0,.074.339,1.191,1.191,0,0,1,.022.135.422.422,0,0,1,.018.086,1.077,1.077,0,0,0,.118.477.368.368,0,0,1,.046.3.235.235,0,0,0,.025.194.707.707,0,0,1,.034.212c.005.033.009.08.031.094.085.053.071.135.086.214a1.053,1.053,0,0,0,.157.437.454.454,0,0,1,.063.139c.036.127.071.255.1.385a.457.457,0,0,1,0,.183.517.517,0,0,0,.051.246,1.02,1.02,0,0,0,.123.249.45.45,0,0,1,.049.254,2.591,2.591,0,0,0,.044.406c.108.07.074.187.092.286a1.631,1.631,0,0,0,.079.192,5.182,5.182,0,0,0,.267.683c.1.216.176.448.3.654a1.451,1.451,0,0,0,.269.446c.01.008.022.02.022.031-.005.128.114.184.168.278a.256.256,0,0,1,.048.146c0,.1,0,.2,0,.305a.027.027,0,0,0,0,.013c.08.15-.038.228-.115.323a.9.9,0,0,0-.1.147.165.165,0,0,0-.015.12.533.533,0,0,1-.021.183Z" transform="translate(-466.758 -452.483)" fill="#73bb92"/>
      <path id="パス_332" data-name="パス 332" d="M521.515,460.686a.183.183,0,0,1,.042.241c-.035.084-.057.19-.159.24-.032.016-.045.07-.066.106-.039.065-.078.129-.115.2-.017.029-.031.061-.044.091s-.029.068-.045.1-.035.046-.033.066c.018.179-.13.3-.151.47,0,.025-.042.044-.054.07a.481.481,0,0,0-.062.174.383.383,0,0,1-.163.287c-.043.037-.084.062-.093.128a.143.143,0,0,1-.116.124c-.068.014-.082.065-.11.122a3.25,3.25,0,0,1-.186.378,2.466,2.466,0,0,0-.127.322c-.007.015,0,.036-.011.049-.094.149-.194.3-.282.448a1.33,1.33,0,0,0-.083.222.3.3,0,0,1-.026.069c-.052.073-.112.141-.161.216a.711.711,0,0,0-.145.276.968.968,0,0,1-.132.261c-.016.029-.036.057-.048.088a.568.568,0,0,1-.143.264c-.05.041-.063.126-.094.191s-.071.152-.111.226c-.088.163-.178.325-.269.487a.894.894,0,0,1-.072.1c-.007.01-.024.015-.027.026-.046.14-.089.28-.134.42-.009.027-.012.063-.031.079-.109.092-.113.233-.17.349a.32.32,0,0,1-.06.092c-.086.08-.087.078-.006.184-.106.069-.084.2-.138.3a.107.107,0,0,0-.013.062.382.382,0,0,1-.091.281c-.038.055-.074.075-.118.057a.672.672,0,0,1-.369-.261c-.062-.108-.066-.164.009-.256a.328.328,0,0,0,.077-.2.3.3,0,0,1,.075-.169.438.438,0,0,0,.087-.229,1.78,1.78,0,0,1,.27-.652c0-.007.014-.015.013-.021-.033-.153.11-.243.139-.376a1.6,1.6,0,0,1,.111-.215,3.605,3.605,0,0,1,.229-.377c.065-.114.12-.233.18-.349.02-.038.042-.074.063-.111.143-.24.291-.478.427-.722a1.977,1.977,0,0,0,.183-.354,1.954,1.954,0,0,1,.167-.3c.086-.16.159-.327.255-.48a4.635,4.635,0,0,1,.44-.678c.008-.009.026-.017.026-.026.01-.133.134-.192.189-.3.026-.048.039-.1.069-.148.1-.148.212-.289.306-.441a3.87,3.87,0,0,0,.171-.35.722.722,0,0,1,.061-.106c.062-.086.127-.17.19-.256a1.549,1.549,0,0,1,.093-.138.351.351,0,0,0,.118-.2.1.1,0,0,1,.091-.1A1.419,1.419,0,0,0,521.515,460.686Z" transform="translate(-493.361 -454.181)" fill="#73bb92"/>
      <path id="パス_333" data-name="パス 333" d="M502.635,454.028c.041-.029.13-.051.151-.147,0-.014.034-.024.053-.034l.173-.092.077.051c-.038.016-.058.024-.076.033-.058.029-.063.071-.039.128a1,1,0,0,1,.054.179.1.1,0,0,1-.079.134c-.1.032-.1.139-.119.223-.008.043,0,.082-.047.11-.013.009-.032.03-.029.039a.344.344,0,0,1-.055.249c-.022.048-.021.106-.043.155a2.719,2.719,0,0,0-.13.261,2.85,2.85,0,0,0-.057.311c-.007.033-.033.062-.043.1-.023.073-.043.147-.061.221a2,2,0,0,1-.068.293.8.8,0,0,0-.088.367.058.058,0,0,1-.007.038c-.113.142-.1.332-.185.488a2.113,2.113,0,0,0-.116.347c-.011.032-.029.062-.038.095-.016.056-.027.113-.04.17a.309.309,0,0,1-.021.1.581.581,0,0,0-.088.249.211.211,0,0,0,0,.131.172.172,0,0,1-.058.2c-.037.032-.073.061-.052.118a.016.016,0,0,1,0,.013c-.073.095-.049.221-.1.32a1.044,1.044,0,0,0-.083.385c-.169.131-.138.32-.152.5-.08-.016-.095.047-.112.11a1.638,1.638,0,0,0-.053.166,1.18,1.18,0,0,0,0,.185.213.213,0,0,0-.1.188.158.158,0,0,1-.038.094.318.318,0,0,0-.061.252,2.761,2.761,0,0,1-.061.514.156.156,0,0,1-.039.065c-.007.01-.029.017-.029.024.011.122-.111.194-.114.315a.808.808,0,0,1-.069.215l.041.045c0,.1,0,.178-.013.256a.353.353,0,0,1-.057.149c-.049.069-.1.126-.03.214a.139.139,0,0,1-.007.12.2.2,0,0,0,.009.181.825.825,0,0,1,.04.132.2.2,0,0,1-.148.254.135.135,0,0,1-.106-.017.751.751,0,0,1-.3-.387.192.192,0,0,1-.014-.075,1.431,1.431,0,0,1,.066-.494.018.018,0,0,0,0-.012,1.893,1.893,0,0,1,.02-.548c.055-.018.068-.062.074-.136a2.053,2.053,0,0,1,.1-.392,3.929,3.929,0,0,0,.123-.389c.021-.11.062-.214.084-.318.03-.142.1-.269.122-.411a.67.67,0,0,1,.044-.105.7.7,0,0,0,.029-.106c.005-.025,0-.054.006-.076.041-.091.13-.152.122-.279a.871.871,0,0,1,.092-.29c.016-.048.028-.1.041-.144.022-.082.044-.164.067-.245,0-.016.022-.03.022-.045a1.654,1.654,0,0,1,.13-.474c.023-.08.068-.154.1-.233a.638.638,0,0,0,.053-.207.921.921,0,0,1,.1-.313c.038-.111.088-.218.133-.327,0,0,.007-.008.007-.011-.011-.185.115-.345.1-.532a.156.156,0,0,1,.033-.095,1.753,1.753,0,0,0,.206-.492,1.264,1.264,0,0,0,.113-.4.157.157,0,0,1,.042-.093.982.982,0,0,0,.172-.418c.023-.082.055-.161.086-.24.063-.161.125-.322.191-.482.013-.03.051-.05.06-.08C502.581,454.272,502.6,454.168,502.635,454.028Z" transform="translate(-482.888 -449.972)" fill="#73bb92"/>
      <path id="パス_334" data-name="パス 334" d="M497.348,456.26l.036-.215c.116-.038.175.042.248.068a.3.3,0,0,1-.016.215,1.593,1.593,0,0,0-.053.284,3.842,3.842,0,0,0-.08.413,2,2,0,0,1-.107.5.464.464,0,0,0,0,.128.251.251,0,0,1-.005.087.379.379,0,0,0-.035.259c.009.036-.019.081-.029.122q-.026.111-.05.222c0,.021,0,.05-.01.061-.077.066-.044.146-.042.226a.457.457,0,0,1-.026.269.83.83,0,0,0-.066.232.083.083,0,0,0,.012.06.189.189,0,0,1,.011.225.319.319,0,0,0-.015.12c-.009.075-.014.152-.029.226-.027.132-.067.262-.091.4a1.313,1.313,0,0,0,.01.186,1.039,1.039,0,0,1-.07.365.913.913,0,0,0-.022.294.7.7,0,0,0,.013.105l-.058.044a3.042,3.042,0,0,1-.115.577.483.483,0,0,0,0,.168l-.064.022c0,.071,0,.145,0,.22a.074.074,0,0,1,0,.025.708.708,0,0,0-.05.393.378.378,0,0,1-.045.178c-.05.116-.132.216-.1.362.012.055-.042.138-.088.188a.185.185,0,0,0-.057.184c.007.031-.017.068-.019.1a.3.3,0,0,0,.006.109.192.192,0,0,1-.06.219c-.01.008-.029.019-.028.024.027.106-.072.178-.074.278a.723.723,0,0,1-.048.141.17.17,0,0,0,0,.106c.042.081.074.151,0,.232-.019.02,0,.072-.006.11s-.009.1-.016.146c0,.021-.018.041-.017.061.005.127-.064.25-.053.367a.51.51,0,0,1-.074.305c-.017.032-.02.071-.037.1a.143.143,0,0,1-.187.089.382.382,0,0,0-.122.007,2.09,2.09,0,0,1-.051-.343c-.02-.17.041-.337,0-.508-.011-.049.034-.109.029-.161a1.405,1.405,0,0,1,.045-.363c.039-.251.1-.5.145-.745a.658.658,0,0,1,.078-.261.7.7,0,0,0,.048-.169c.019-.058.009-.125.065-.175.024-.021.025-.071.031-.11a1.619,1.619,0,0,1,.046-.291c.064-.175.067-.362.115-.539.042-.157.1-.312.143-.468a.369.369,0,0,0,0-.076.71.71,0,0,1,.014-.1c.01-.049.023-.1.034-.145a1.944,1.944,0,0,0,.041-.195c.013-.109.013-.219.029-.327a2.876,2.876,0,0,1,.066-.321,1.875,1.875,0,0,1,.085-.4c0-.009,0-.024-.007-.035a.32.32,0,0,1,.017-.222c.038-.1,0-.213.077-.3a.789.789,0,0,1,.057-.37c.01-.044.02-.088.031-.131,0-.02.02-.044.013-.059a.146.146,0,0,1,.029-.156c.068-.095.02-.2.029-.3.012-.117.013-.234.028-.35a.971.971,0,0,1,.058-.167c.022-.066.042-.131.06-.2a.049.049,0,0,0-.007-.037c-.059-.088-.006-.152.033-.229a.675.675,0,0,0,.036-.2c0-.013,0-.029,0-.038a1.047,1.047,0,0,0,.111-.474c.006-.049.017-.1.025-.148,0-.025,0-.056.009-.075a.426.426,0,0,0,.066-.3C497.226,456.35,497.3,456.31,497.348,456.26Z" transform="translate(-480.173 -451.356)" fill="#73bb92"/>
      <path id="パス_335" data-name="パス 335" d="M509.134,464.5l-.018-.042c.04-.089.071-.155.1-.222.013-.03.022-.063.039-.091a1.334,1.334,0,0,0,.18-.32,3.229,3.229,0,0,1,.262-.537,3.444,3.444,0,0,0,.174-.323.692.692,0,0,1,.038-.089.615.615,0,0,1,.148-.247.738.738,0,0,0,.136-.238c.008-.014,0-.036.011-.049.077-.12.153-.241.236-.356.037-.051.06-.115.095-.155.095-.111.146-.257.275-.341.036-.024.053-.077.078-.116a1.631,1.631,0,0,1,.107-.157.918.918,0,0,0,.13-.2,1.9,1.9,0,0,1,.18-.248.681.681,0,0,0,.11-.17.487.487,0,0,1,.322-.3.12.12,0,0,1,.1.016.222.222,0,0,1-.018.388.321.321,0,0,0-.053.055c-.065.079-.074.2-.194.239a.947.947,0,0,1-.279.393.222.222,0,0,0-.032.082c-.006.02,0,.049-.014.06a1.241,1.241,0,0,0-.2.376c-.068.13-.162.245-.227.376-.034.069-.08.128-.117.192s0,.132-.054.19a1.444,1.444,0,0,0-.1.157l.011.068-.095.012a2.146,2.146,0,0,1-.267.439.73.73,0,0,0-.147.263.465.465,0,0,0-.006.162.533.533,0,0,0-.083.144.452.452,0,0,1-.17.267c-.024.076-.04.133-.06.19-.033.1-.069.192-.1.287-.007.019-.011.048-.025.055-.094.049-.074.14-.082.225l-.123.071a.4.4,0,0,1-.077.338c-.066.089-.166.157-.183.29a1.518,1.518,0,0,1-.116.332.228.228,0,0,1-.04.065.263.263,0,0,0-.086.165.161.161,0,0,1-.069.1.162.162,0,0,0-.064.18.149.149,0,0,1-.007.1c-.1.133-.078.309-.17.449a4.114,4.114,0,0,0-.208.436c-.033.067,0,.151-.064.21-.009.008.014.053.027.079a.189.189,0,0,1-.176.289.267.267,0,0,1-.3-.193c-.031-.122-.111-.253-.018-.392a1.286,1.286,0,0,0,.1-.242.136.136,0,0,0,.015-.062,1,1,0,0,1,.083-.428.191.191,0,0,1,.047-.074.21.21,0,0,0,.071-.171.13.13,0,0,1,.023-.084c.109-.126.095-.3.174-.435s.088-.294.2-.407a.274.274,0,0,0,.055-.115,2.079,2.079,0,0,1,.241-.517,1.345,1.345,0,0,0,.127-.28C509.014,464.566,509.049,464.509,509.134,464.5Z" transform="translate(-487.623 -453.941)" fill="#73bb92"/>
      <path id="パス_336" data-name="パス 336" d="M504.6,463.247l.023.166a.591.591,0,0,0-.174.427.53.53,0,0,1-.1.265.461.461,0,0,0-.079.212.44.44,0,0,1-.1.231.383.383,0,0,0-.086.248,1,1,0,0,1-.061.27c-.018.058-.042.111,0,.169a.086.086,0,0,1,.013.071,1.181,1.181,0,0,0-.044.429l-.184.045c0,.051.022.118-.062.128a.133.133,0,0,1-.139-.06,1.235,1.235,0,0,1-.17-.4.486.486,0,0,1,.024-.239,1.811,1.811,0,0,1,.079-.2.085.085,0,0,0,0-.06.2.2,0,0,1,.028-.216.356.356,0,0,0,.032-.11,1.7,1.7,0,0,1,.113-.422c.072-.129.071-.279.175-.4a1.568,1.568,0,0,0,.213-.472,2.339,2.339,0,0,1,.2-.468,1.535,1.535,0,0,0,.226-.456.2.2,0,0,1,.041-.079.7.7,0,0,0,.134-.307.141.141,0,0,1,.034-.064,1.544,1.544,0,0,0,.292-.574.916.916,0,0,1,.165-.387.076.076,0,0,0,.026-.044c0-.129.092-.22.13-.333a.684.684,0,0,1,.039-.079.762.762,0,0,0,.095-.2.282.282,0,0,1,.088-.176.136.136,0,0,0,.03-.041c.057-.122.111-.245.169-.366a1.488,1.488,0,0,1,.077-.134,2.5,2.5,0,0,0,.2-.534.183.183,0,0,1,.026-.058,2.385,2.385,0,0,0,.333-.585.474.474,0,0,1,.091-.139.225.225,0,0,0,.074-.206.151.151,0,0,1,.008-.059c.033-.125.033-.124.165-.117a1.156,1.156,0,0,1,.176.009c.1.022.124.064.108.16s-.015.175-.135.184c-.016,0-.027.038-.044.057a1.152,1.152,0,0,0-.178.448.955.955,0,0,1-.065.188c-.028.046-.057.078-.029.137.009.02-.02.059-.034.088-.062.124-.166.23-.161.369-.077.082-.157.146-.168.264,0,.036-.051.067-.078.1l-.024-.011c0,.1-.005.192-.008.288a.074.074,0,0,1-.007.037c-.064.091-.13.181-.194.271a.5.5,0,0,0-.066.105,2.785,2.785,0,0,1-.185.489,2.291,2.291,0,0,0-.142.315c-.085.2-.153.4-.221.6-.022.063-.017.151-.059.188-.09.08-.113.2-.194.276a.239.239,0,0,0-.09.169c-.006.056-.063.1-.093.159a.35.35,0,0,0-.021.076c-.005.019-.006.047-.019.055-.069.042-.085.113-.115.179A.744.744,0,0,1,504.6,463.247Z" transform="translate(-484.961 -452.497)" fill="#73bb92"/>
      <path id="パス_337" data-name="パス 337" d="M466.249,461.732a.7.7,0,0,0,.148.371,1.386,1.386,0,0,1,.116.21c.059.113.117.227.177.341a.017.017,0,0,0,.008.01c.106.027.106.124.124.2a2.241,2.241,0,0,1,.161.535.032.032,0,0,0,.009.024c.117.058.089.163.094.262a.159.159,0,0,0,.062.107.267.267,0,0,1,.106.2.629.629,0,0,0,.085.209c.123.231.245.463.367.694a.075.075,0,0,1,.01.036.949.949,0,0,0,.172.488,1.159,1.159,0,0,1,.151.416.514.514,0,0,0,.115.265.267.267,0,0,1,.054.151.334.334,0,0,0,.122.23,1.229,1.229,0,0,1,.119.162c.023.035.042.073.064.109.011.018.036.037.033.053-.018.115.062.153.139.2.052.035.116.073.121.156,0,.027.043.051.062.079a.133.133,0,0,1-.013.165c-.037.048-.084.121-.156.075a.193.193,0,0,0-.193,0,.1.1,0,0,1-.043,0l-.122-.126c-.157-.164-.357-.29-.43-.524a2.065,2.065,0,0,0-.116-.244.457.457,0,0,1-.035-.1,1.089,1.089,0,0,0-.171-.417.527.527,0,0,1-.1-.246,1.092,1.092,0,0,0-.167-.356,1.419,1.419,0,0,0-.113-.171c-.009-.014-.025-.031-.022-.044.028-.156-.109-.235-.163-.353a1.292,1.292,0,0,1-.14-.349.244.244,0,0,0-.041-.078.561.561,0,0,1-.049-.148,1.28,1.28,0,0,0-.138-.324.26.26,0,0,1-.049-.123.235.235,0,0,0-.1-.215.408.408,0,0,0-.044-.32,3.519,3.519,0,0,1-.234-.495.543.543,0,0,0-.15-.275.593.593,0,0,1-.106-.2c-.04-.087-.077-.176-.113-.265a.463.463,0,0,1-.017-.088.224.224,0,0,0-.013-.075c-.053-.085-.112-.166-.166-.25a.2.2,0,0,1-.046-.1.6.6,0,0,0-.08-.3c-.039-.081-.067-.166-.1-.248a.246.246,0,0,0-.182-.147.208.208,0,0,1-.174-.259.252.252,0,0,1,.006-.038c.015-.067-.009-.171.082-.181a.535.535,0,0,1,.239.061.709.709,0,0,1,.157.1.381.381,0,0,1,.053.068c.058.072.113.149.178.215a.259.259,0,0,1,.075.18,1,1,0,0,0,.147.336,1.6,1.6,0,0,0,.106.212A.989.989,0,0,0,466.249,461.732Z" transform="translate(-461.67 -454.019)" fill="#73bb92"/>
      <path id="パス_338" data-name="パス 338" d="M513.521,467.833l-.033.265c-.056.047-.141.1-.084.187-.058.113-.1.215-.158.305-.089.138-.072.309-.153.448-.015.026-.022.06-.043.079-.1.089-.1.22-.129.335,0,.013.007.029.01.045a1.144,1.144,0,0,1,.025.119c0,.033-.01.071,0,.1a.27.27,0,0,1-.119.36.373.373,0,0,1-.3-.02c-.02-.019-.045-.058-.037-.076.028-.072-.024-.122-.035-.182s-.014-.109-.021-.164-.016-.107-.017-.161a.182.182,0,0,1,.017-.108.6.6,0,0,0,.106-.45.709.709,0,0,1,.118-.4.6.6,0,0,0,.04-.14.73.73,0,0,1,.115-.28,1.307,1.307,0,0,0,.152-.342.822.822,0,0,1,.105-.256,1.088,1.088,0,0,0,.1-.216.483.483,0,0,1,.075-.144c.113-.111.132-.288.276-.374a.026.026,0,0,0,.007-.011c.067-.139.131-.278.2-.415.034-.067.076-.13.117-.193.059-.094.118-.189.181-.28.036-.052.08-.1.121-.148a.361.361,0,0,0,.056-.068.871.871,0,0,1,.092-.2,1.57,1.57,0,0,0,.153-.163,5.047,5.047,0,0,1,.485-.7.636.636,0,0,0,.193-.274c0-.015.021-.026.033-.039a.636.636,0,0,1,.113-.115c.09-.056.112-.157.17-.232.029-.036.055-.085.094-.1a.14.14,0,0,0,.086-.129c0-.024.011-.064.025-.068.124-.037.126-.174.205-.248.027-.025.027-.077.043-.128a.178.178,0,0,0,.177-.184.149.149,0,0,1,.1-.1c.116-.007.156-.1.226-.162a.086.086,0,0,1,.02-.014s.008,0,.021,0a2.515,2.515,0,0,1,.068.246.166.166,0,0,1-.028.117c-.086.115-.182.223-.271.336-.126.162-.256.322-.371.492a3,3,0,0,1-.261.355.881.881,0,0,0-.115.233c-.007.015,0,.042-.012.047-.132.064-.157.213-.249.31a1.212,1.212,0,0,0-.275.383.36.36,0,0,0-.03.084c-.006.053-.025.089-.083.1a.062.062,0,0,0-.043.025,1.861,1.861,0,0,0-.223.413,1.161,1.161,0,0,1-.135.3,3.022,3.022,0,0,1-.186.289,1.059,1.059,0,0,1-.121.124c-.015.015-.04.029-.042.046-.013.131-.122.216-.158.335a.21.21,0,0,1-.037.09.346.346,0,0,0-.1.23.974.974,0,0,1-.144.327A1.691,1.691,0,0,1,513.521,467.833Z" transform="translate(-490.429 -455.452)" fill="#73bb92"/>
      <path id="パス_339" data-name="パス 339" d="M460.635,469.951l.086.04a.324.324,0,0,1-.024.3c-.1.118-.1.1-.256.048a.916.916,0,0,1-.352-.271.483.483,0,0,1-.083-.194c-.022-.076-.052-.135-.143-.139a.1.1,0,0,1-.057-.024,3.547,3.547,0,0,1-.415-.441.684.684,0,0,0-.211-.226.068.068,0,0,1-.018-.018c-.1-.117-.21-.232-.313-.351-.03-.035-.047-.081-.077-.115-.049-.054-.079-.13-.169-.142a.181.181,0,0,1-.1-.061c-.082-.091-.16-.188-.239-.282-.055-.066-.111-.13-.162-.2a.937.937,0,0,1-.156-.319.8.8,0,0,0-.137-.254,4.086,4.086,0,0,1-.313-.519c-.1-.176-.221-.338-.334-.506a.384.384,0,0,1-.032-.04c-.056-.118-.11-.238-.168-.355-.069-.139-.142-.276-.211-.416a.62.62,0,0,1-.026-.1.557.557,0,0,0-.051-.157c-.084-.121-.179-.235-.281-.368l.051-.243a.118.118,0,0,1,.123.036c.056.047.114.091.167.141.019.018.023.051.035.077a.659.659,0,0,0,.172.248.357.357,0,0,1,.108.168,1.887,1.887,0,0,0,.308.5.263.263,0,0,1,.051.085.433.433,0,0,0,.149.213c.05.055.1.115.143.172a.181.181,0,0,0,.042.046.2.2,0,0,1,.116.159c0,.012.007.031.015.034.108.043.122.157.177.239a2.3,2.3,0,0,1,.11.242,1.007,1.007,0,0,0,.084.11c.047.065.088.134.137.2.066.085.081.205.195.259.035.017.046.08.079.111.132.128.268.25.4.377a.49.49,0,0,1,.055.084q.086.125.174.249c.008.01.017.024.028.026.164.032.232.192.359.275a.846.846,0,0,1,.192.215c.091.125.168.258.26.381.079.105.173.2.259.3s.149.175.215.27A.449.449,0,0,1,460.635,469.951Z" transform="translate(-456.396 -456.553)" fill="#73bb92"/>
    </g>
    <g id="グループ_280" data-name="グループ 280" transform="translate(-5079.046 -383.109)">
      <path id="パス_340" data-name="パス 340" d="M570.724,450.607l.1.184a.092.092,0,0,0-.028.132.088.088,0,0,1-.017.122c-.03.027-.014.105-.019.163.024.042.074.092.075.142s-.056.086-.095.139c.059.066,0,.153.008.237a.655.655,0,0,0,.015.174c.044.113.075.215-.039.308-.02.016-.024.063-.022.095,0,.06.016.119.023.179,0,.02.007.052,0,.059-.073.049-.034.11-.033.172a.551.551,0,0,0,.06.249.455.455,0,0,1,0,.22c-.006.072-.026.143-.028.215,0,.1.007.192.006.287,0,.153-.01.306-.015.459,0,0,0,.01,0,.013-.13.179.011.373-.03.559a2.924,2.924,0,0,0-.035.333c0,.046-.027.1-.013.138a.777.777,0,0,1,.014.3.19.19,0,0,1-.016.084.214.214,0,0,0,.012.265c-.081.053-.069.125-.07.2,0,.1.075.182.075.278,0,.062.07.136-.021.191-.006,0,.009.045.017.068a.5.5,0,0,1,.021.238c-.014.134-.008.27-.009.405a.05.05,0,0,0,.006.025.413.413,0,0,1-.027.41.271.271,0,0,1,.078.311.952.952,0,0,0,0,.185.311.311,0,0,1-.124.029.3.3,0,0,1-.234-.161,1.125,1.125,0,0,1-.042-.134,1.774,1.774,0,0,1-.1-.6.342.342,0,0,0-.046-.2.042.042,0,0,1-.008-.024c.031-.139-.054-.254-.078-.382,0-.011-.006-.027,0-.034.05-.067.021-.141.019-.211-.007-.225-.031-.45-.025-.675.008-.295,0-.589.011-.884,0-.106.03-.21.038-.316.006-.072,0-.145,0-.218,0-.175.008-.349.017-.524a.618.618,0,0,1,.035-.133c0-.012.02-.028.017-.033-.063-.113.023-.223.006-.342a.971.971,0,0,1,.026-.424.81.81,0,0,0,.011-.2c0-.033.006-.066.008-.1a1.3,1.3,0,0,1,.043-.4c.007-.018-.008-.046-.015-.068s-.017-.016-.016-.019c.055-.1.011-.207.019-.311a1.656,1.656,0,0,0,0-.5.437.437,0,0,1,0-.113c0-.042.022-.09.008-.124a.387.387,0,0,1,.017-.249,1.546,1.546,0,0,0,.05-.242.7.7,0,0,0-.037-.18.113.113,0,0,1-.008-.05,1.121,1.121,0,0,0,.006-.388,5.043,5.043,0,0,1,.015-.528c0-.058-.012-.115-.011-.173a1.371,1.371,0,0,0,.036-.336c-.012-.057,0-.118-.01-.174a1.73,1.73,0,0,1-.032-.488c.005-.063-.006-.127,0-.191.01-.239.027-.479.033-.719a1.065,1.065,0,0,0-.028-.317.558.558,0,0,1,.017-.3.207.207,0,0,0,.011-.085.9.9,0,0,1-.019-.473.14.14,0,0,0,.005-.076c-.066-.234-.013-.477-.058-.713a1.331,1.331,0,0,1,.019-.287c.007-.191.01-.382.015-.574a1.4,1.4,0,0,1,.094-.366c0-.011.016-.027.025-.027a.8.8,0,0,1,.243-.007c.091.023.108.123.133.2a.063.063,0,0,1-.017.046.158.158,0,0,0,0,.181.249.249,0,0,1,0,.2c-.037.119-.138.233-.037.367a1.09,1.09,0,0,0,0,.368.909.909,0,0,1-.016.4.242.242,0,0,1,.06.193c0,.046,0,.092-.006.138a.251.251,0,0,0-.005.075,3.343,3.343,0,0,1,.056.8.862.862,0,0,1-.035.341c-.023.059.035.147.016.209a.324.324,0,0,0-.01.21.25.25,0,0,1,.011.062c.021.315.042.631.061.945a.433.433,0,0,1-.007.139.783.783,0,0,0,.007.353.826.826,0,0,1,0,.251,1.267,1.267,0,0,1-.1.4c-.034.07.009.18.022.272a1.026,1.026,0,0,0,.039.148C570.85,450.5,570.831,450.565,570.724,450.607Z" transform="translate(-557.672 -444.116)" fill="#73bb92"/>
      <path id="パス_341" data-name="パス 341" d="M556.3,448.605c.081.069.135.125.129.228a.305.305,0,0,0,.075.157c.031.045.077.08.111.124a.212.212,0,0,1,.042.1c.011.113.009.113.1.176a.2.2,0,0,0,.077.2.479.479,0,0,1,.132.252.488.488,0,0,0,.137.249.186.186,0,0,1,.067.13.378.378,0,0,0,.051.168c.046.078.072.166.115.239a3.844,3.844,0,0,1,.155.387.228.228,0,0,0,.06.066.767.767,0,0,1,.191.3,1.323,1.323,0,0,1,.113.386,1.247,1.247,0,0,0,.167.435c.09.165.167.334.24.507a.756.756,0,0,1,.071.253.146.146,0,0,0,.045.1c.113.077.119.192.136.31a.725.725,0,0,0,.087.223.842.842,0,0,1,.117.328.108.108,0,0,0,.015.047c.051.086.106.169.156.255a.43.43,0,0,1,.051.13c.021.121.033.244.056.364a.55.55,0,0,0,.061.137c.05.1.064.212.158.285.016.012.017.046.02.071a.575.575,0,0,0,.107.272.868.868,0,0,1,.163.357.387.387,0,0,0,.091.177.672.672,0,0,1,.081.239.3.3,0,0,0,.054.123.272.272,0,0,1,.031.167.849.849,0,0,0,.068.383.188.188,0,0,1,.009.07c0,.016-.015.038-.009.047.116.163.075.378.182.544a.344.344,0,0,1,.026.124c.014.078.028.157.042.236,0,.008.007.018,0,.025-.075.173.065.328.046.5a.083.083,0,0,0,.018.059,1.16,1.16,0,0,1,.168.415c.047.121.093.243.129.367a1.285,1.285,0,0,1,.1.385c0,.1.055.194.034.3-.007.037.035.092.068.127.114.122.233.238.352.356a.3.3,0,0,0,.061.038l.18.106-.022.13a.83.83,0,0,1-.163-.023.121.121,0,0,0-.138.031c-.1.089-.144.086-.243,0-.07-.062-.137-.127-.206-.19-.006-.006-.011-.017-.018-.018-.189-.035-.185-.22-.262-.34a1.516,1.516,0,0,1-.073-.135.573.573,0,0,1-.1-.274.21.21,0,0,0-.045-.118.606.606,0,0,1-.162-.429.048.048,0,0,0-.009-.036c-.1-.073-.07-.184-.1-.28s-.064-.165-.088-.25a1.038,1.038,0,0,1-.069-.31,4.394,4.394,0,0,0-.1-.811c-.031-.214-.078-.426-.128-.637a2.087,2.087,0,0,0-.1-.272c-.069-.181-.14-.362-.21-.543a.214.214,0,0,1-.016-.062,1.88,1.88,0,0,0-.156-.49,1.965,1.965,0,0,0-.123-.27,2,2,0,0,1-.113-.359.992.992,0,0,1-.039-.109c-.021-.112-.094-.21-.078-.334a.224.224,0,0,0-.065-.147.27.27,0,0,1-.062-.24.248.248,0,0,0-.115-.252.233.233,0,0,1-.095-.171.718.718,0,0,0-.112-.32.6.6,0,0,1-.091-.3,1.03,1.03,0,0,0-.1-.309.783.783,0,0,0-.03-.081c-.029-.074-.058-.149-.089-.222-.086-.2-.173-.4-.26-.594-.029-.066-.063-.129-.089-.2-.059-.153-.119-.307-.17-.463-.03-.092-.033-.193-.069-.282a3.254,3.254,0,0,0-.159-.3q-.048-.09-.093-.181c-.043-.088-.086-.177-.128-.267-.014-.03-.023-.062-.035-.093l-.108-.3c-.008-.023-.014-.046-.021-.069-.014-.042-.018-.1-.048-.123a.42.42,0,0,1-.108-.165.266.266,0,0,0-.063-.094.168.168,0,0,1-.062-.2.107.107,0,0,0,0-.074c-.052-.093-.109-.184-.175-.295Z" transform="translate(-549.215 -446.843)" fill="#73bb92"/>
      <path id="パス_342" data-name="パス 342" d="M575.472,456.359a.177.177,0,0,0-.057.205.677.677,0,0,1-.017.237c-.015.1-.039.2-.058.3,0,.02-.01.049,0,.061a.278.278,0,0,1,.005.3.5.5,0,0,0-.026.275.652.652,0,0,1,.008.077c0,.068-.113.081-.077.162a.2.2,0,0,1-.019.166.685.685,0,0,0-.018.251.885.885,0,0,0,.032.252.216.216,0,0,1-.074.24.148.148,0,0,0-.052.117.476.476,0,0,0,0,.064.632.632,0,0,1-.031.328c-.052.114.025.212.031.318s.061.24-.042.352c-.028.031-.021.106-.012.157a.473.473,0,0,1-.008.174c-.021.115-.026.233-.036.35,0,0,0,.01,0,.012-.085.132,0,.269-.012.4a.764.764,0,0,1-.025.211.4.4,0,0,0,0,.239.229.229,0,0,1-.007.113c-.031.091-.069.181-.1.271a.125.125,0,0,0-.013.062,2.482,2.482,0,0,0,.064.287.44.44,0,0,1,.009.3.2.2,0,0,0,.062.241,1.348,1.348,0,0,1,.138.126c.009.049.016.1.027.145s0,.092-.063.1a.773.773,0,0,1-.305,0,.3.3,0,0,1-.2-.18.3.3,0,0,0-.058-.123.306.306,0,0,1-.083-.217c-.015-.13-.039-.26-.049-.391-.007-.087,0-.176,0-.263,0-.04-.015-.081-.02-.121a.191.191,0,0,1,0-.1.138.138,0,0,0-.039-.181c.124-.064.064-.169.068-.256.006-.143-.021-.288,0-.429a1.422,1.422,0,0,0,0-.415c-.009-.049.039-.107.037-.161a.572.572,0,0,1,.113-.38.112.112,0,0,0-.007-.1.2.2,0,0,1,0-.184.491.491,0,0,0,.024-.3.241.241,0,0,1,0-.087,2.03,2.03,0,0,1,.084-.394.8.8,0,0,0,.01-.329.3.3,0,0,1,.058-.241.115.115,0,0,0,.021-.082,4.62,4.62,0,0,1,.062-.769,1.608,1.608,0,0,1,.1-.481.328.328,0,0,0,.01-.19.522.522,0,0,1,.09-.409.368.368,0,0,0,.04-.3.274.274,0,0,1,0-.11c.011-.117.1-.224.043-.349-.005-.014.013-.038.021-.057s.035-.058.031-.082a1.114,1.114,0,0,1,.1-.5.549.549,0,0,0,.036-.169c-.01-.133.116-.23.089-.366,0-.019.023-.044.034-.067.02-.042.061-.089.055-.128-.023-.149.11-.234.136-.362,0-.024.05-.039.076-.059l.125.084c.013.1.018.184.035.267s.042.162-.069.212c-.031.014-.045.088-.046.136a1.355,1.355,0,0,1-.032.285,1.33,1.33,0,0,0,.005.324c-.078.039-.088.128-.1.216a2.171,2.171,0,0,1-.066.4c-.04.121-.023.247-.067.365A.39.39,0,0,0,575.472,456.359Z" transform="translate(-560.268 -450.077)" fill="#73bb92"/>
      <path id="パス_343" data-name="パス 343" d="M558.257,466.565c-.018-.026-.057-.059-.052-.077.029-.09-.037-.135-.073-.19l.117-.284a.329.329,0,0,1-.2-.274,4.472,4.472,0,0,0-.134-.436.109.109,0,0,0-.022-.031c-.11-.141-.221-.282-.331-.424a.236.236,0,0,1-.049-.089.121.121,0,0,0-.075-.108c-.02-.008-.049-.042-.045-.056.023-.073-.032-.12-.056-.173a1.342,1.342,0,0,0-.157-.262.473.473,0,0,1-.08-.208,1.011,1.011,0,0,0-.057-.188,2.381,2.381,0,0,0-.121-.3.624.624,0,0,1-.073-.23,3.124,3.124,0,0,1-.085-.477.624.624,0,0,0-.041-.144c-.016-.069-.022-.141-.044-.207a3.04,3.04,0,0,0-.121-.493c-.022-.041,0-.1-.013-.152-.018-.074-.051-.145-.071-.219-.032-.118-.058-.238-.086-.357-.022-.094-.048-.187-.066-.281s-.025-.182-.038-.273a.222.222,0,0,0-.018-.086,2.686,2.686,0,0,1-.178-.594c-.052-.148-.044-.3-.082-.451-.013-.052,0-.113-.018-.161-.057-.134-.023-.286-.1-.417a.593.593,0,0,1-.066-.218,1.32,1.32,0,0,0-.162-.466c-.013-.024-.045-.038-.067-.058a.094.094,0,0,1,0-.16c.016-.013.035-.021.052-.033.049-.036.081-.116.156-.093a2.166,2.166,0,0,1,.283.114.079.079,0,0,1,.031.065.371.371,0,0,0,.125.31.019.019,0,0,1,.006.011,1.036,1.036,0,0,0,.074.339,1.27,1.27,0,0,1,.022.135.442.442,0,0,1,.018.086,1.08,1.08,0,0,0,.118.477.368.368,0,0,1,.046.3.235.235,0,0,0,.025.194.706.706,0,0,1,.034.212c.006.033.009.08.031.094.084.053.071.135.086.214a1.058,1.058,0,0,0,.158.437.45.45,0,0,1,.063.139c.036.127.071.255.1.385a.456.456,0,0,1,0,.183.521.521,0,0,0,.051.246,1.018,1.018,0,0,0,.122.249.447.447,0,0,1,.049.254,2.647,2.647,0,0,0,.044.406c.108.07.074.187.092.286a1.605,1.605,0,0,0,.079.192,5.236,5.236,0,0,0,.267.683c.105.216.176.448.3.654a1.448,1.448,0,0,0,.269.446c.01.008.022.02.022.031-.005.128.114.184.168.278a.255.255,0,0,1,.048.146c0,.1,0,.2,0,.305a.028.028,0,0,0,0,.013c.08.15-.038.228-.115.323a.9.9,0,0,0-.1.147.166.166,0,0,0-.015.12.542.542,0,0,1-.021.183Z" transform="translate(-548.856 -452.483)" fill="#73bb92"/>
      <path id="パス_344" data-name="パス 344" d="M603.613,460.686a.183.183,0,0,1,.042.241c-.035.084-.057.19-.159.24-.032.016-.045.07-.066.106-.038.065-.078.129-.115.2-.017.029-.031.061-.045.091s-.029.068-.044.1-.035.046-.033.066c.018.179-.13.3-.151.47,0,.025-.042.044-.054.07a.481.481,0,0,0-.062.174.383.383,0,0,1-.163.287c-.043.037-.085.062-.093.128a.142.142,0,0,1-.116.124c-.068.014-.082.065-.11.122a3.212,3.212,0,0,1-.186.378,2.483,2.483,0,0,0-.127.322c-.008.015,0,.036-.011.049-.094.149-.194.3-.282.448a1.319,1.319,0,0,0-.083.222.284.284,0,0,1-.026.069c-.052.073-.111.141-.161.216a.713.713,0,0,0-.144.276.977.977,0,0,1-.132.261.928.928,0,0,0-.048.088.567.567,0,0,1-.142.264c-.05.041-.063.126-.094.191s-.071.152-.111.226q-.132.245-.269.487a.9.9,0,0,1-.072.1c-.008.01-.024.015-.028.026-.045.14-.089.28-.134.42-.009.027-.012.063-.031.079-.109.092-.113.233-.17.349a.32.32,0,0,1-.06.092c-.086.08-.087.078-.006.184-.106.069-.084.2-.138.3a.107.107,0,0,0-.013.062.382.382,0,0,1-.091.281c-.038.055-.074.075-.118.057a.673.673,0,0,1-.37-.261c-.062-.108-.066-.164.01-.256a.328.328,0,0,0,.077-.2.3.3,0,0,1,.075-.169.442.442,0,0,0,.087-.229,1.781,1.781,0,0,1,.271-.652c0-.007.014-.015.013-.021-.033-.153.109-.243.139-.376a1.6,1.6,0,0,1,.111-.215,3.644,3.644,0,0,1,.229-.377c.066-.114.12-.233.18-.349.02-.038.042-.074.063-.111.143-.24.291-.478.427-.722a1.969,1.969,0,0,0,.183-.354,1.939,1.939,0,0,1,.167-.3c.086-.16.159-.327.254-.48a4.646,4.646,0,0,1,.44-.678c.008-.009.025-.017.026-.026.01-.133.134-.192.189-.3.026-.048.039-.1.069-.148.1-.148.212-.289.306-.441.068-.11.114-.233.171-.35a.711.711,0,0,1,.061-.106c.062-.086.127-.17.19-.256a1.562,1.562,0,0,1,.093-.138.352.352,0,0,0,.118-.2.1.1,0,0,1,.091-.1A1.425,1.425,0,0,0,603.613,460.686Z" transform="translate(-575.459 -454.181)" fill="#73bb92"/>
      <path id="パス_345" data-name="パス 345" d="M584.732,454.028c.041-.029.13-.051.151-.147,0-.014.034-.024.053-.034l.173-.092.077.051c-.038.016-.058.024-.076.033-.058.029-.062.071-.039.128a1.022,1.022,0,0,1,.054.179.1.1,0,0,1-.079.134c-.1.032-.1.139-.119.223-.008.043,0,.082-.047.11-.013.009-.032.03-.029.039a.345.345,0,0,1-.055.249c-.022.048-.021.106-.043.155a2.72,2.72,0,0,0-.13.261,2.909,2.909,0,0,0-.057.311c-.007.033-.033.062-.043.1q-.034.109-.061.221a1.992,1.992,0,0,1-.068.293.8.8,0,0,0-.088.367.058.058,0,0,1-.007.038c-.113.142-.1.332-.186.488a2.09,2.09,0,0,0-.116.347c-.011.032-.029.062-.038.095-.016.056-.027.113-.04.17a.308.308,0,0,1-.021.1.582.582,0,0,0-.088.249.209.209,0,0,0,0,.131.172.172,0,0,1-.058.2c-.037.032-.073.061-.052.118a.015.015,0,0,1,0,.013c-.073.095-.049.221-.1.32a1.04,1.04,0,0,0-.083.385c-.169.131-.138.32-.152.5-.08-.016-.094.047-.112.11s-.043.11-.053.166a1.173,1.173,0,0,0,0,.185.212.212,0,0,0-.1.188.158.158,0,0,1-.039.094.318.318,0,0,0-.061.252,2.767,2.767,0,0,1-.061.514c0,.023-.024.044-.039.065s-.03.017-.029.024c.011.122-.112.194-.114.315a.805.805,0,0,1-.069.215l.041.045c0,.1,0,.178-.013.256a.353.353,0,0,1-.057.149c-.049.069-.1.126-.03.214a.139.139,0,0,1-.007.12.2.2,0,0,0,.009.181.844.844,0,0,1,.04.132.2.2,0,0,1-.148.254.135.135,0,0,1-.106-.017.75.75,0,0,1-.3-.387.182.182,0,0,1-.014-.075,1.428,1.428,0,0,1,.066-.494.02.02,0,0,0,0-.012,1.893,1.893,0,0,1,.02-.548c.055-.018.068-.062.074-.136a2.057,2.057,0,0,1,.1-.392,4.064,4.064,0,0,0,.123-.389c.021-.11.062-.214.083-.318.03-.142.1-.269.122-.411a.658.658,0,0,1,.043-.105.7.7,0,0,0,.029-.106c0-.025,0-.054.005-.076.041-.091.13-.152.122-.279a.871.871,0,0,1,.092-.29c.016-.048.028-.1.041-.144.022-.082.044-.164.067-.245,0-.016.022-.03.022-.045a1.642,1.642,0,0,1,.13-.474c.023-.08.068-.154.1-.233a.641.641,0,0,0,.053-.207.925.925,0,0,1,.1-.313c.038-.111.089-.218.134-.327,0,0,.007-.008.006-.011-.011-.185.115-.345.1-.532a.158.158,0,0,1,.034-.095,1.755,1.755,0,0,0,.206-.492,1.263,1.263,0,0,0,.114-.4.158.158,0,0,1,.042-.093.98.98,0,0,0,.172-.418c.023-.082.055-.161.086-.24.062-.161.125-.322.191-.482.013-.03.051-.05.06-.08C584.678,454.272,584.7,454.168,584.732,454.028Z" transform="translate(-564.986 -449.972)" fill="#73bb92"/>
      <path id="パス_346" data-name="パス 346" d="M579.446,456.26l.036-.215c.116-.038.175.042.248.068a.3.3,0,0,1-.016.215,1.564,1.564,0,0,0-.053.284,3.9,3.9,0,0,0-.08.413,1.994,1.994,0,0,1-.107.5.445.445,0,0,0,0,.128.241.241,0,0,1-.006.087.382.382,0,0,0-.035.259c.009.036-.019.081-.029.122q-.026.111-.05.222c0,.021,0,.05-.01.061-.077.066-.044.146-.042.226a.458.458,0,0,1-.026.269.839.839,0,0,0-.066.232.083.083,0,0,0,.012.06.189.189,0,0,1,.01.225c-.019.031-.01.08-.015.12-.009.075-.014.152-.029.226-.028.132-.068.262-.091.4a1.327,1.327,0,0,0,.01.186,1.051,1.051,0,0,1-.07.365.907.907,0,0,0-.022.294.7.7,0,0,0,.013.105l-.059.044a3.016,3.016,0,0,1-.114.577.481.481,0,0,0,0,.168l-.064.022c0,.071,0,.145,0,.22a.077.077,0,0,1,0,.025.7.7,0,0,0-.05.393.377.377,0,0,1-.045.178c-.05.116-.131.216-.1.362.012.055-.042.138-.088.188a.185.185,0,0,0-.057.184c.007.031-.017.068-.019.1a.3.3,0,0,0,.005.109.192.192,0,0,1-.06.219c-.01.008-.029.019-.027.024.027.106-.072.178-.074.278a.718.718,0,0,1-.048.141.168.168,0,0,0,0,.106c.042.081.074.151,0,.232-.019.02,0,.072-.006.11s-.009.1-.016.146c0,.021-.018.041-.017.061.006.127-.064.25-.053.367a.513.513,0,0,1-.074.305c-.017.032-.02.071-.037.1a.142.142,0,0,1-.187.089.382.382,0,0,0-.122.007,2.083,2.083,0,0,1-.051-.343,5.066,5.066,0,0,0,0-.508c-.01-.049.034-.109.029-.161a1.425,1.425,0,0,1,.044-.363c.04-.251.1-.5.146-.745a.658.658,0,0,1,.078-.261.71.71,0,0,0,.048-.169c.019-.058.009-.125.065-.175.024-.021.025-.071.031-.11a1.6,1.6,0,0,1,.046-.291c.064-.175.067-.362.115-.539.042-.157.1-.312.143-.468a.381.381,0,0,0,0-.076.767.767,0,0,1,.014-.1c.011-.049.024-.1.035-.145a1.935,1.935,0,0,0,.041-.195c.013-.109.013-.219.029-.327a2.876,2.876,0,0,1,.066-.321,1.868,1.868,0,0,1,.085-.4c0-.009,0-.024-.007-.035a.318.318,0,0,1,.017-.222c.038-.1,0-.213.077-.3a.787.787,0,0,1,.057-.37c.01-.044.02-.088.031-.131,0-.02.02-.044.013-.059a.146.146,0,0,1,.029-.156c.068-.095.019-.2.029-.3.011-.117.013-.234.028-.35a.972.972,0,0,1,.058-.167c.021-.066.042-.131.06-.2a.05.05,0,0,0-.007-.037c-.059-.088-.006-.152.032-.229a.675.675,0,0,0,.037-.2c0-.013,0-.029,0-.038a1.046,1.046,0,0,0,.111-.474c.005-.049.017-.1.025-.148,0-.025,0-.056.009-.075a.426.426,0,0,0,.066-.3C579.324,456.35,579.4,456.31,579.446,456.26Z" transform="translate(-562.271 -451.356)" fill="#73bb92"/>
      <path id="パス_347" data-name="パス 347" d="M591.231,464.5l-.018-.042c.04-.089.071-.155.1-.222.013-.03.022-.063.038-.091a1.341,1.341,0,0,0,.18-.32,3.209,3.209,0,0,1,.262-.537,3.451,3.451,0,0,0,.174-.323.675.675,0,0,1,.038-.089.618.618,0,0,1,.148-.247.733.733,0,0,0,.136-.238c.007-.014,0-.036.011-.049.077-.12.153-.241.236-.356.037-.051.06-.115.095-.155.095-.111.146-.257.275-.341.036-.024.053-.077.079-.116a1.567,1.567,0,0,1,.107-.157.924.924,0,0,0,.13-.2,1.879,1.879,0,0,1,.18-.248.694.694,0,0,0,.11-.17.487.487,0,0,1,.321-.3.12.12,0,0,1,.1.016.222.222,0,0,1-.018.388.316.316,0,0,0-.053.055c-.065.079-.074.2-.194.239a.946.946,0,0,1-.278.393.216.216,0,0,0-.032.082c-.006.02,0,.049-.014.06a1.242,1.242,0,0,0-.2.376c-.068.13-.162.245-.227.376-.034.069-.08.128-.117.192s0,.132-.054.19a1.4,1.4,0,0,0-.1.157l.011.068-.095.012a2.145,2.145,0,0,1-.267.439.725.725,0,0,0-.147.263.465.465,0,0,0-.006.162.536.536,0,0,0-.083.144.452.452,0,0,1-.17.267c-.024.076-.04.133-.06.19-.034.1-.069.192-.1.287-.007.019-.011.048-.026.055-.093.049-.074.14-.082.225l-.123.071a.4.4,0,0,1-.077.338c-.065.089-.167.157-.183.29a1.521,1.521,0,0,1-.116.332.229.229,0,0,1-.04.065.263.263,0,0,0-.086.165.162.162,0,0,1-.069.1.162.162,0,0,0-.064.18.148.148,0,0,1-.007.1c-.1.133-.078.309-.169.449a4.2,4.2,0,0,0-.208.436c-.032.067,0,.151-.064.21-.008.008.015.053.027.079a.189.189,0,0,1-.176.289.268.268,0,0,1-.3-.193c-.031-.122-.111-.253-.018-.392a1.316,1.316,0,0,0,.1-.242.134.134,0,0,0,.015-.062.991.991,0,0,1,.083-.428.183.183,0,0,1,.047-.074.21.21,0,0,0,.071-.171.13.13,0,0,1,.023-.084c.11-.126.094-.3.174-.435s.088-.294.2-.407a.278.278,0,0,0,.055-.115,2.076,2.076,0,0,1,.241-.517,1.336,1.336,0,0,0,.127-.28C591.112,464.566,591.147,464.509,591.231,464.5Z" transform="translate(-569.721 -453.941)" fill="#73bb92"/>
      <path id="パス_348" data-name="パス 348" d="M586.693,463.247l.024.166a.59.59,0,0,0-.173.427.53.53,0,0,1-.1.265.456.456,0,0,0-.079.212.444.444,0,0,1-.1.231.382.382,0,0,0-.086.248,1,1,0,0,1-.061.27c-.017.058-.042.111,0,.169a.084.084,0,0,1,.013.071,1.191,1.191,0,0,0-.044.429l-.185.045c0,.051.022.118-.062.128a.133.133,0,0,1-.139-.06,1.233,1.233,0,0,1-.17-.4.49.49,0,0,1,.023-.239,1.891,1.891,0,0,1,.08-.2.087.087,0,0,0,0-.06.2.2,0,0,1,.028-.216.36.36,0,0,0,.032-.11,1.7,1.7,0,0,1,.113-.422c.072-.129.071-.279.175-.4a1.569,1.569,0,0,0,.213-.472,2.336,2.336,0,0,1,.2-.468,1.531,1.531,0,0,0,.227-.456.2.2,0,0,1,.04-.079.7.7,0,0,0,.135-.307.137.137,0,0,1,.034-.064,1.543,1.543,0,0,0,.292-.574.916.916,0,0,1,.164-.387.076.076,0,0,0,.026-.044c0-.129.092-.22.13-.333a.764.764,0,0,1,.039-.079.761.761,0,0,0,.095-.2.282.282,0,0,1,.088-.176.135.135,0,0,0,.03-.041c.057-.122.111-.245.169-.366.022-.046.05-.09.076-.134a2.466,2.466,0,0,0,.2-.534.18.18,0,0,1,.026-.058,2.386,2.386,0,0,0,.333-.585.472.472,0,0,1,.091-.139.225.225,0,0,0,.074-.206.152.152,0,0,1,.008-.059c.033-.125.033-.124.165-.117a1.159,1.159,0,0,1,.176.009c.1.022.124.064.108.16s-.014.175-.135.184c-.016,0-.028.038-.044.057a1.153,1.153,0,0,0-.178.448.939.939,0,0,1-.065.188c-.028.046-.057.078-.029.137.01.02-.02.059-.034.088-.062.124-.166.23-.161.369-.077.082-.157.146-.168.264,0,.036-.051.067-.078.1l-.024-.011q0,.144-.008.288a.074.074,0,0,1-.007.037c-.064.091-.13.181-.194.271a.5.5,0,0,0-.066.105,2.778,2.778,0,0,1-.185.489,2.238,2.238,0,0,0-.142.315c-.085.2-.153.4-.221.6-.021.063-.017.151-.059.188-.09.08-.113.2-.194.276a.239.239,0,0,0-.09.169c-.006.056-.063.1-.093.159a.325.325,0,0,0-.021.076c-.005.019-.006.047-.019.055-.069.042-.085.113-.115.179A.734.734,0,0,1,586.693,463.247Z" transform="translate(-567.059 -452.497)" fill="#73bb92"/>
      <path id="パス_349" data-name="パス 349" d="M548.346,461.732a.693.693,0,0,0,.148.371,1.4,1.4,0,0,1,.116.21c.059.113.117.227.176.341a.02.02,0,0,0,.009.01c.106.027.106.124.124.2a2.227,2.227,0,0,1,.161.535.033.033,0,0,0,.009.024c.117.058.089.163.094.262a.158.158,0,0,0,.062.107.268.268,0,0,1,.106.2.628.628,0,0,0,.085.209q.185.346.367.694a.078.078,0,0,1,.011.036.949.949,0,0,0,.172.488,1.158,1.158,0,0,1,.151.416.506.506,0,0,0,.115.265.268.268,0,0,1,.054.151.335.335,0,0,0,.122.23,1.2,1.2,0,0,1,.119.162c.023.035.042.073.064.109.011.018.036.037.033.053-.018.115.062.153.139.2.052.035.116.073.12.156,0,.027.043.051.062.079a.132.132,0,0,1-.013.165c-.038.048-.084.121-.156.075a.193.193,0,0,0-.193,0,.1.1,0,0,1-.043,0l-.122-.126c-.157-.164-.356-.29-.43-.524a2.14,2.14,0,0,0-.116-.244.462.462,0,0,1-.035-.1,1.082,1.082,0,0,0-.171-.417.532.532,0,0,1-.1-.246,1.081,1.081,0,0,0-.166-.356,1.366,1.366,0,0,0-.113-.171c-.009-.014-.025-.031-.022-.044.028-.156-.11-.235-.163-.353a1.29,1.29,0,0,1-.14-.349.244.244,0,0,0-.041-.078.565.565,0,0,1-.049-.148,1.279,1.279,0,0,0-.138-.324.265.265,0,0,1-.05-.123.234.234,0,0,0-.1-.215.407.407,0,0,0-.044-.32,3.515,3.515,0,0,1-.234-.495.543.543,0,0,0-.15-.275.593.593,0,0,1-.106-.2c-.04-.087-.078-.176-.113-.265a.427.427,0,0,1-.016-.088.226.226,0,0,0-.013-.075c-.053-.085-.113-.166-.166-.25a.2.2,0,0,1-.046-.1.6.6,0,0,0-.08-.3c-.038-.081-.067-.166-.1-.248a.246.246,0,0,0-.182-.147.208.208,0,0,1-.174-.259.293.293,0,0,1,.007-.038c.015-.067-.009-.171.082-.181a.535.535,0,0,1,.239.061.705.705,0,0,1,.157.1.388.388,0,0,1,.053.068c.058.072.113.149.178.215a.259.259,0,0,1,.075.18.991.991,0,0,0,.147.336,1.547,1.547,0,0,0,.106.212A.986.986,0,0,0,548.346,461.732Z" transform="translate(-543.768 -454.019)" fill="#73bb92"/>
      <path id="パス_350" data-name="パス 350" d="M595.618,467.833l-.033.265c-.056.047-.141.1-.084.187-.058.113-.1.215-.158.305-.089.138-.072.309-.153.448-.015.026-.022.06-.042.079-.1.089-.1.22-.129.335,0,.013.007.029.01.045a1.112,1.112,0,0,1,.025.119c0,.033-.009.071,0,.1a.27.27,0,0,1-.118.36.374.374,0,0,1-.3-.02c-.02-.019-.044-.058-.037-.076.028-.072-.024-.122-.035-.182s-.014-.109-.021-.164-.016-.107-.017-.161a.182.182,0,0,1,.017-.108.594.594,0,0,0,.105-.45.71.71,0,0,1,.119-.4.607.607,0,0,0,.04-.14.726.726,0,0,1,.115-.28,1.3,1.3,0,0,0,.151-.342.826.826,0,0,1,.105-.256,1.082,1.082,0,0,0,.1-.216.483.483,0,0,1,.075-.144c.113-.111.132-.288.276-.374a.024.024,0,0,0,.007-.011c.067-.139.131-.278.2-.415.034-.067.076-.13.117-.193.059-.094.118-.189.181-.28.036-.052.081-.1.121-.148a.357.357,0,0,0,.056-.068.9.9,0,0,1,.092-.2,1.542,1.542,0,0,0,.154-.163,5.057,5.057,0,0,1,.485-.7.634.634,0,0,0,.193-.274c0-.015.021-.026.033-.039a.642.642,0,0,1,.113-.115c.09-.056.111-.157.17-.232.029-.036.055-.085.094-.1a.139.139,0,0,0,.086-.129c0-.024.011-.064.026-.068.125-.037.126-.174.205-.248.027-.025.028-.077.043-.128a.178.178,0,0,0,.177-.184.15.15,0,0,1,.1-.1c.116-.007.156-.1.226-.162a.1.1,0,0,1,.02-.014s.008,0,.021,0a2.515,2.515,0,0,1,.068.246.167.167,0,0,1-.028.117c-.086.115-.182.223-.27.336-.126.162-.256.322-.371.492a2.918,2.918,0,0,1-.261.355.884.884,0,0,0-.114.233c-.007.015,0,.042-.012.047-.132.064-.157.213-.25.31a1.217,1.217,0,0,0-.275.383.363.363,0,0,0-.03.084c-.006.053-.026.089-.083.1a.063.063,0,0,0-.043.025,1.883,1.883,0,0,0-.223.413,1.153,1.153,0,0,1-.135.3,3,3,0,0,1-.186.289,1.067,1.067,0,0,1-.121.124c-.015.015-.04.029-.042.046-.013.131-.122.216-.158.335a.21.21,0,0,1-.037.09.346.346,0,0,0-.1.23.972.972,0,0,1-.144.327A1.687,1.687,0,0,1,595.618,467.833Z" transform="translate(-572.527 -455.452)" fill="#73bb92"/>
      <path id="パス_351" data-name="パス 351" d="M542.733,469.951l.087.04a.324.324,0,0,1-.024.3c-.1.118-.1.1-.256.048a.912.912,0,0,1-.352-.271.476.476,0,0,1-.083-.194c-.022-.076-.052-.135-.143-.139a.1.1,0,0,1-.057-.024,3.509,3.509,0,0,1-.415-.441.684.684,0,0,0-.211-.226.068.068,0,0,1-.018-.018c-.1-.117-.21-.232-.312-.351-.03-.035-.047-.081-.077-.115-.049-.054-.079-.13-.169-.142a.181.181,0,0,1-.1-.061c-.083-.091-.16-.188-.239-.282-.055-.066-.11-.13-.162-.2a.95.95,0,0,1-.156-.319.793.793,0,0,0-.136-.254,4.1,4.1,0,0,1-.313-.519c-.1-.176-.221-.338-.334-.506a.371.371,0,0,1-.032-.04c-.057-.118-.11-.238-.168-.355-.069-.139-.143-.276-.211-.416a.662.662,0,0,1-.026-.1.55.55,0,0,0-.051-.157c-.084-.121-.179-.235-.281-.368l.051-.243a.118.118,0,0,1,.123.036c.056.047.114.091.167.141.019.018.023.051.035.077a.66.66,0,0,0,.172.248.354.354,0,0,1,.108.168,1.9,1.9,0,0,0,.308.5.265.265,0,0,1,.051.085.433.433,0,0,0,.148.213c.051.055.1.115.144.172a.183.183,0,0,0,.042.046.2.2,0,0,1,.116.159c0,.012.007.031.015.034.108.043.122.157.177.239a2.276,2.276,0,0,1,.111.242,1.007,1.007,0,0,0,.084.11c.047.065.088.134.137.2.066.085.081.205.195.259.036.017.047.08.079.111.132.128.268.25.4.377a.525.525,0,0,1,.054.084q.086.125.174.249c.007.01.017.024.028.026.165.032.232.192.359.275a.842.842,0,0,1,.192.215c.091.125.168.258.26.381.079.105.173.2.259.3s.149.175.215.27A.436.436,0,0,1,542.733,469.951Z" transform="translate(-538.494 -456.553)" fill="#73bb92"/>
    </g>
  </g>
</svg>
