<svg xmlns="http://www.w3.org/2000/svg" width="26.815" height="23.835" viewBox="0 0 26.815 23.835">
  <path id="Icon_awesome-shopping-cart" data-name="Icon awesome-shopping-cart" d="M24.586,14.027l2.2-9.683A1.117,1.117,0,0,0,25.7,2.979H7.412L6.985.893A1.117,1.117,0,0,0,5.89,0H1.117A1.117,1.117,0,0,0,0,1.117v.745A1.117,1.117,0,0,0,1.117,2.979H4.371l3.27,15.988a2.607,2.607,0,1,0,3.121.4h9.76a2.606,2.606,0,1,0,2.961-.484l.257-1.13a1.117,1.117,0,0,0-1.089-1.365h-12.5l-.3-1.49H23.5A1.117,1.117,0,0,0,24.586,14.027Z" fill="#fff"/>
</svg>
