<svg xmlns="http://www.w3.org/2000/svg" width="34.139" height="34.132" viewBox="0 0 34.139 34.132">
  <path id="Icon_awesome-instagram" data-name="Icon awesome-instagram" d="M17.068,10.553A8.751,8.751,0,1,0,25.819,19.3,8.737,8.737,0,0,0,17.068,10.553Zm0,14.44A5.689,5.689,0,1,1,22.757,19.3,5.7,5.7,0,0,1,17.068,24.993Zm11.15-14.8a2.041,2.041,0,1,1-2.041-2.041A2.036,2.036,0,0,1,28.218,10.195Zm5.8,2.072c-.129-2.734-.754-5.156-2.757-7.152s-4.417-2.62-7.152-2.757c-2.818-.16-11.264-.16-14.082,0A10.153,10.153,0,0,0,2.872,5.107c-2,2-2.62,4.417-2.757,7.152-.16,2.818-.16,11.264,0,14.082.129,2.734.754,5.156,2.757,7.152a10.18,10.18,0,0,0,7.152,2.757c2.818.16,11.264.16,14.082,0,2.734-.129,5.156-.754,7.152-2.757s2.62-4.417,2.757-7.152c.16-2.818.16-11.257,0-14.075Zm-3.641,17.1a5.76,5.76,0,0,1-3.244,3.244c-2.247.891-7.578.685-10.061.685s-7.822.2-10.061-.685a5.76,5.76,0,0,1-3.244-3.244c-.891-2.247-.685-7.578-.685-10.061s-.2-7.822.685-10.061A5.76,5.76,0,0,1,7.007,6c2.247-.891,7.578-.685,10.061-.685s7.822-.2,10.061.685a5.76,5.76,0,0,1,3.244,3.244c.891,2.247.685,7.578.685,10.061S31.265,27.125,30.374,29.364Z" transform="translate(0.005 -2.238)" fill="#707070"/>
</svg>
